<svg width="104" height="104" viewBox="0 0 104 104" fill="none" xmlns="http://www.w3.org/2000/svg">
<path d="M55 101.113C53.1436 102.185 50.8564 102.185 49 101.113L10.9667 79.1547C9.11027 78.0829 7.96667 76.1021 7.96667 73.9586L7.96667 30.0415C7.96667 27.8979 9.11026 25.9171 10.9667 24.8453L49 2.88676C50.8564 1.81495 53.1436 1.81495 55 2.88676L93.0333 24.8453C94.8897 25.9171 96.0333 27.8979 96.0333 30.0415L96.0333 73.9585C96.0333 76.1021 94.8897 78.0829 93.0333 79.1547L55 101.113Z" stroke="#206699" stroke-width="2"/>
<path d="M49.7851 56.4563H42.5988L41.1366 61.1148C41.096 61.2879 40.9366 61.4105 40.7633 61.402H37.1234C36.9159 61.402 36.8433 61.285 36.9057 61.051L43.1276 42.6722C43.1899 42.4808 43.2521 42.2628 43.3143 42.0181C43.3957 41.5924 43.4374 41.1597 43.4388 40.7259C43.4209 40.5978 43.5336 40.4845 43.6565 40.5025H48.6029C48.7479 40.5025 48.8308 40.5557 48.8518 40.6621L55.9138 61.0829C55.976 61.2958 55.9138 61.4022 55.7271 61.402H51.6828C51.541 61.4181 51.4055 61.3209 51.3717 61.1786L49.7851 56.4563ZM43.7187 52.436H48.6341C47.8265 49.6764 46.9151 46.953 46.1764 44.1719C45.3795 46.9577 44.5099 49.7323 43.7187 52.436Z" fill="#A8DAFF"/>
<path d="M60.1133 43.8846C59.796 43.8977 59.4795 43.8419 59.1847 43.721C58.8898 43.6 58.6232 43.4166 58.4022 43.1827C58.1819 42.9386 58.0107 42.6523 57.8985 42.3402C57.7864 42.0281 57.7355 41.6963 57.7489 41.3639C57.7375 41.0349 57.794 40.7071 57.9147 40.4019C58.0353 40.0968 58.2173 39.8212 58.4488 39.5931C58.6781 39.3673 58.9488 39.1905 59.2452 39.0727C59.5415 38.955 59.8577 38.8987 60.1754 38.9071C60.9221 38.9071 61.508 39.1357 61.9332 39.5931C62.1478 39.8307 62.3146 40.1095 62.424 40.4134C62.5334 40.7172 62.5833 41.0403 62.5709 41.3639C62.5839 41.6976 62.5314 42.0305 62.4165 42.343C62.3016 42.6554 62.1267 42.941 61.902 43.1827C61.6673 43.42 61.3872 43.6049 61.0793 43.7257C60.7714 43.8465 60.4425 43.9007 60.1133 43.8846ZM57.9666 61.0828V45.831C57.9666 45.6396 58.0493 45.5438 58.2155 45.5438H62.0421C62.2078 45.5438 62.2908 45.6395 62.291 45.831V61.0828C62.291 61.2957 62.208 61.4021 62.0421 61.4019H58.2466C58.06 61.4019 57.9667 61.2955 57.9666 61.0828Z" fill="#A8DAFF"/>
</svg>
