<svg width="104" height="104" viewBox="0 0 104 104" fill="none" xmlns="http://www.w3.org/2000/svg">
<path d="M55 101.113C53.1436 102.185 50.8564 102.185 49 101.113L10.9667 79.1547C9.11027 78.0829 7.96667 76.1021 7.96667 73.9586L7.96667 30.0415C7.96667 27.8979 9.11026 25.9171 10.9667 24.8453L49 2.88676C50.8564 1.81495 53.1436 1.81495 55 2.88676L93.0333 24.8453C94.8897 25.9171 96.0333 27.8979 96.0333 30.0415L96.0333 73.9585C96.0333 76.1021 94.8897 78.0829 93.0333 79.1547L55 101.113Z" stroke="#206699" stroke-width="2"/>
<path d="M28.6533 58H25.9727V45.1504H33.3379V47.3828H28.6533V50.6963H33.0127V52.9199H28.6533V58ZM35.8516 58V45.1504H38.5762V58H35.8516ZM46.6885 50.7842H51.7861V57.4463C50.96 57.7158 50.1807 57.9033 49.4482 58.0088C48.7217 58.1201 47.9775 58.1758 47.2158 58.1758C45.2764 58.1758 43.7939 57.6074 42.7686 56.4707C41.749 55.3281 41.2393 53.6904 41.2393 51.5576C41.2393 49.4834 41.8311 47.8662 43.0146 46.7061C44.2041 45.5459 45.8506 44.9658 47.9541 44.9658C49.2725 44.9658 50.5439 45.2295 51.7686 45.7568L50.8633 47.9365C49.9258 47.4678 48.9502 47.2334 47.9365 47.2334C46.7588 47.2334 45.8154 47.6289 45.1064 48.4199C44.3975 49.2109 44.043 50.2744 44.043 51.6104C44.043 53.0049 44.3271 54.0713 44.8955 54.8096C45.4697 55.542 46.3018 55.9082 47.3916 55.9082C47.96 55.9082 48.5371 55.8496 49.123 55.7324V53.0518H46.6885V50.7842ZM60.2939 58L57.2002 47.9189H57.1211C57.2324 49.9697 57.2881 51.3379 57.2881 52.0234V58H54.8535V45.1504H58.5625L61.6035 54.9766H61.6562L64.8818 45.1504H68.5908V58H66.0508V51.918C66.0508 51.6309 66.0537 51.2998 66.0596 50.9248C66.0713 50.5498 66.1123 49.5537 66.1826 47.9365H66.1035L62.79 58H60.2939ZM79.7002 58L78.7686 54.9414H74.084L73.1523 58H70.2168L74.752 45.0977H78.083L82.6357 58H79.7002ZM78.1182 52.6562C77.2568 49.8848 76.7705 48.3174 76.6592 47.9541C76.5537 47.5908 76.4775 47.3037 76.4307 47.0928C76.2373 47.8428 75.6836 49.6973 74.7695 52.6562H78.1182Z" fill="#A8DAFF"/>
</svg>
