<?xml version="1.0" encoding="utf-8"?>
<!-- Generator: Adobe Illustrator 25.1.0, SVG Export Plug-In . SVG Version: 6.00 Build 0)  -->
<svg version="1.1" id="Layer_1" xmlns="http://www.w3.org/2000/svg" xmlns:xlink="http://www.w3.org/1999/xlink" x="0px" y="0px"
	 viewBox="0 0 75 75" style="enable-background:new 0 0 75 75;" xml:space="preserve">
<style type="text/css">
	.st0{fill:none;}
	.st1{fill:#216699;}
</style>
<g>
	<path class="st0" d="M46,59.7c0-3.1-1.1-5.2-2.2-6.2c7.3-0.8,15-3.7,15-16.6c0-3.7-1.3-6.7-3.4-9c0.3-0.8,1.5-4.3-0.3-8.9
		c0,0-2.8-0.9-9,3.4c-2.6-0.7-5.4-1.1-8.2-1.1c-2.8,0-5.6,0.4-8.2,1.1c-6.3-4.4-9-3.4-9-3.4c-1.8,4.6-0.6,8-0.3,8.9
		c-2.1,2.4-3.4,5.4-3.4,9c0,12.9,7.7,15.8,14.9,16.6c-0.9,0.8-1.8,2.3-2.1,4.5c-1.9,0.9-6.6,2.4-9.5-2.8c0,0-1.8-3.2-5-3.5
		c0,0-3.2,0-0.2,2c0,0,2.2,1.1,3.6,4.9c0,0,1.9,6.5,11.1,4.5c0,2.8,0,4.9,0,5.7c0,0,0,0.1,0,0.1c2.5,0.6,5.1,1,7.8,1
		c2.9,0,5.8-0.4,8.5-1.1C46,67.7,46,64.1,46,59.7z"/>
	<path class="st0" d="M37.7,5c-0.1,0-0.1,0-0.2,0C19.6,5,5,19.6,5,37.5c0,0.2,0,0.4,0,0.6C5.3,19.8,19.8,5.1,37.7,5z"/>
	<path class="st1" d="M29.6,63.2c-9.1,2-11.1-4.5-11.1-4.5c-1.5-3.9-3.6-4.9-3.6-4.9c-3-2.1,0.2-2,0.2-2c3.3,0.2,5,3.5,5,3.5
		c2.9,5.1,7.7,3.7,9.5,2.8c0.3-2.2,1.1-3.7,2.1-4.5c-7.3-0.8-14.9-3.7-14.9-16.6c0-3.7,1.3-6.7,3.4-9c-0.3-0.9-1.5-4.3,0.3-8.9
		c0,0,2.8-0.9,9,3.4c2.6-0.7,5.4-1.1,8.2-1.1c2.8,0,5.6,0.4,8.2,1.1c6.3-4.4,9-3.4,9-3.4c1.8,4.6,0.7,8.1,0.3,8.9
		c2.1,2.4,3.4,5.4,3.4,9c0,12.9-7.7,15.8-15,16.6c1.2,1,2.2,3.1,2.2,6.2c0,4.4,0,7.9,0,9.1c13.8-3.7,24-16.4,24-31.4
		C70,19.6,55.5,5.1,37.7,5C19.8,5.1,5.3,19.8,5,38.1c0.3,15,10.7,27.5,24.7,31c0,0,0-0.1,0-0.1C29.7,68.2,29.7,66,29.6,63.2z"/>
</g>
</svg>
