<svg id="Layer_1" data-name="Layer 1" xmlns="http://www.w3.org/2000/svg" viewBox="0 0 180.5 176"><defs><style>.cls-1{fill:#cacaca;}</style></defs><path class="cls-1" d="M92.56,26.78c.24,0,.48.09.72.11q27.16,1.61,44.94,22.22a61.14,61.14,0,0,1,13.57,28A63,63,0,0,1,153,90.91a61,61,0,0,1-10.73,33.83,61.94,61.94,0,0,1-29.36,23.43c-.75.29-1.52.57-2.3.83a4,4,0,0,1-2.23.12,2.86,2.86,0,0,1-2.29-2.61,8.26,8.26,0,0,1,0-.86q0-8.15.06-16.3a21.56,21.56,0,0,0-.83-6.54,12.14,12.14,0,0,0-3.09-5.28,1.9,1.9,0,0,1-.19-.25l2-.28a44,44,0,0,0,10.69-2.75,23.6,23.6,0,0,0,14.28-16,34.61,34.61,0,0,0,1.37-7.88c.1-1.76.18-3.52.13-5.27A23.79,23.79,0,0,0,124.57,70l-.5-.59c0-.14.08-.3.13-.45a21.09,21.09,0,0,0,1-9.06,27.27,27.27,0,0,0-1.52-6.54,1,1,0,0,0-1-.74,13.47,13.47,0,0,0-4,.44,29.9,29.9,0,0,0-7.56,3.11c-1.53.86-3,1.81-4.5,2.74a1,1,0,0,1-.91.14,57.82,57.82,0,0,0-16-2,56.84,56.84,0,0,0-14.32,2,1.12,1.12,0,0,1-1-.16,49.07,49.07,0,0,0-8.13-4.48A21.73,21.73,0,0,0,60.1,52.7c-.66-.07-1.34,0-2,0a.71.71,0,0,0-.71.55,24.85,24.85,0,0,0-1.66,10.62A19,19,0,0,0,56.77,69c0,.13.08.27.13.42l-.46.56a24,24,0,0,0-5.79,13.52,40.79,40.79,0,0,0,.1,7.89,35.94,35.94,0,0,0,1.5,7.55,23.6,23.6,0,0,0,14.2,15.39,41.42,41.42,0,0,0,8.94,2.45c1.15.19,2.3.34,3.5.52a1.36,1.36,0,0,1-.16.25,12.48,12.48,0,0,0-3.31,6.11c-.14.56-.24,1.12-.34,1.68a.54.54,0,0,1-.34.46,15.62,15.62,0,0,1-9.85,1.14A11.64,11.64,0,0,1,59,123.4a17.79,17.79,0,0,1-2.1-2.78,16.54,16.54,0,0,0-3.76-4.32,9.71,9.71,0,0,0-4.78-2.19,8.55,8.55,0,0,0-2.81.08,2.59,2.59,0,0,0-.52.16.93.93,0,0,0-.5,1.56,6.68,6.68,0,0,0,1.11,1.21,5.79,5.79,0,0,0,1.14.82,9.56,9.56,0,0,1,3.08,2.75,28.87,28.87,0,0,1,4,6.86,11.28,11.28,0,0,0,7.48,6.72,19.22,19.22,0,0,0,5,.86,35.94,35.94,0,0,0,7.61-.55l.7-.08c0,.22,0,.4,0,.58,0,3.6.06,7.19.08,10.79a3.49,3.49,0,0,1,0,.79,2.9,2.9,0,0,1-3,2.52,4.67,4.67,0,0,1-1.62-.22,62.79,62.79,0,0,1-40.67-44.34,58.58,58.58,0,0,1-1.56-9.48c-.08-.91-.15-1.83-.23-2.75,0-.22-.09-.43-.13-.65V87.33c.07-.52.19-1,.22-1.57a56.36,56.36,0,0,1,1.3-9.51A62.06,62.06,0,0,1,57.54,36.1a60.88,60.88,0,0,1,29.84-9.21c.22,0,.43-.08.65-.11Z"/></svg>