<?xml version="1.0" encoding="utf-8"?>
<!-- Generator: Adobe Illustrator 25.4.1, SVG Export Plug-In . SVG Version: 6.00 Build 0)  -->
<svg version="1.1" id="Layer_1" xmlns="http://www.w3.org/2000/svg" xmlns:xlink="http://www.w3.org/1999/xlink" x="0px" y="0px"
	 viewBox="0 0 300 300" style="enable-background:new 0 0 300 300;" xml:space="preserve">
<style type="text/css">
	.st0{enable-background:new    ;}
	.st1{clip-path:url(#SVGID_00000141424172589026665440000011118541307037981596_);fill:#EEB933;}
	.st2{fill:url(#SVGID_00000080187786531859980060000014788473781250091444_);}
	.st3{fill:#E0DCD3;}
	.st4{fill:#EEB933;}
</style>
<g class="st0">
	<defs>
		<path id="SVGID_1_" class="st0" d="M13.3,178.4l0-25.2c0,45,12.7,87,43.5,102.9c14.5,7.5,32.9,10.9,52.9,10.9
			c79.6,0,185.7-54.3,185.7-122.4l0,25.2c0,68.1-106.1,122.4-185.7,122.4c-20,0-38.3-3.4-52.9-10.9C26,265.4,13.3,223.4,13.3,178.4z
			"/>
	</defs>
	<use xlink:href="#SVGID_1_"  style="overflow:visible;fill:#EEB933;"/>
	<clipPath id="SVGID_00000158735106099361002280000014024888258251313547_">
		<use xlink:href="#SVGID_1_"  style="overflow:visible;"/>
	</clipPath>
	<path style="clip-path:url(#SVGID_00000158735106099361002280000014024888258251313547_);fill:#EEB933;" d="M276.8,193.3
		c-7.7,9.9-17.5,19.1-28.7,27.4c-14.9,11.1-32.3,20.5-50.8,28c-28.7,11.6-59.9,18.3-87.8,18.3c-20,0-38.3-3.4-52.9-10.9
		C26,240.2,13.3,198.2,13.3,153.2v25.2c0,45,12.7,87,43.5,102.9c14.5,7.5,32.9,10.9,52.9,10.9c27.9,0,59.1-6.7,87.8-18.3
		c18.4-7.5,35.9-16.9,50.8-28c11.2-8.3,21-17.5,28.7-27.4c11.6-14.9,18.5-31.3,18.5-48.7v-25.2C295.3,162,288.4,178.5,276.8,193.3z"
		/>
</g>
<g>
	
		<linearGradient id="SVGID_00000127752648057864893910000009820111655335318959_" gradientUnits="userSpaceOnUse" x1="54.773" y1="-100.6583" x2="277.1602" y2="482.8093">
		<stop  offset="0" style="stop-color:#D7DBDD"/>
		<stop  offset="0.7161" style="stop-color:#FFFFFF"/>
	</linearGradient>
	<path style="fill:url(#SVGID_00000127752648057864893910000009820111655335318959_);" d="M99.2,6.8c71.5,0,196.1,64.1,196.1,137.9
		c0,68.1-106.1,122.4-185.7,122.4c-20,0-38.3-3.4-52.9-10.9C-15.7,218.7,11.8,36.3,70.3,11.7C78.2,8.4,88.1,6.8,99.2,6.8z"/>
</g>
<g>
	<polygon class="st3" points="145.7,77.7 145.7,112.9 180.9,107.4 193.6,101.8 193.6,92.8 176.9,81.4 155.2,77.7 	"/>
	<path class="st3" d="M117.6,110.9c0,0,29.5,91.5,28.9,91c-0.5-0.5-14.5-17.8-14.5-17.8l-33.7-80.3l7.2,2.6L117.6,110.9z"/>
	<g>
		<path class="st4" d="M196.4,95.5c0-13.2-26.4-20.3-51.2-20.3c-1.3,0-2.4,1.1-2.4,2.4v33.3c-23.6-0.4-41.1-6.9-44.6-13.2
			c-0.6-1.1-2.1-1.6-3.2-1c-1.2,0.6-1.7,2-1.1,3.2l50.1,112.9c0.4,0.9,1.3,1.4,2.2,1.4c0,0,0,0,0,0c1,0,1.8-0.6,2.2-1.5l46.6-112.1
			C195.9,99,196.4,97.3,196.4,95.5z M191.5,95.5c0,0.9-0.3,1.7-0.8,2.6c0,0,0,0-0.1,0.1c-3,4.9-14.6,10.1-31.6,12
			c-0.4,0-0.9,0.1-1.3,0.1c-0.8,0.1-1.6,0.1-2.4,0.2c-0.7,0.1-1.4,0.1-2.1,0.2c-0.7,0-1.4,0.1-2.2,0.1c-0.8,0-1.7,0.1-2.5,0.1
			c-0.3,0-0.7,0-1,0V80C173.6,80.5,191.5,88.4,191.5,95.5z M146,205.6l-43.5-98.1c9.6,5.1,25.4,8.3,42.7,8.3c1.8,0,3.7-0.1,5.5-0.1
			c0.7,0,1.4-0.1,2.1-0.1c1.1-0.1,2.1-0.1,3.2-0.2c0.8-0.1,1.6-0.1,2.4-0.2c1.1-0.1,2.3-0.3,3.4-0.4c0.6-0.1,1.2-0.1,1.7-0.2
			c1.8-0.3,3.5-0.6,5.1-0.9c0.1,0,0.2,0,0.3-0.1c6.8-1.3,12.9-3.3,17.6-5.8L146,205.6z"/>
		<path class="st4" d="M145.8,186.9c-4.8,0-9.2-0.9-11.8-2.3l12,27.1l11.3-27.1C154.9,186,150.7,186.9,145.8,186.9z"/>
	</g>
</g>
</svg>
