<?xml version="1.0" encoding="utf-8"?>
<!-- Generator: Adobe Illustrator 25.4.1, SVG Export Plug-In . SVG Version: 6.00 Build 0)  -->
<svg version="1.1" id="Layer_1" xmlns="http://www.w3.org/2000/svg" xmlns:xlink="http://www.w3.org/1999/xlink" x="0px" y="0px"
	 viewBox="0 0 300 300" style="enable-background:new 0 0 300 300;" xml:space="preserve">
<style type="text/css">
	.st0{fill:#91459A;}
	.st1{fill:url(#SVGID_1_);}
	.st2{fill:url(#SVGID_00000121985442672214476260000009762701708851845786_);}
	.st3{fill:#F8992E;}
	.st4{fill:#FBB480;}
	.st5{fill:#FBE3D4;}
	.st6{fill:#5C676E;}
	.st7{fill:#F7C82D;}
	.st8{fill:#FFDE80;}
	.st9{fill:#FBF1D4;}
	.st10{fill:#6B2D72;}
	.st11{fill:#DDD3DE;}
	.st12{fill:url(#SVGID_00000147905342065868421610000004584237222966151336_);}
</style>
<path class="st0" d="M296.9,210.6c0,0.5-0.1,1-0.1,1.5c-0.1,1-0.1,2.1-0.2,3.1c-0.1,0.6-0.2,1.1-0.2,1.7c-0.1,0.9-0.2,1.7-0.4,2.6
	c-0.1,0.6-0.2,1.1-0.3,1.7c-0.2,0.8-0.3,1.5-0.5,2.3c-0.1,0.6-0.3,1.1-0.5,1.6c-0.2,0.7-0.4,1.4-0.6,2c-0.2,0.5-0.4,1-0.6,1.5
	c-0.2,0.6-0.5,1.2-0.7,1.8c-0.2,0.5-0.5,0.9-0.7,1.4c-0.3,0.6-0.6,1.1-0.9,1.6c-0.3,0.4-0.6,0.8-0.8,1.3c-0.4,0.6-0.8,1.2-1.2,1.8
	c-0.7,0.8-1.4,1.6-2.2,2.3c-0.3,0.3-0.6,0.5-0.9,0.7c-0.6,0.5-1.2,1-1.8,1.5c-0.2,0.2-0.5,0.3-0.8,0.5c-0.7,0.5-1.5,1-2.3,1.5
	c-0.3,0.2-0.6,0.4-1,0.6c-0.9,0.5-1.9,1-2.9,1.5c-0.2,0.1-0.4,0.2-0.6,0.3c-1.2,0.6-2.5,1.1-3.8,1.6c-0.3,0.1-0.6,0.2-1,0.4
	c-1.1,0.4-2.2,0.8-3.3,1.2c-0.4,0.1-0.7,0.2-1.1,0.4c-1.4,0.5-2.9,0.9-4.5,1.3c-0.3,0.1-0.5,0.1-0.8,0.2c-1.3,0.4-2.7,0.7-4.1,1
	c-0.5,0.1-0.9,0.2-1.4,0.3c-1.6,0.4-3.3,0.7-5,1c-0.1,0-0.1,0-0.2,0c-1.8,0.3-3.6,0.6-5.5,0.9c-0.5,0.1-1,0.2-1.5,0.2
	c-1.6,0.2-3.2,0.5-4.8,0.7c-0.4,0-0.7,0.1-1.1,0.1c-1.9,0.2-3.9,0.4-5.9,0.6c-0.5,0-1,0.1-1.5,0.1c-1.6,0.1-3.3,0.3-5,0.4
	c-0.5,0-1,0.1-1.6,0.1c-2.1,0.1-4.2,0.3-6.4,0.4c-0.4,0-0.8,0-1.2,0c-1.8,0.1-3.7,0.1-5.5,0.2c-0.6,0-1.2,0-1.8,0
	c-2.2,0-4.5,0.1-6.8,0.1c-76.6,0-177.3-24.4-195.7-76.9c-3-8.5-4.4-17.3-4.4-26.2v25.2c0,8.9,1.4,17.6,4.4,26.2
	c18.4,52.5,119.1,76.9,195.7,76.9c2.3,0,4.5,0,6.8-0.1c0.6,0,1.2,0,1.8,0c1.9,0,3.7-0.1,5.5-0.2c0.4,0,0.8,0,1.2,0
	c2.1-0.1,4.3-0.2,6.3-0.4c0.5,0,1.1-0.1,1.6-0.1c1.7-0.1,3.3-0.3,5-0.4c0.5,0,1-0.1,1.5-0.1c2-0.2,4-0.4,5.9-0.6
	c0.4,0,0.7-0.1,1.1-0.1c1.6-0.2,3.2-0.4,4.8-0.7c0.5-0.1,1-0.2,1.5-0.2c1.9-0.3,3.7-0.6,5.5-0.9c0,0,0.1,0,0.1,0
	c1.7-0.3,3.4-0.7,5-1c0.5-0.1,0.9-0.2,1.4-0.3c1.4-0.3,2.8-0.7,4.1-1c0.3-0.1,0.5-0.1,0.8-0.2c1.5-0.4,3-0.9,4.5-1.3
	c0.4-0.1,0.7-0.2,1.1-0.4c1.1-0.4,2.3-0.8,3.3-1.2c0.3-0.1,0.7-0.2,1-0.4c0.2-0.1,0.3-0.1,0.5-0.2c1.2-0.5,2.2-0.9,3.3-1.4
	c0.2-0.1,0.4-0.2,0.6-0.3c1-0.5,2-1,2.9-1.5c0.3-0.2,0.7-0.4,1-0.6c0.8-0.5,1.6-1,2.3-1.5c0.2-0.2,0.5-0.3,0.7-0.5
	c0.1-0.1,0.2-0.1,0.3-0.2c0.6-0.4,1-0.8,1.5-1.3c0.3-0.2,0.6-0.5,0.9-0.7c0.8-0.8,1.6-1.5,2.2-2.3c0.2-0.2,0.3-0.4,0.5-0.7
	c0.3-0.3,0.5-0.7,0.7-1.1c0.3-0.4,0.6-0.8,0.8-1.3c0.3-0.5,0.6-1.1,0.9-1.6c0.2-0.5,0.5-0.9,0.7-1.4c0.3-0.6,0.5-1.2,0.7-1.8
	c0.2-0.5,0.4-1,0.6-1.5c0.2-0.7,0.4-1.4,0.6-2c0.2-0.5,0.3-1.1,0.5-1.6c0.2-0.7,0.3-1.5,0.5-2.3c0.1-0.6,0.2-1.1,0.3-1.7
	c0.1-0.8,0.2-1.7,0.4-2.6c0.1-0.6,0.2-1.1,0.2-1.7c0.1-1,0.2-2,0.2-3.1c0-0.5,0.1-1,0.1-1.5c0.1-1.6,0.1-3.1,0.1-4.8c0,0,0,0,0,0v0
	v-25.2C297,207.4,297,209,296.9,210.6z"/>
<g>
	<linearGradient id="SVGID_1_" gradientUnits="userSpaceOnUse" x1="11.3116" y1="-115.7792" x2="335.8897" y2="546.1055">
		<stop  offset="0" style="stop-color:#D7DBDD"/>
		<stop  offset="0.6493" style="stop-color:#FFFFFF"/>
	</linearGradient>
	<path class="st1" d="M158.4,8.6c5.3,0,10.6,0.4,15.6,1.4c80.1,14.5,146.4,188.2,115,226.6c-10.9,13.4-45.1,20.3-86,20.3
		c-76.6,0-177.3-24.4-195.7-76.9C-19.1,104.5,80,8.6,158.4,8.6z"/>
</g>
<linearGradient id="SVGID_00000131339848093944025410000009903628999305990047_" gradientUnits="userSpaceOnUse" x1="111.268" y1="124.8205" x2="220.3764" y2="124.8205" gradientTransform="matrix(1 0 0 -1 0 302)">
	<stop  offset="0" style="stop-color:#25292B"/>
	<stop  offset="1" style="stop-color:#5C676E"/>
</linearGradient>
<path style="fill:url(#SVGID_00000131339848093944025410000009903628999305990047_);" d="M118.5,160.8h94.7c4,0,7.2,3.2,7.2,7.2
	v18.3c0,4-3.2,7.2-7.2,7.2h-94.7c-4,0-7.2-3.2-7.2-7.2V168C111.3,164,114.5,160.8,118.5,160.8z"/>
<rect x="170.4" y="107.6" transform="matrix(0.7071 -0.7071 0.7071 0.7071 -31.3919 168.3909)" class="st3" width="34.3" height="29.1"/>
<rect x="146.1" y="131.9" transform="matrix(0.7071 -0.7071 0.7071 0.7071 -55.6803 158.3343)" class="st4" width="34.3" height="29.1"/>
<rect x="121.8" y="156.1" transform="matrix(0.7071 -0.7071 0.7071 0.7071 -79.9573 148.2778)" class="st5" width="34.3" height="29.1"/>
<path class="st6" d="M190.3,103.3c0.8,0,1.6,0.3,2.2,0.9l13,13c1.2,1.2,1.2,3.1,0,4.3l-67,67c-0.6,0.6-1.4,0.9-2.2,0.9
	c-0.8,0-1.6-0.3-2.2-0.9l-12.9-12.9c-1.2-1.2-1.2-3.1,0-4.3l66.9-66.9C188.7,103.7,189.4,103.4,190.3,103.3"/>
<rect x="113.1" y="86.9" class="st7" width="29.1" height="34.3"/>
<rect x="113.1" y="121.2" class="st8" width="29.1" height="34.3"/>
<rect x="113.1" y="155.5" class="st9" width="29.1" height="34.3"/>
<path class="st6" d="M136.8,88.5c1.7,0,3.1,1.4,3.1,3.1c0,0,0,0,0,0v94.7c0,1.7-1.4,3.1-3.1,3.1l0,0h-18.3c-1.7,0-3.1-1.4-3.1-3.1
	V91.6c0-1.7,1.4-3.1,3.1-3.1H136.8 M136.8,84.4h-18.3c-4,0-7.2,3.2-7.2,7.2v94.7c0,4,3.2,7.2,7.2,7.2h18.3c4,0,7.2-3.2,7.2-7.2V91.6
	C144,87.6,140.7,84.4,136.8,84.4L136.8,84.4L136.8,84.4z"/>
<path class="st6" d="M135.1,181.1c-1.8,0-3.2,1.5-3.2,3.2s1.5,3.2,3.2,3.2c1.8,0,3.2-1.5,3.2-3.2c0,0,0,0,0,0
	C138.3,182.6,136.9,181.1,135.1,181.1z"/>
<path class="st10" d="M118.5,160.8h94.7c4,0,7.2,3.2,7.2,7.2v18.3c0,4-3.2,7.2-7.2,7.2h-94.7c-4,0-7.2-3.2-7.2-7.2V168
	C111.3,164,114.5,160.8,118.5,160.8z"/>
<polygon class="st11" points="116.6,172.5 187.6,99.3 208.1,119.8 137.1,193.1 "/>
<linearGradient id="SVGID_00000039821888993787476620000007625428677391730568_" gradientUnits="userSpaceOnUse" x1="63.4943" y1="79.7645" x2="201.6571" y2="206.4137">
	<stop  offset="0" style="stop-color:#D7DBDD"/>
	<stop  offset="0.674" style="stop-color:#FFFFFF"/>
</linearGradient>
<rect x="113.1" y="87.2" style="fill:url(#SVGID_00000039821888993787476620000007625428677391730568_);" width="29.1" height="102.7"/>
<g>
	<path class="st10" d="M135.1,187.6c1.8,0,3.2-1.5,3.2-3.2c0-1.8-1.5-3.2-3.2-3.2c-1.8,0-3.2,1.5-3.2,3.2S133.3,187.6,135.1,187.6z"
		/>
	<path class="st0" d="M208.3,114.3l-13-13c-1.3-1.3-3.2-2.1-5.1-2.1c-1.9,0-3.7,0.8-5.1,2.1L144,142.6v-51c0-4-3.2-7.2-7.2-7.2
		h-18.3c-4,0-7.2,3.2-7.2,7.2v94.7c0,4,3.2,7.2,7.2,7.2h16.9c0.7,0,1.2,0,1.8,0c1.3,0,4.8-1.7,5.9-3.9l0,0l65.1-65.1
		C211.1,121.7,211.1,117.1,208.3,114.3z M139.8,186.3c0,1.7-1.4,3.1-3.1,3.1h-18.3c-1.7,0-3.1-1.4-3.1-3.1v-28.9h24.5V186.3z
		 M139.8,154h-24.5v-31.1h24.5V154z M139.8,91.6v27.9h-24.5V91.6c0-1.7,1.4-3.1,3.1-3.1h18.3C138.5,88.5,139.8,89.9,139.8,91.6
		C139.8,91.6,139.8,91.6,139.8,91.6z M144,183v-34.2l17.1,17.1L144,183z M163.5,163.5l-17.3-17.3l22-22l17.3,17.3L163.5,163.5z
		 M205.4,121.5l-17.5,17.5l-17.3-17.3l17.5-17.5c0.6-0.6,1.3-0.9,2.2-0.9l0-0.1c0.8,0,1.6,0.3,2.2,0.9l13,13
		C206.6,118.4,206.6,120.3,205.4,121.5z"/>
</g>
</svg>
