<?xml version="1.0" encoding="utf-8"?>
<!-- Generator: Adobe Illustrator 25.4.1, SVG Export Plug-In . SVG Version: 6.00 Build 0)  -->
<svg version="1.1" id="Layer_1" xmlns="http://www.w3.org/2000/svg" xmlns:xlink="http://www.w3.org/1999/xlink" x="0px" y="0px"
	 viewBox="0 0 300 300" style="enable-background:new 0 0 300 300;" xml:space="preserve">
<style type="text/css">
	.st0{fill:#5BBF8E;}
	.st1{fill:url(#SVGID_1_);}
	.st2{fill:#D3E0DC;}
	.st3{fill:#309662;}
</style>
<g>
	<path class="st0" d="M273.5,184.1c0.1-0.1,0.2-0.3,0.3-0.4c1.2-1.6,2.3-3.3,3.3-4.9c0.2-0.4,0.5-0.8,0.7-1.1
		c1.1-1.6,2.1-3.3,3.1-4.9c0.1-0.1,0.1-0.2,0.2-0.4c0.9-1.6,1.8-3.1,2.6-4.6c0.2-0.4,0.4-0.7,0.6-1.1c0.8-1.6,1.6-3.2,2.3-4.8
		c0.1-0.3,0.2-0.5,0.3-0.8c0.6-1.4,1.2-2.9,1.8-4.3c0.1-0.3,0.2-0.6,0.4-1c0.6-1.6,1.1-3.2,1.6-4.8c0.1-0.3,0.2-0.7,0.3-1
		c0.4-1.5,0.8-2.9,1.1-4.3c0-0.2,0.1-0.4,0.1-0.6c0.3-1.6,0.5-3.2,0.7-4.7c0-0.4,0.1-0.7,0.1-1.1c0.1-1.6,0.2-3.2,0.2-4.8l0-26
		c0,1.6-0.1,3.2-0.2,4.8c0,0.4-0.1,0.7-0.1,1.1c-0.2,1.6-0.4,3.1-0.7,4.7c0,0.2-0.1,0.4-0.1,0.6c-0.3,1.4-0.7,2.9-1.1,4.3
		c-0.1,0.3-0.2,0.7-0.3,1c-0.5,1.6-1,3.2-1.6,4.8c-0.1,0.3-0.2,0.6-0.4,0.9c-0.5,1.4-1.1,2.9-1.8,4.3c-0.1,0.3-0.2,0.5-0.3,0.8
		c-0.7,1.6-1.5,3.2-2.3,4.8c-0.2,0.4-0.4,0.7-0.6,1.1c-0.8,1.5-1.7,3.1-2.6,4.6c-0.1,0.1-0.1,0.2-0.2,0.4c-1,1.6-2,3.3-3.1,4.9
		c-0.2,0.4-0.5,0.8-0.7,1.1c-1.1,1.6-2.2,3.3-3.3,4.9c-0.1,0.1-0.2,0.3-0.3,0.4c-1.1,1.5-2.2,3.1-3.4,4.6c-0.3,0.4-0.5,0.7-0.8,1.1
		c-0.5,0.7-1,1.3-1.6,2c-1.5,1.9-3.1,3.9-4.7,5.8c-0.5,0.6-1,1.2-1.5,1.8c-2,2.3-4.1,4.7-6.2,7c-0.3,0.4-0.7,0.7-1,1.1
		c-1.9,2-3.8,4-5.7,6c-0.6,0.6-1.2,1.2-1.8,1.9c-2.3,2.3-4.6,4.6-6.9,6.9c-2.4,2.2-4.8,4.4-7.2,6.5c-0.8,0.7-1.6,1.4-2.4,2
		c-1.7,1.5-3.4,2.9-5.1,4.4c-0.9,0.8-1.9,1.6-2.9,2.4c-1.6,1.3-3.2,2.6-4.7,3.9c-1,0.8-2,1.6-3,2.4c-1.6,1.3-3.2,2.5-4.8,3.7
		c-1.1,0.8-2.2,1.6-3.3,2.4c-0.8,0.6-1.6,1.1-2.4,1.7c-1.4,1-2.9,2.1-4.3,3.1c-0.8,0.5-1.6,1.1-2.4,1.6c-1.6,1.1-3.2,2.1-4.8,3.2
		c-0.6,0.4-1.2,0.8-1.9,1.2c-2.2,1.4-4.4,2.8-6.6,4c-0.4,0.2-0.8,0.4-1.2,0.7c-1.8,1.1-3.6,2.1-5.4,3c-0.7,0.4-1.5,0.8-2.2,1.2
		c-1.5,0.8-2.9,1.5-4.4,2.2c-0.8,0.4-1.6,0.8-2.4,1.1c-1.5,0.7-2.9,1.3-4.3,2c-0.7,0.3-1.5,0.6-2.2,0.9c-1.9,0.8-3.9,1.6-5.8,2.2
		c-0.4,0.1-0.7,0.2-1.1,0.4c-2,0.7-4,1.3-6,1.9c-0.1,0-0.1,0-0.2,0.1c-2,0.6-4,1-5.9,1.4c-0.4,0.1-0.7,0.2-1.1,0.2
		c-1.9,0.4-3.7,0.6-5.6,0.8c-0.3,0-0.7,0.1-1,0.1c-1.9,0.2-3.8,0.3-5.6,0.3c-4.7,0-9.1-0.6-13.4-1.8c-33.4-8.8-76-58.1-93.1-104.2
		c-7.2-18.2-10.6-35.9-10.6-52.1l0,26c0,16.3,3.4,34,10.6,52.1c17.1,46.1,59.7,95.4,93.1,104.2c4.2,1.2,8.7,1.8,13.4,1.8
		c1.8,0,3.7-0.1,5.6-0.3c0.3,0,0.7-0.1,1-0.1c1.8-0.2,3.7-0.5,5.6-0.8c0.4-0.1,0.7-0.1,1.1-0.2c2-0.4,3.9-0.9,5.9-1.4
		c0.1,0,0.1,0,0.2-0.1c2-0.6,4-1.2,6-1.9c0.4-0.1,0.7-0.2,1.1-0.4c1.6-0.6,3.3-1.2,4.9-1.9c0.3-0.1,0.6-0.3,0.9-0.4
		c0.7-0.3,1.4-0.6,2.2-0.9c1.4-0.6,2.9-1.3,4.4-2c0.8-0.4,1.6-0.7,2.4-1.1c1.5-0.7,2.9-1.5,4.4-2.2c0.7-0.4,1.5-0.8,2.2-1.2
		c1.8-1,3.6-2,5.4-3c0.4-0.2,0.8-0.4,1.2-0.7c2.2-1.3,4.4-2.7,6.6-4.1c0.6-0.4,1.2-0.8,1.9-1.2c1.6-1,3.2-2.1,4.8-3.2
		c0.8-0.5,1.6-1.1,2.3-1.6c1.5-1,2.9-2,4.3-3.1c0.8-0.6,1.6-1.1,2.4-1.7c0.4-0.3,0.9-0.6,1.3-1c0.6-0.5,1.3-1,1.9-1.5
		c1.6-1.2,3.2-2.4,4.8-3.7c1-0.8,2-1.6,3-2.4c1.6-1.3,3.2-2.6,4.8-3.9c1-0.8,1.9-1.6,2.9-2.4c1.7-1.4,3.4-2.9,5.1-4.3
		c0.8-0.7,1.6-1.4,2.4-2c2.4-2.2,4.9-4.3,7.2-6.5c2.4-2.3,4.7-4.6,6.9-6.9c0.6-0.6,1.2-1.2,1.8-1.9c1.9-2,3.8-4,5.7-6
		c0.3-0.4,0.7-0.7,1-1.1c2.1-2.3,4.2-4.7,6.2-7c0.5-0.6,1-1.2,1.5-1.8c1.6-1.9,3.2-3.9,4.7-5.8c0.3-0.4,0.6-0.8,0.9-1.1
		c0.2-0.3,0.4-0.6,0.6-0.8c0.3-0.4,0.6-0.7,0.8-1.1C271.2,187.2,272.4,185.6,273.5,184.1z"/>
	<g>
		<linearGradient id="SVGID_1_" gradientUnits="userSpaceOnUse" x1="16.5719" y1="-157.0679" x2="346.3095" y2="502.4073">
			<stop  offset="0" style="stop-color:#D7DBDD"/>
			<stop  offset="0.6702" style="stop-color:#FFFFFF"/>
		</linearGradient>
		<path class="st1" d="M132.4,4.5c9.3,0,18.8,0.8,28.4,2.6c49.3,7.4,101.2,40,124,75.3c23.5,34.5-5.9,76.9-45,114.8
			c-34.9,32.3-77.2,61.1-110,61.1c-4.7,0-9.1-0.6-13.4-1.8c-33.4-8.8-76-58.1-93.1-104.2C4.6,105,11.4,61,37.6,37.2
			C58.8,18.7,93.6,4.5,132.4,4.5z"/>
	</g>
</g>
<path class="st2" d="M213.2,178.1H78.8c-3.6,0-6.5-2.9-6.5-6.5V93c0-3.6,2.9-6.5,6.5-6.5h134.5c3.6,0,6.5,2.9,6.5,6.5v78.6
	C219.7,175.2,216.8,178.1,213.2,178.1z"/>
<g>
	<path class="st3" d="M213.4,89.7c1.8,0,3.2,1.4,3.2,3.2v79.7c0,1.2-1,2.2-2.2,2.2l0,0H77.2c-1.2,0-2.2-1-2.2-2.2l0,0V92.9
		c0-1.8,1.4-3.2,3.2-3.2L213.4,89.7 M135.2,153.4c0.8-1,0.6-2.5-0.4-3.3L112.5,133c-0.2-0.3-0.2-0.7-0.2-0.8c0-0.2,0.1-0.5,0.4-0.7
		l22.1-16.9c1-0.8,1.2-2.3,0.4-3.3c-0.8-1-2.3-1.2-3.3-0.4l-22.1,16.9c-1.2,1-2.1,2.3-2.3,3.9c-0.2,1.6,0.2,3.1,1.2,4.4
		c0.3,0.4,0.7,0.8,1.1,1.1l22.1,16.9c0.4,0.3,0.9,0.5,1.4,0.5C134,154.3,134.7,154,135.2,153.4z M159.7,153.8l22-16.9
		c0.4-0.3,0.8-0.7,1.1-1.1c1-1.2,1.4-2.8,1.2-4.3c-0.2-1.6-1-2.9-2.3-3.9l-22.1-16.9c-1-0.8-2.5-0.6-3.3,0.4c-0.8,1-0.6,2.5,0.4,3.3
		l22.1,16.9c0.3,0.2,0.4,0.6,0.4,0.7c0,0.2,0,0.5-0.4,1L156.8,150c-1,0.8-1.2,2.3-0.4,3.3c0.5,0.6,1.2,0.9,1.9,0.9
		C158.8,154.3,159.3,154.2,159.7,153.8z M213.4,85H78.1c-4.4,0-7.9,3.5-7.9,7.9v79.7c0,3.9,3.1,7,7,7h137.3c3.9,0,7-3.1,7-7V92.9
		C221.5,88.5,217.9,85,213.4,85L213.4,85z"/>
	<path class="st3" d="M177.3,189.9h-60.8c-1.5,0-2.7-1.2-2.7-2.7s1.2-2.7,2.7-2.7h60.8c1.5,0,2.7,1.2,2.7,2.7
		S178.7,189.9,177.3,189.9z"/>
</g>
</svg>
