<svg width="104" height="104" viewBox="0 0 104 104" fill="none" xmlns="http://www.w3.org/2000/svg">
<path d="M55 101.113C53.1436 102.185 50.8564 102.185 49 101.113L10.9667 79.1547C9.11027 78.0829 7.96667 76.1021 7.96667 73.9586L7.96667 30.0415C7.96667 27.8979 9.11026 25.9171 10.9667 24.8453L49 2.88676C50.8564 1.81495 53.1436 1.81495 55 2.88676L93.0333 24.8453C94.8897 25.9171 96.0333 27.8979 96.0333 30.0415L96.0333 73.9585C96.0333 76.1021 94.8897 78.0829 93.0333 79.1547L55 101.113Z" stroke="#206699" stroke-width="2"/>
<path d="M45.8359 61.7793C45.2207 61.7793 44.6846 61.7148 44.2275 61.5859V59.3184C44.6963 59.4355 45.124 59.4941 45.5107 59.4941C46.1084 59.4941 46.5361 59.3066 46.7939 58.9316C47.0518 58.5625 47.1807 57.9824 47.1807 57.1914V45.1504H49.9053V57.1738C49.9053 58.6738 49.5625 59.8164 48.877 60.6016C48.1914 61.3867 47.1777 61.7793 45.8359 61.7793ZM60.7246 54.4316C60.7246 55.5918 60.3057 56.5059 59.4678 57.1738C58.6357 57.8418 57.4756 58.1758 55.9873 58.1758C54.6162 58.1758 53.4033 57.918 52.3486 57.4023V54.8711C53.2158 55.2578 53.9482 55.5303 54.5459 55.6885C55.1494 55.8467 55.7002 55.9258 56.1982 55.9258C56.7959 55.9258 57.2529 55.8115 57.5693 55.583C57.8916 55.3545 58.0527 55.0146 58.0527 54.5635C58.0527 54.3115 57.9824 54.0889 57.8418 53.8955C57.7012 53.6963 57.4932 53.5059 57.2178 53.3242C56.9482 53.1426 56.3945 52.8525 55.5566 52.4541C54.7715 52.085 54.1826 51.7305 53.79 51.3906C53.3975 51.0508 53.084 50.6553 52.8496 50.2041C52.6152 49.7529 52.498 49.2256 52.498 48.6221C52.498 47.4854 52.8818 46.5918 53.6494 45.9414C54.4229 45.291 55.4893 44.9658 56.8486 44.9658C57.5166 44.9658 58.1523 45.0449 58.7559 45.2031C59.3652 45.3613 60.001 45.584 60.6631 45.8711L59.7842 47.9893C59.0986 47.708 58.5303 47.5117 58.0791 47.4004C57.6338 47.2891 57.1943 47.2334 56.7607 47.2334C56.2451 47.2334 55.8496 47.3535 55.5742 47.5938C55.2988 47.834 55.1611 48.1475 55.1611 48.5342C55.1611 48.7744 55.2168 48.9854 55.3281 49.167C55.4395 49.3428 55.6152 49.5156 55.8555 49.6855C56.1016 49.8496 56.6787 50.1484 57.5869 50.582C58.7881 51.1562 59.6113 51.7334 60.0566 52.3135C60.502 52.8877 60.7246 53.5938 60.7246 54.4316Z" fill="#A8DAFF"/>
</svg>
