<?xml version="1.0" encoding="utf-8"?>
<!-- Generator: Adobe Illustrator 25.4.1, SVG Export Plug-In . SVG Version: 6.00 Build 0)  -->
<svg version="1.1" id="Layer_1" xmlns="http://www.w3.org/2000/svg" xmlns:xlink="http://www.w3.org/1999/xlink" x="0px" y="0px"
	 viewBox="0 0 180 180" style="enable-background:new 0 0 180 180;" xml:space="preserve">
<style type="text/css">
	.st0{fill:#478ECC;}
</style>
<path class="st0" d="M90,0C40.3,0,0,40.3,0,90s40.3,90,90,90s90-40.3,90-90S139.7,0,90,0z M80.9,136.7c0,2.4-1.6,4.7-4,5.4
	l-16.3,5.3V68.7h20.3V136.7z M80.9,56.7c0,3.1-2.5,5.7-5.7,5.7H60.6V48.1c0-3.4,2.7-6.1,6.1-6.1h14.2V56.7z M134.4,62.3h-26v68.8
	H88.1V62.3V42h20.3h19.9c3.4,0,6.1,2.7,6.1,6.1V62.3z"/>
</svg>
