<?xml version="1.0" encoding="utf-8"?>
<!-- Generator: Adobe Illustrator 25.2.0, SVG Export Plug-In . SVG Version: 6.00 Build 0)  -->
<svg version="1.1" id="Layer_1" xmlns="http://www.w3.org/2000/svg" xmlns:xlink="http://www.w3.org/1999/xlink" x="0px" y="0px"
	 viewBox="0 0 356 101.4" style="enable-background:new 0 0 356 101.4;" xml:space="preserve">
<style type="text/css">
	.st0{fill:none;}
	.st1{fill:#4B4B4B;}
</style>
<g id="LogoName">
	<g>
		<path class="st1" d="M83.6,58.8l2.3-2.8c1.2,1.6,2.6,2.5,4.3,2.5c2.2,0,3.4-1.3,3.4-4V43.2h-7.8v-3.4h11.8v14.5
			c0,5.2-2.6,7.7-7.4,7.7C87.6,61.9,85.1,60.8,83.6,58.8z"/>
		<path class="st1" d="M104.3,50.7c0-6.5,5-11.2,11.8-11.2s11.8,4.7,11.8,11.2s-5,11.2-11.8,11.2S104.3,57.2,104.3,50.7z
			 M123.8,50.7c0-4.5-3.3-7.7-7.7-7.7c-4.4,0-7.7,3.2-7.7,7.7s3.3,7.7,7.7,7.7S123.8,55.2,123.8,50.7z"/>
		<path class="st1" d="M132.8,59.3l1.4-3.2c1.7,1.4,4.5,2.4,7.2,2.4c3.4,0,4.8-1.2,4.8-2.8c0-4.7-13-1.6-13-9.7
			c0-3.5,2.8-6.5,8.8-6.5c2.6,0,5.4,0.7,7.3,1.9l-1.3,3.2c-2-1.2-4.1-1.7-6-1.7c-3.4,0-4.7,1.3-4.7,3c0,4.7,13,1.6,13,9.7
			c0,3.5-2.8,6.5-8.8,6.5C138,61.9,134.6,60.9,132.8,59.3z"/>
		<path class="st1" d="M176.2,39.8v21.9h-4.1v-9.4h-11.3v9.4h-4.1V39.8h4.1v9h11.3v-9H176.2z"/>
		<path class="st1" d="M200.1,43.2h-7.2v-3.4h18.6v3.4h-7.2v18.4h-4.1V43.2H200.1z"/>
		<path class="st1" d="M230.1,56.6h-10.9l-2.2,5.1h-4.2l9.8-21.9h4l9.9,21.9h-4.2L230.1,56.6z M228.8,53.4l-4.1-9.6l-4.1,9.6H228.8z
			"/>
		<path class="st1" d="M249.9,53.9v7.7h-4.1V54l-8.6-14.2h4.3l6.4,10.7l6.5-10.7h4L249.9,53.9z"/>
		<path class="st1" d="M263.3,39.8h4.1v18.4h11.4v3.4h-15.5V39.8z"/>
		<path class="st1" d="M282.6,50.7c0-6.5,5-11.2,11.8-11.2s11.8,4.7,11.8,11.2s-5,11.2-11.8,11.2S282.6,57.2,282.6,50.7z M302,50.7
			c0-4.5-3.3-7.7-7.7-7.7c-4.4,0-7.7,3.2-7.7,7.7s3.3,7.7,7.7,7.7C298.8,58.4,302,55.2,302,50.7z"/>
		<path class="st1" d="M327.2,61.6l-4.5-6.4c-0.3,0-0.6,0-0.8,0H317v6.4h-4.1V39.8h9c5.7,0,9.3,2.9,9.3,7.8c0,3.3-1.7,5.7-4.7,6.9
			l5,7.2h-4.3V61.6z M321.7,43.2H317v8.7h4.7c3.6,0,5.4-1.6,5.4-4.4S325.3,43.2,321.7,43.2z"/>
	</g>
</g>
<g id="LogoPart3">
	<path class="st1" d="M26.4,79.4l8.9-2.9c1.3-0.4,2.1-1.6,2.1-2.9V36.5h-11V79.4z"/>
</g>
<g id="LogoPart2">
	<path class="st1" d="M66.6,25.3c0-1.8-1.5-3.3-3.3-3.3H52.4h-11v11.1v37.5h7.8c1.8,0,3.3-1.5,3.3-3.3V33.1h14.1V25.3z"/>
</g>
<g id="LogoPart1">
	<path class="st1" d="M26.4,25.3V33h8c1.7,0,3.1-1.4,3.1-3.1v-8h-7.7C27.9,22,26.4,23.5,26.4,25.3z"/>
</g>
</svg>
