<?xml version="1.0" encoding="utf-8"?>
<!-- Generator: Adobe Illustrator 25.2.0, SVG Export Plug-In . SVG Version: 6.00 Build 0)  -->
<svg version="1.1" id="Layer_1" xmlns="http://www.w3.org/2000/svg" xmlns:xlink="http://www.w3.org/1999/xlink" x="0px" y="0px"
	 viewBox="0 0 361 176" style="enable-background:new 0 0 361 176;" xml:space="preserve">
<g>
	<path d="M80.6,156.4L57.2,164V51.2h29.1v97.5C86.3,152.2,84,155.4,80.6,156.4z"/>
	<rect x="96.6" y="13" width="29.1" height="127.7"/>
	<path d="M162.9,42.1H96.6V13h57.6c4.8,0,8.7,3.9,8.7,8.7V42.1z"/>
	<path d="M57.2,42.1h21c4.5,0,8.1-3.6,8.1-8.1V13H65.9c-4.8,0-8.7,3.9-8.7,8.7V42.1z"/>
	<g>
		<path d="M149.5,92.6l3.2-3.8c1.6,2.2,3.6,3.4,6,3.4c3.1,0,4.7-1.8,4.7-5.5V71.2h-10.7v-4.7h16.3v19.9c0,7.1-3.5,10.6-10.1,10.6
			C155,97,151.6,95.4,149.5,92.6z"/>
		<path d="M174.6,81.5c0-8.9,6.9-15.5,16.2-15.5S207,72.6,207,81.5c0,8.9-6.9,15.5-16.2,15.5S174.6,90.4,174.6,81.5z M201.3,81.5
			c0-6.1-4.5-10.6-10.6-10.6c-6.1,0-10.6,4.4-10.6,10.6c0,6.1,4.5,10.6,10.6,10.6C196.8,92.1,201.3,87.6,201.3,81.5z"/>
		<path d="M210.4,93.4l1.9-4.3c2.4,1.9,6.2,3.3,9.9,3.3c4.7,0,6.7-1.7,6.7-3.9c0-6.5-17.9-2.2-17.9-13.4c0-4.9,3.9-9,12.1-9
			c3.6,0,7.4,0.9,10,2.7l-1.8,4.3c-2.7-1.6-5.7-2.4-8.3-2.4c-4.6,0-6.5,1.8-6.5,4.1c0,6.4,17.8,2.2,17.8,13.3
			c0,4.8-3.9,8.9-12.2,8.9C217.5,97,212.9,95.5,210.4,93.4z"/>
		<path d="M266.6,66.5v30.1h-5.6V83.7h-15.6v12.9h-5.6V66.5h5.6v12.4h15.6V66.5H266.6z"/>
		<path d="M160.2,115.4h-10v-4.7h25.5v4.7h-10v25.3h-5.6V115.4z"/>
		<path d="M197.9,133.7h-15l-3,7h-5.8l13.5-30.1h5.5l13.6,30.1H201L197.9,133.7z M196.1,129.4l-5.7-13.1l-5.6,13.1H196.1z"/>
		<path d="M221.8,130.1v10.6h-5.6v-10.5l-11.8-19.5h6l8.8,14.6l8.9-14.6h5.5L221.8,130.1z"/>
		<path d="M236.8,110.6h5.6V136h15.7v4.7h-21.3V110.6z"/>
		<path d="M259.8,125.7c0-8.9,6.9-15.5,16.2-15.5s16.2,6.5,16.2,15.5c0,8.9-6.9,15.5-16.2,15.5S259.8,134.6,259.8,125.7z
			 M286.6,125.7c0-6.1-4.5-10.6-10.6-10.6s-10.6,4.4-10.6,10.6c0,6.1,4.5,10.6,10.6,10.6S286.6,131.8,286.6,125.7z"/>
		<path d="M317.8,140.7l-6.1-8.8c-0.4,0-0.8,0-1.2,0h-6.8v8.8h-5.6v-30.1h12.4c7.9,0,12.8,4,12.8,10.7c0,4.6-2.3,7.9-6.4,9.5
			l6.9,9.9H317.8z M310.2,115.4h-6.5v12h6.5c4.9,0,7.4-2.2,7.4-6C317.7,117.6,315.1,115.4,310.2,115.4z"/>
	</g>
</g>
</svg>
