<?xml version="1.0" encoding="utf-8"?>
<!-- Generator: Adobe Illustrator 25.1.0, SVG Export Plug-In . SVG Version: 6.00 Build 0)  -->
<svg version="1.1" id="Layer_1" xmlns="http://www.w3.org/2000/svg" xmlns:xlink="http://www.w3.org/1999/xlink" x="0px" y="0px"
	 viewBox="0 0 75 75" style="enable-background:new 0 0 75 75;" xml:space="preserve">
<style type="text/css">
	.st0{fill-rule:evenodd;clip-rule:evenodd;fill:#216699;}
</style>
<path class="st0" d="M37.5,5C19.6,5,5,19.6,5,37.5S19.6,70,37.5,70S70,55.4,70,37.5S55.4,5,37.5,5z M28.6,53.5
	c0,0.4-0.2,0.5-0.5,0.5c-2,0-3.9,0-5.9,0c-0.4,0-0.5-0.1-0.5-0.5c0-3.5,0-7,0-10.5l0-10.4c0-0.6,0-0.6,0.6-0.6c1.9,0,3.8,0,5.8,0
	c0.4,0,0.5,0.1,0.5,0.5C28.6,39.5,28.6,46.5,28.6,53.5z M25.1,29.1c-2.2,0-4-1.8-4-4v0c0-2.2,1.8-4,4-4c2.2,0,4,1.8,4,4
	C29.1,27.4,27.3,29.1,25.1,29.1z M54.2,53.5c0,0.4-0.1,0.5-0.5,0.5c-2,0-3.9,0-5.9,0c-0.5,0-0.6-0.2-0.6-0.6c0-3.6,0-7.2,0-10.8
	c0-0.9-0.1-1.8-0.3-2.7c-0.4-1.6-1.4-2.4-3-2.4c-0.5,0-1,0-1.5,0.2c-1.6,0.4-2.3,1.6-2.5,3.1c-0.1,0.7-0.2,1.4-0.2,2.2
	c0,3.5,0,7,0,10.5c0,0.4-0.1,0.6-0.5,0.6c-2,0-3.9,0-5.9,0c-0.5,0-0.6-0.2-0.6-0.6c0-7,0-13.9,0-20.9c0-0.4,0.1-0.6,0.5-0.6
	c1.9,0,3.8,0,5.6,0c0.4,0,0.5,0.1,0.5,0.5c0,0.8,0,1.6,0,2.5c0.8-1.4,2.2-2.5,3.8-3.1c1.4-0.6,2.9-0.5,4.3-0.4
	c1.2,0.1,2.3,0.5,3.3,1.1c1.7,1,2.5,2.7,2.9,4.5c0.3,1.6,0.5,3.1,0.5,4.7C54.2,45.7,54.2,49.6,54.2,53.5z"/>
</svg>
