<?xml version="1.0" encoding="utf-8"?>
<!-- Generator: Adobe Illustrator 25.3.1, SVG Export Plug-In . SVG Version: 6.00 Build 0)  -->
<svg version="1.1" id="Layer_1" xmlns="http://www.w3.org/2000/svg" xmlns:xlink="http://www.w3.org/1999/xlink" x="0px" y="0px"
	 viewBox="0 0 180.5 176" style="enable-background:new 0 0 180.5 176;" xml:space="preserve">
<style type="text/css">
	.st0{fill:#CACACA;}
</style>
<path class="st0" d="M90.1,148.3c-17.1,0-34.1-0.1-51.2,0c-4.4,0.1-8.3-3-9-7.4c-0.1-0.4-0.1-0.9-0.1-1.4V36.5
	c-0.1-4.7,3.6-8.6,8.3-8.7c0.1,0,0.2,0,0.3,0c5.5,0,10.9,0,16.4,0c28.9,0,57.8,0,86.6,0c3.9-0.1,7.4,2.4,8.6,6.1
	c0.2,0.8,0.4,1.7,0.4,2.5v103.2c0.1,4.7-3.7,8.6-8.4,8.7c-0.1,0-0.2,0-0.3,0c-6.4,0-12.9,0-19.3,0L90.1,148.3z M94.3,80.7
	c0-2.4,0-4.5,0-6.6c0-1-0.3-1.4-1.3-1.3c-4.9,0-9.9,0.1-14.8,0c-1.2,0-1.4,0.4-1.4,1.5c0,18.3,0,36.7,0,55c0,1.1,0.3,1.5,1.5,1.5
	c5.1-0.1,10.2-0.1,15.4,0c1.2,0,1.4-0.4,1.4-1.5c-0.1-9.2-0.1-18.4,0-27.7c0-1.9,0.2-3.8,0.5-5.7c0.7-3.9,2.5-7,6.7-8.1
	c1.3-0.3,2.6-0.4,3.9-0.4c4.3,0.1,7,2.1,8,6.3c0.5,2.3,0.7,4.6,0.7,7c0.1,9.5,0.1,19,0,28.4c0,1.1,0.3,1.5,1.5,1.5
	c5.1-0.1,10.2-0.1,15.4,0c1.1,0,1.4-0.4,1.4-1.4c0-10.2,0-20.4,0-30.6c0.1-4.2-0.3-8.3-1.2-12.4c-1.1-4.8-3.2-9.1-7.6-11.8
	c-2.7-1.6-5.7-2.6-8.8-2.9c-3.8-0.4-7.6-0.5-11.3,1C100,74.1,96.5,76.9,94.3,80.7z M47.6,101.8c0,9.2,0,18.4,0,27.5
	c0,1.1,0.4,1.4,1.4,1.4c5.2-0.1,10.3,0,15.5,0c1,0,1.4-0.3,1.4-1.3c0-18.4,0-36.9,0-55.3c0-1.1-0.4-1.3-1.4-1.3
	c-5.1,0-10.2,0-15.2,0c-1.6,0-1.6,0-1.6,1.6L47.6,101.8z M56.6,65.1c5.8,0,10.5-4.6,10.5-10.4s-4.6-10.5-10.4-10.5
	c-5.8,0-10.5,4.6-10.5,10.4c0,0,0,0.1,0,0.1C46.2,60.3,50.8,65,56.6,65.1C56.6,65,56.6,65,56.6,65.1z"/>
</svg>
