<svg width="104" height="104" viewBox="0 0 104 104" fill="none" xmlns="http://www.w3.org/2000/svg">
<path d="M55 101.113C53.1436 102.185 50.8564 102.185 49 101.113L10.9667 79.1547C9.11027 78.0829 7.96667 76.1021 7.96667 73.9586L7.96667 30.0415C7.96667 27.8979 9.11026 25.9171 10.9667 24.8453L49 2.88676C50.8564 1.81495 53.1436 1.81495 55 2.88676L93.0333 24.8453C94.8897 25.9171 96.0333 27.8979 96.0333 30.0415L96.0333 73.9585C96.0333 76.1021 94.8897 78.0829 93.0333 79.1547L55 101.113Z" stroke="#206699" stroke-width="2"/>
<path d="M29.2422 58L26.1484 47.9189H26.0693C26.1807 49.9697 26.2363 51.3379 26.2363 52.0234V58H23.8018V45.1504H27.5107L30.5518 54.9766H30.6045L33.8301 45.1504H37.5391V58H34.999V51.918C34.999 51.6309 35.002 51.2998 35.0078 50.9248C35.0195 50.5498 35.0605 49.5537 35.1309 47.9365H35.0518L31.7383 58H29.2422ZM44.7812 50.4414L47.4619 45.1504H50.3975L46.1348 52.999V58H43.4277V53.0869L39.165 45.1504H42.1182L44.7812 50.4414ZM59.5996 54.4316C59.5996 55.5918 59.1807 56.5059 58.3428 57.1738C57.5107 57.8418 56.3506 58.1758 54.8623 58.1758C53.4912 58.1758 52.2783 57.918 51.2236 57.4023V54.8711C52.0908 55.2578 52.8232 55.5303 53.4209 55.6885C54.0244 55.8467 54.5752 55.9258 55.0732 55.9258C55.6709 55.9258 56.1279 55.8115 56.4443 55.583C56.7666 55.3545 56.9277 55.0146 56.9277 54.5635C56.9277 54.3115 56.8574 54.0889 56.7168 53.8955C56.5762 53.6963 56.3682 53.5059 56.0928 53.3242C55.8232 53.1426 55.2695 52.8525 54.4316 52.4541C53.6465 52.085 53.0576 51.7305 52.665 51.3906C52.2725 51.0508 51.959 50.6553 51.7246 50.2041C51.4902 49.7529 51.373 49.2256 51.373 48.6221C51.373 47.4854 51.7568 46.5918 52.5244 45.9414C53.2979 45.291 54.3643 44.9658 55.7236 44.9658C56.3916 44.9658 57.0273 45.0449 57.6309 45.2031C58.2402 45.3613 58.876 45.584 59.5381 45.8711L58.6592 47.9893C57.9736 47.708 57.4053 47.5117 56.9541 47.4004C56.5088 47.2891 56.0693 47.2334 55.6357 47.2334C55.1201 47.2334 54.7246 47.3535 54.4492 47.5938C54.1738 47.834 54.0361 48.1475 54.0361 48.5342C54.0361 48.7744 54.0918 48.9854 54.2031 49.167C54.3145 49.3428 54.4902 49.5156 54.7305 49.6855C54.9766 49.8496 55.5537 50.1484 56.4619 50.582C57.6631 51.1562 58.4863 51.7334 58.9316 52.3135C59.377 52.8877 59.5996 53.5938 59.5996 54.4316ZM73.5918 51.5576C73.5918 53.0693 73.3223 54.3379 72.7832 55.3633C72.25 56.3828 71.4648 57.1299 70.4277 57.6045L73.5215 61.0586H70.0322L67.6768 58.1758H67.4746C65.5059 58.1758 63.9941 57.6045 62.9395 56.4619C61.8848 55.3193 61.3574 53.6787 61.3574 51.54C61.3574 49.4014 61.8848 47.7695 62.9395 46.6445C64 45.5137 65.5176 44.9482 67.4922 44.9482C69.4668 44.9482 70.9756 45.5166 72.0186 46.6533C73.0674 47.79 73.5918 49.4248 73.5918 51.5576ZM64.2139 51.5576C64.2139 52.9932 64.4863 54.0742 65.0312 54.8008C65.5762 55.5273 66.3906 55.8906 67.4746 55.8906C69.6484 55.8906 70.7354 54.4463 70.7354 51.5576C70.7354 48.6631 69.6543 47.2158 67.4922 47.2158C66.4082 47.2158 65.5908 47.582 65.04 48.3145C64.4893 49.041 64.2139 50.1221 64.2139 51.5576ZM76.2549 58V45.1504H78.9795V55.75H84.1914V58H76.2549Z" fill="#A8DAFF"/>
</svg>
