<svg width="104" height="104" viewBox="0 0 104 104" fill="none" xmlns="http://www.w3.org/2000/svg">
<path d="M38.3252 58H34.8623L29.2725 48.2793H29.1934C29.3047 49.9961 29.3604 51.2207 29.3604 51.9531V58H26.9258V45.1504H30.3623L35.9434 54.7744H36.0049C35.917 53.1045 35.873 51.9238 35.873 51.2324V45.1504H38.3252V58ZM53.2314 51.5576C53.2314 53.6846 52.7041 55.3193 51.6494 56.4619C50.5947 57.6045 49.083 58.1758 47.1143 58.1758C45.1455 58.1758 43.6338 57.6045 42.5791 56.4619C41.5244 55.3193 40.9971 53.6787 40.9971 51.54C40.9971 49.4014 41.5244 47.7695 42.5791 46.6445C43.6396 45.5137 45.1572 44.9482 47.1318 44.9482C49.1064 44.9482 50.6152 45.5166 51.6582 46.6533C52.707 47.79 53.2314 49.4248 53.2314 51.5576ZM43.8535 51.5576C43.8535 52.9932 44.126 54.0742 44.6709 54.8008C45.2158 55.5273 46.0303 55.8906 47.1143 55.8906C49.2881 55.8906 50.375 54.4463 50.375 51.5576C50.375 48.6631 49.2939 47.2158 47.1318 47.2158C46.0479 47.2158 45.2305 47.582 44.6797 48.3145C44.1289 49.041 43.8535 50.1221 43.8535 51.5576ZM66.5557 51.4521C66.5557 53.5674 65.9521 55.1875 64.7451 56.3125C63.5439 57.4375 61.8066 58 59.5332 58H55.8945V45.1504H59.9287C62.0264 45.1504 63.6553 45.7041 64.8154 46.8115C65.9756 47.9189 66.5557 49.4658 66.5557 51.4521ZM63.7256 51.5225C63.7256 48.7627 62.5068 47.3828 60.0693 47.3828H58.6191V55.75H59.7881C62.4131 55.75 63.7256 54.3408 63.7256 51.5225ZM76.6191 58H69.2188V45.1504H76.6191V47.3828H71.9434V50.2041H76.2939V52.4365H71.9434V55.75H76.6191V58Z" fill="#A8DAFF"/>
<path d="M55 101.113C53.1436 102.185 50.8564 102.185 49 101.113L10.9667 79.1547C9.11027 78.0829 7.96667 76.1021 7.96667 73.9586L7.96667 30.0415C7.96667 27.8979 9.11026 25.9171 10.9667 24.8453L49 2.88676C50.8564 1.81495 53.1436 1.81495 55 2.88676L93.0333 24.8453C94.8897 25.9171 96.0333 27.8979 96.0333 30.0415L96.0333 73.9585C96.0333 76.1021 94.8897 78.0829 93.0333 79.1547L55 101.113Z" stroke="#206699" stroke-width="2"/>
</svg>
