<svg width="104" height="104" viewBox="0 0 104 104" fill="none" xmlns="http://www.w3.org/2000/svg">
<path d="M55 101.113C53.1436 102.185 50.8564 102.185 49 101.113L10.9667 79.1547C9.11027 78.0829 7.96667 76.1021 7.96667 73.9586L7.96667 30.0415C7.96667 27.8979 9.11026 25.9171 10.9667 24.8453L49 2.88676C50.8564 1.81495 53.1436 1.81495 55 2.88676L93.0333 24.8453C94.8897 25.9171 96.0333 27.8979 96.0333 30.0415L96.0333 73.9585C96.0333 76.1021 94.8897 78.0829 93.0333 79.1547L55 101.113Z" stroke="#206699" stroke-width="2"/>
<path d="M38.25 62.2925V41.8994C38.25 41.7607 38.308 41.6814 38.4432 41.6814C40.4401 41.6814 42.436 41.5625 44.4333 41.5625C47.6743 41.5625 51.1836 42.6707 52.4137 46.0613C52.7035 46.8936 52.8581 47.7458 52.8581 48.6377C52.8581 50.342 52.4717 51.7491 51.6988 52.859C49.5397 55.9592 45.7975 55.911 42.4431 55.911V62.2727C42.4693 62.461 42.3088 62.5502 42.1532 62.5502H38.4819C38.3273 62.5502 38.25 62.4709 38.25 62.2925ZM42.4624 45.5064V52.1653C43.7924 52.2628 45.1843 52.2733 46.4622 51.8482C47.8731 51.4413 48.6457 50.22 48.6457 48.7566C48.685 47.5096 48.0054 46.3131 46.8487 45.8631C45.5861 45.3381 43.8253 45.3067 42.4624 45.5064Z" fill="#A8DAFF"/>
<path d="M64.9101 50.8497C64.3254 50.5416 63.7027 50.3162 63.059 50.1796C62.2318 49.985 58.9693 49.3033 58.9681 51.0092C58.997 51.9616 60.5088 52.4282 61.1768 52.7003C63.5218 53.5054 66.1755 54.9445 66.1234 57.8375C66.1951 61.4389 62.7057 62.8785 59.7147 62.8789C58.1576 62.895 56.5355 62.6538 55.1104 61.9854C54.9744 61.9134 54.8868 61.7594 54.8927 61.6025V58.1565C54.8773 58.0184 55.0256 57.8976 55.1415 57.997C56.5378 58.8414 58.1928 59.2514 59.808 59.2733C60.5211 59.2733 61.9342 59.2042 61.9235 58.1565C61.9235 57.1512 60.233 56.6889 59.5591 56.4335C58.5823 56.0848 57.6561 55.6018 56.8059 54.9977C55.6177 54.1502 54.8724 52.7913 54.8927 51.2964C54.8857 47.9054 58.0976 46.3834 60.9902 46.3826C62.3425 46.3715 63.7946 46.4716 65.0534 47.0208C65.2344 47.0741 65.2719 47.2647 65.2712 47.4356V50.6583C65.2827 50.8583 65.0605 50.9264 64.9101 50.8497Z" fill="#A8DAFF"/>
</svg>
