<svg width="104" height="104" viewBox="0 0 104 104" fill="none" xmlns="http://www.w3.org/2000/svg">
<path d="M27.6904 50.8545H28.5693C29.4307 50.8545 30.0664 50.7109 30.4766 50.4238C30.8867 50.1367 31.0918 49.6855 31.0918 49.0703C31.0918 48.4609 30.8809 48.0273 30.459 47.7695C30.043 47.5117 29.3955 47.3828 28.5166 47.3828H27.6904V50.8545ZM27.6904 53.0693V58H24.9658V45.1504H28.71C30.4561 45.1504 31.748 45.4697 32.5859 46.1084C33.4238 46.7412 33.8428 47.7051 33.8428 49C33.8428 49.7559 33.6348 50.4297 33.2188 51.0215C32.8027 51.6074 32.2139 52.0674 31.4521 52.4014C33.3857 55.29 34.6455 57.1562 35.2314 58H32.208L29.1406 53.0693H27.6904ZM44.249 58H36.8486V45.1504H44.249V47.3828H39.5732V50.2041H43.9238V52.4365H39.5732V55.75H44.249V58ZM54.8047 58L53.873 54.9414H49.1885L48.2568 58H45.3213L49.8564 45.0977H53.1875L57.7402 58H54.8047ZM53.2227 52.6562C52.3613 49.8848 51.875 48.3174 51.7637 47.9541C51.6582 47.5908 51.582 47.3037 51.5352 47.0928C51.3418 47.8428 50.7881 49.6973 49.874 52.6562H53.2227ZM64.8242 47.2334C63.7988 47.2334 63.0049 47.6201 62.4424 48.3936C61.8799 49.1611 61.5986 50.2334 61.5986 51.6104C61.5986 54.4756 62.6738 55.9082 64.8242 55.9082C65.7266 55.9082 66.8193 55.6826 68.1025 55.2314V57.5166C67.0479 57.9561 65.8701 58.1758 64.5693 58.1758C62.7002 58.1758 61.2705 57.6104 60.2803 56.4795C59.29 55.3428 58.7949 53.7139 58.7949 51.5928C58.7949 50.2568 59.0381 49.0879 59.5244 48.0859C60.0107 47.0781 60.708 46.3076 61.6162 45.7744C62.5303 45.2354 63.5996 44.9658 64.8242 44.9658C66.0723 44.9658 67.3262 45.2676 68.5859 45.8711L67.707 48.0859C67.2266 47.8574 66.7432 47.6582 66.2568 47.4883C65.7705 47.3184 65.293 47.2334 64.8242 47.2334ZM75.8018 58H73.0771V47.418H69.5879V45.1504H79.291V47.418H75.8018V58Z" fill="#A8DAFF"/>
<path d="M55 101.113C53.1436 102.185 50.8564 102.185 49 101.113L10.9667 79.1547C9.11027 78.0829 7.96667 76.1021 7.96667 73.9586L7.96667 30.0415C7.96667 27.8979 9.11026 25.9171 10.9667 24.8453L49 2.88676C50.8564 1.81495 53.1436 1.81495 55 2.88676L93.0333 24.8453C94.8897 25.9171 96.0333 27.8979 96.0333 30.0415L96.0333 73.9585C96.0333 76.1021 94.8897 78.0829 93.0333 79.1547L55 101.113Z" stroke="#206699" stroke-width="2"/>
</svg>
