<svg xmlns="http://www.w3.org/2000/svg" viewBox="0 0 620.43 256.28"><defs><style>.cls-1,.cls-2,.cls-3{fill:none;stroke-miterlimit:10;}.cls-1{stroke:#acd9f4;}.cls-2,.cls-3{stroke:#757576;}.cls-3{opacity:0.6;}</style></defs><g id="Layer_2" data-name="Layer 2"><line class="cls-1" y1="47.21" x2="620.43" y2="47.21"/><line class="cls-1" y1="151.21" x2="620.43" y2="151.21"/><line class="cls-1" y1="155.21" x2="620.43" y2="155.21"/><line class="cls-1" y1="43.21" x2="620.43" y2="43.21"/><line class="cls-1" y1="119.21" x2="620.43" y2="119.21"/><line class="cls-1" y1="79.21" x2="620.43" y2="79.21"/><line class="cls-1" y1="2.32" x2="620.43" y2="2.32"/><line class="cls-1" y1="195.94" x2="620.43" y2="195.94"/></g><g id="Layer_1" data-name="Layer 1"><path class="cls-2" d="M269.28,557.15v-.1c0-8.31,5.65-13,11.63-13a10.26,10.26,0,0,1,8.55,4.42V535h5.74v34.66h-5.74v-4.18a10,10,0,0,1-8.55,4.71C275,570.16,269.28,565.45,269.28,557.15Zm20.27,0v-.1c0-4.84-3.41-8-7.26-8s-7.22,3-7.22,8v.1c0,4.84,3.33,8,7.22,8S289.55,561.94,289.55,557.15Z" transform="translate(-139.78 -321.59)"/><path class="cls-2" d="M301.33,562.42v-.1c0-5.41,4.23-8.07,10.35-8.07a21.11,21.11,0,0,1,6.74,1v-.61c0-3.56-2.18-5.47-6.22-5.47a17.46,17.46,0,0,0-7.17,1.57l-1.52-4.51a21.51,21.51,0,0,1,9.45-2c3.76,0,6.56,1,8.31,2.8s2.71,4.46,2.71,7.74v14.86h-5.6V566.5a10.2,10.2,0,0,1-8.17,3.66C305.51,570.16,301.33,567.45,301.33,562.42Zm17.19-1.81V558.9a15.92,15.92,0,0,0-5.7-1c-3.7,0-5.89,1.57-5.89,4.18v.1c0,2.42,2.14,3.8,4.89,3.8C315.62,566,318.52,563.79,318.52,560.61Z" transform="translate(-139.78 -321.59)"/><path class="cls-2" d="M331.44,544.56h5.74v3.85A9.09,9.09,0,0,1,345,544c5.65,0,8.92,3.8,8.92,9.59v16H348.2V555.39c0-3.9-1.95-6.13-5.37-6.13s-5.65,2.33-5.65,6.22v14.15h-5.74Z" transform="translate(-139.78 -321.59)"/><path class="cls-2" d="M360.07,557.24v-.09A12.94,12.94,0,0,1,373.13,544a12.69,12.69,0,0,1,10,4.32l-3.61,3.85c-1.76-1.86-3.61-3.14-6.46-3.14-4.18,0-7.26,3.61-7.26,8v.1c0,4.46,3.08,8,7.5,8a8.78,8.78,0,0,0,6.5-3.09l3.47,3.42a13.15,13.15,0,0,1-23.22-8.26Z" transform="translate(-139.78 -321.59)"/><path class="cls-2" d="M387,557.19v-.09c0-7.17,5.08-13.06,12.25-13.06,8,0,12,6.27,12,13.49,0,.52,0,1-.09,1.61H392.79A7,7,0,0,0,400,565.5a9.09,9.09,0,0,0,6.79-3l3.37,3a12.67,12.67,0,0,1-10.25,4.7C392.64,570.2,387,564.93,387,557.19Zm18.57-1.85c-.38-3.7-2.57-6.6-6.37-6.6-3.51,0-6,2.71-6.5,6.6Z" transform="translate(-139.78 -321.59)"/><path class="cls-2" d="M431.11,557.24v-.09A12.93,12.93,0,0,1,444.16,544a12.67,12.67,0,0,1,10,4.32l-3.61,3.85c-1.75-1.86-3.6-3.14-6.45-3.14-4.18,0-7.27,3.61-7.27,8v.1c0,4.46,3.09,8,7.5,8a8.8,8.8,0,0,0,6.51-3.09l3.46,3.42a12.64,12.64,0,0,1-10.25,4.7A12.79,12.79,0,0,1,431.11,557.24Z" transform="translate(-139.78 -321.59)"/><path class="cls-2" d="M458.08,557.24v-.09a13.37,13.37,0,0,1,26.73-.1v.1a13.11,13.11,0,0,1-13.44,13.05A13,13,0,0,1,458.08,557.24Zm21,0v-.09a7.75,7.75,0,0,0-7.69-8.08c-4.6,0-7.55,3.61-7.55,8v.1a7.73,7.73,0,0,0,7.65,8C476.12,565.17,479.06,561.56,479.06,557.24Z" transform="translate(-139.78 -321.59)"/><path class="cls-2" d="M491.22,544.56H497v3.8c1.61-2.23,3.79-4.32,7.64-4.32a8,8,0,0,1,7.5,4.42,10.11,10.11,0,0,1,8.46-4.42c5.46,0,8.78,3.47,8.78,9.59v16H523.6V555.39c0-4-1.85-6.13-5.08-6.13s-5.36,2.19-5.36,6.22v14.15h-5.75V555.34c0-3.89-1.9-6.08-5.08-6.08s-5.36,2.38-5.36,6.22v14.15h-5.75Z" transform="translate(-139.78 -321.59)"/><path class="cls-2" d="M536.9,544.56h5.75v4.18a10,10,0,0,1,8.54-4.7c5.89,0,11.64,4.65,11.64,13v.1c0,8.3-5.7,13-11.64,13a10.22,10.22,0,0,1-8.54-4.42v11.49H536.9ZM557,557.15v-.1c0-4.84-3.28-8-7.17-8s-7.32,3.22-7.32,8v.1c0,4.79,3.42,8,7.32,8S557,562.08,557,557.15Z" transform="translate(-139.78 -321.59)"/><path class="cls-2" d="M567.67,562.42v-.1c0-5.41,4.23-8.07,10.35-8.07a21.11,21.11,0,0,1,6.74,1v-.61c0-3.56-2.18-5.47-6.21-5.47a17.47,17.47,0,0,0-7.18,1.57l-1.51-4.51a21.43,21.43,0,0,1,9.44-2c3.76,0,6.56,1,8.31,2.8s2.71,4.46,2.71,7.74v14.86h-5.6V566.5a10.2,10.2,0,0,1-8.17,3.66C571.85,570.16,567.67,567.45,567.67,562.42Zm17.19-1.81V558.9a15.92,15.92,0,0,0-5.7-1c-3.7,0-5.89,1.57-5.89,4.18v.1c0,2.42,2.14,3.8,4.89,3.8C582,566,584.86,563.79,584.86,560.61Z" transform="translate(-139.78 -321.59)"/><path class="cls-2" d="M597.78,544.56h5.74v3.85a9.09,9.09,0,0,1,7.84-4.37c5.65,0,8.92,3.8,8.92,9.59v16h-5.74V555.39c0-3.9-1.95-6.13-5.37-6.13s-5.65,2.33-5.65,6.22v14.15h-5.74Z" transform="translate(-139.78 -321.59)"/><path class="cls-2" d="M644.45,544.56h6l-10,25.79c-2,5.12-4.22,7-8.26,7a11.81,11.81,0,0,1-5.93-1.52l1.94-4.27a7.11,7.11,0,0,0,3.38.95c1.61,0,2.61-.71,3.56-2.85L624.7,544.56h6.17L638,563.18Z" transform="translate(-139.78 -321.59)"/><path class="cls-3" d="M544.72,493.77c0-.2,0-.4.06-.6C544.77,493.37,544.74,493.57,544.72,493.77Z" transform="translate(-139.78 -321.59)"/><path class="cls-2" d="M524.07,517.53A20.28,20.28,0,0,0,540.21,485l-36.42-48V498a20.11,20.11,0,0,0,2,8.8l2.09,2.76A20.26,20.26,0,0,0,524.07,517.53Z" transform="translate(-139.78 -321.59)"/><path class="cls-2" d="M582.07,364.3h20.2V344.1a20.2,20.2,0,1,0-20.2,20.2Z" transform="translate(-139.78 -321.59)"/><path class="cls-2" d="M602.27,497.33v-20.2h-20.2a20.2,20.2,0,1,0,20.2,20.2Z" transform="translate(-139.78 -321.59)"/><path class="cls-2" d="M582.07,440.91h20.2V400.52h-20.2a20.2,20.2,0,0,0,0,40.39Z" transform="translate(-139.78 -321.59)"/><path class="cls-2" d="M360.75,472.63H279.1v44.9A96.8,96.8,0,0,0,360.75,472.63Z" transform="translate(-139.78 -321.59)"/><path class="cls-2" d="M241.33,520.39l-2.81-15.59q6.61-2,6.62-10.1c0-4.22-1.13-6.33-3.37-6.33a3.13,3.13,0,0,0-2.74,1.46,15.42,15.42,0,0,0-1.74,5.23q-2.78,14.38-7.21,18.48a15,15,0,0,1-10.47,4.08,16.38,16.38,0,0,1-12.87-5.87q-5.13-5.87-5.13-16.89,0-16.71,13.43-22.08l4.21,13.9q-5.49,2.16-5.49,8.78,0,5.49,3.4,5.49a2.71,2.71,0,0,0,2.37-1.24,15.33,15.33,0,0,0,1.6-4.81A101.62,101.62,0,0,1,224.8,481a15.08,15.08,0,0,1,5.47-6.89,15.3,15.3,0,0,1,9.12-2.76A16.16,16.16,0,0,1,252.85,478Q258,484.75,258,495.7,258,515.69,241.33,520.39Z" transform="translate(-139.78 -321.59)"/><path class="cls-2" d="M215.56,439h41.6v15.91h-41.6v11.35h-13.1v-38.6h13.1Z" transform="translate(-139.78 -321.59)"/><path class="cls-2" d="M244.1,377.52h13.06v41.16h-54.7V377.52h12.62v24.69H223v-20h12.15v20h8.94Z" transform="translate(-139.78 -321.59)"/><path class="cls-2" d="M237.28,351.59h19.88v17h-54.7V345.25q0-8.73,2-13.28a16.11,16.11,0,0,1,6.13-7.22,16.76,16.76,0,0,1,9.26-2.66,16,16,0,0,1,12.62,5.45q4.82,5.44,4.81,14.55Zm-11.74.24v-5.61q0-7.43-5.45-7.42c-3.42,0-5.13,2.29-5.13,6.85v6.18Z" transform="translate(-139.78 -321.59)"/><path class="cls-2" d="M387.08,343.1c0,.13,0,.25,0,.38V497.26a20.27,20.27,0,0,0,40.54,0V403.71l-36.42-48A20.15,20.15,0,0,1,387.08,343.1Z" transform="translate(-139.78 -321.59)"/><path class="cls-2" d="M544.33,498V344.18a20.27,20.27,0,0,0-40.54,0V437l36.42,48" transform="translate(-139.78 -321.59)"/><path class="cls-2" d="M503.79,437,423.47,331.22c-.07-.1-.16-.18-.23-.28a20.19,20.19,0,0,1,4.36,12.54v60.23l78.22,103a20.11,20.11,0,0,1-2-8.8Z" transform="translate(-139.78 -321.59)"/><path class="cls-2" d="M423.24,330.94c-.24-.29-.48-.58-.73-.86s-.41-.47-.63-.69-.46-.46-.69-.68-.51-.48-.78-.7-.45-.37-.68-.54-.58-.45-.89-.66-.49-.32-.74-.48-.59-.38-.91-.55-.57-.3-.86-.45l-.86-.41c-.34-.15-.68-.27-1-.4l-.81-.29c-.35-.12-.72-.22-1.08-.31s-.54-.15-.82-.21-.7-.14-1.05-.2-.63-.11-.95-.14-.63-.06-.94-.09-.74,0-1.11,0h-.87c-.39,0-.78,0-1.16.06l-.86.09c-.37.05-.74.1-1.1.17l-.9.18-1,.26c-.31.09-.62.18-.93.29s-.62.22-.93.34-.63.25-.94.39l-.85.41c-.32.16-.64.34-.95.52s-.52.3-.77.46l-.94.64c-.24.18-.48.35-.71.54s-.56.46-.83.7-.49.43-.72.65-.44.45-.66.68-.49.52-.72.79-.35.44-.52.67-.46.59-.68.9-.31.48-.46.72-.39.61-.56.92-.3.58-.44.87-.29.57-.42.86-.27.67-.4,1-.2.53-.29.8-.22.73-.31,1.09-.15.54-.21.82-.14.7-.2,1.05-.11.62-.14.94-.06.64-.09,1-.05.72-.05,1.09a20.15,20.15,0,0,0,4.1,12.63l36.42,48V343.48A20.19,20.19,0,0,0,423.24,330.94Z" transform="translate(-139.78 -321.59)"/><path class="cls-2" d="M582.07,477.13h20.2V440.91h-20.2a20.19,20.19,0,0,1-20.19-20.19v76.61A20.19,20.19,0,0,1,582.07,477.13Z" transform="translate(-139.78 -321.59)"/><path class="cls-2" d="M582.07,400.52h20.2V364.3h-20.2a20.19,20.19,0,0,1-20.19-20.2v76.62A20.19,20.19,0,0,1,582.07,400.52Z" transform="translate(-139.78 -321.59)"/><path class="cls-2" d="M602.27,344.1v20.2h75.92a20.2,20.2,0,0,0,0-40.4H582.07A20.2,20.2,0,0,1,602.27,344.1Z" transform="translate(-139.78 -321.59)"/><path class="cls-2" d="M678.19,477.13H602.27v20.2a20.2,20.2,0,0,1-20.2,20.2h96.12a20.2,20.2,0,0,0,0-40.4Z" transform="translate(-139.78 -321.59)"/><path class="cls-2" d="M667.05,440.91a20.2,20.2,0,0,0,0-40.39H602.27v40.39Z" transform="translate(-139.78 -321.59)"/><path class="cls-2" d="M375.91,420.72a96.14,96.14,0,0,0-15.16-51.92H279.1a51.92,51.92,0,1,1,0,103.83h81.65A96.13,96.13,0,0,0,375.91,420.72Z" transform="translate(-139.78 -321.59)"/><path class="cls-2" d="M279.1,323.9v44.9h81.65A96.8,96.8,0,0,0,279.1,323.9Z" transform="translate(-139.78 -321.59)"/></g></svg>