<?xml version="1.0" encoding="utf-8"?>
<!-- Generator: Adobe Illustrator 25.1.0, SVG Export Plug-In . SVG Version: 6.00 Build 0)  -->
<svg version="1.1" id="Layer_1" xmlns="http://www.w3.org/2000/svg" xmlns:xlink="http://www.w3.org/1999/xlink" x="0px" y="0px"
	 viewBox="0 0 75 75" style="enable-background:new 0 0 75 75;" xml:space="preserve">
<style type="text/css">
	.st0{fill-rule:evenodd;clip-rule:evenodd;fill:#216699;}
</style>
<path class="st0" d="M37.5,5C19.6,5,5,19.6,5,37.5S19.6,70,37.5,70S70,55.4,70,37.5S55.4,5,37.5,5z M56.3,29.4c0,0.4,0,0.8,0,1.2
	c0,12.1-9.2,26.2-26.2,26.2v0c-5,0-9.9-1.4-14.1-4.1c0.7,0.1,1.5,0.1,2.2,0.1c4.1,0,8.2-1.4,11.4-3.9c-3.9-0.1-7.4-2.6-8.6-6.4
	c1.4,0.3,2.8,0.2,4.2-0.2c-4.3-0.9-7.4-4.6-7.4-9c0,0,0-0.1,0-0.1c1.3,0.7,2.7,1.1,4.2,1.2c-4-2.7-5.3-8.1-2.8-12.3
	c4.7,5.7,11.6,9.2,18.9,9.6c-0.7-3.2,0.3-6.5,2.7-8.8c3.7-3.5,9.5-3.3,13,0.4c2.1-0.4,4-1.2,5.8-2.2c-0.7,2.1-2.1,3.9-4,5.1
	c1.8-0.2,3.6-0.7,5.3-1.4C59.7,26.4,58.1,28.1,56.3,29.4z"/>
</svg>
