<svg width="104" height="104" viewBox="0 0 104 104" fill="none" xmlns="http://www.w3.org/2000/svg">
<path d="M55 101.113C53.1436 102.185 50.8564 102.185 49 101.113L10.9667 79.1547C9.11027 78.0829 7.96667 76.1021 7.96667 73.9586L7.96667 30.0415C7.96667 27.8979 9.11026 25.9171 10.9667 24.8453L49 2.88676C50.8564 1.81495 53.1436 1.81495 55 2.88676L93.0333 24.8453C94.8897 25.9171 96.0333 27.8979 96.0333 30.0415L96.0333 73.9585C96.0333 76.1021 94.8897 78.0829 93.0333 79.1547L55 101.113Z" stroke="#206699" stroke-width="2"/>
<path d="M52.5707 41.9497L46.7842 51.7454L52.9751 62.1473C53.1038 62.3831 52.9751 62.4352 52.7885 62.4352H48.3709C48.0598 62.4352 47.842 62.4239 47.7176 62.2111C47.3024 61.3815 46.8876 60.5572 46.4732 59.7383C46.058 58.9196 45.6173 58.0847 45.151 57.2335C44.6844 56.383 44.2229 55.5215 43.7666 54.649C43.3515 55.5 42.89 56.3509 42.4444 57.2016C41.9982 58.0526 41.5575 58.8982 41.1223 59.7383C40.6868 60.5788 40.2409 61.4137 39.7846 62.243C39.7015 62.4344 39.5561 62.4542 39.349 62.4542H35.087C34.9195 62.4542 34.8993 62.3283 34.9937 62.1792L40.9978 52.0644L35.1492 41.9178C35.0429 41.773 35.1344 41.6188 35.3048 41.6306H39.6912C39.8811 41.6199 40.049 41.6916 40.1578 41.854C40.5312 42.705 40.946 43.5559 41.4022 44.4066C41.8582 45.2577 42.3197 46.0979 42.7866 46.9273C43.2533 47.7569 43.7148 48.5972 44.1088 49.448C44.5234 48.576 44.9434 47.7252 45.3688 46.8954C45.7937 46.0658 46.2292 45.2309 46.6754 44.3907C47.1212 43.5506 47.5515 42.7157 47.9664 41.8859C48.0216 41.7039 48.1533 41.6117 48.3398 41.6306H52.4151C52.5707 41.6306 52.6351 41.843 52.5707 41.9497Z" fill="#A8DAFF"/>
<path d="M61.499 62.8495C58.7554 62.8923 55.8816 61.7627 54.4371 59.2599C53.7317 58.0583 53.3791 56.5534 53.3793 54.7449C53.3676 53.2805 53.7325 51.8388 54.4371 50.565C56.2551 47.3152 59.9177 46.0976 63.3967 46.4171V40.1313C63.3967 39.9827 63.459 39.9079 63.5834 39.9079H67.5032C67.6103 39.8922 67.7052 39.9895 67.6899 40.0993V58.9567C67.6899 59.7348 67.767 60.5101 67.8143 61.286C67.822 61.4185 67.7453 61.5496 67.6276 61.6051C65.6908 62.4335 63.5953 62.8399 61.499 62.8495ZM63.3967 58.8929V50.1822C60.5553 49.3927 57.7965 51.557 57.7969 54.5535C57.7294 57.6515 60.4 59.7918 63.3967 58.8929Z" fill="#A8DAFF"/>
</svg>
