<svg width="623" height="292" viewBox="0 0 623 292" fill="none" xmlns="http://www.w3.org/2000/svg">
<g clip-path="url(#clip0_294:102)">
<path d="M0 182.13H620.43" stroke="#ACD9F4" stroke-miterlimit="10"/>
<path d="M0 213.19H620.43" stroke="#ACD9F4" stroke-miterlimit="10"/>
<path d="M0 66.9H620.43" stroke="#ACD9F4" stroke-miterlimit="10"/>
<path d="M1.68994 151.81H622.12" stroke="#ACD9F4" stroke-miterlimit="10"/>
<path d="M0 127.6H620.43" stroke="#ACD9F4" stroke-miterlimit="10"/>
<path d="M0 70.21H620.43" stroke="#ACD9F4" stroke-miterlimit="10"/>
<path d="M0 209.86H620.43" stroke="#ACD9F4" stroke-miterlimit="10"/>
<path d="M265.22 231.68L417.39 20.35" stroke="#ACD9F4" stroke-miterlimit="10"/>
<path d="M224.38 230.82L376.55 19.48" stroke="#ACD9F4" stroke-miterlimit="10"/>
<path d="M409.57 231.68L257.4 20.35" stroke="#ACD9F4" stroke-miterlimit="10"/>
<path d="M450.46 231.68L298.29 20.35" stroke="#ACD9F4" stroke-miterlimit="10"/>
<path d="M358.14 231.68L205.97 20.35" stroke="#ACD9F4" stroke-miterlimit="10"/>
<path d="M400.4 231.68L248.24 20.35" stroke="#ACD9F4" stroke-miterlimit="10"/>
<path d="M438.45 213.45C479.004 213.45 511.88 180.574 511.88 140.02C511.88 99.4657 479.004 66.59 438.45 66.59C397.896 66.59 365.02 99.4657 365.02 140.02C365.02 180.574 397.896 213.45 438.45 213.45Z" stroke="#ACD9F4" stroke-miterlimit="10"/>
<path d="M438.45 180.84C460.994 180.84 479.27 162.564 479.27 140.02C479.27 117.476 460.994 99.2 438.45 99.2C415.906 99.2 397.63 117.476 397.63 140.02C397.63 162.564 415.906 180.84 438.45 180.84Z" stroke="#ACD9F4" stroke-miterlimit="10"/>
<path d="M184.61 213.45C225.164 213.45 258.04 180.574 258.04 140.02C258.04 99.4657 225.164 66.59 184.61 66.59C144.056 66.59 111.18 99.4657 111.18 140.02C111.18 180.574 144.056 213.45 184.61 213.45Z" stroke="#ACD9F4" stroke-miterlimit="10"/>
<path d="M184.61 180.84C207.154 180.84 225.43 162.564 225.43 140.02C225.43 117.476 207.154 99.2 184.61 99.2C162.066 99.2 143.79 117.476 143.79 140.02C143.79 162.564 162.066 180.84 184.61 180.84Z" stroke="#ACD9F4" stroke-miterlimit="10"/>
<path d="M54.9798 272.83C58.5198 272.83 61.0898 271.42 62.6298 269.94L66.4198 273.93C63.9098 276.44 60.4398 278.3 55.0398 278.3C45.7798 278.3 39.7998 272.32 39.7998 264.22C39.7998 256.18 46.0998 250.14 54.1998 250.14C63.3898 250.14 68.5998 256.95 68.1498 266.4H46.4298C47.1998 270.32 50.0298 272.83 54.9798 272.83ZM61.5998 261.9C61.0198 258.24 58.7698 255.54 54.2698 255.54C50.0898 255.54 47.1998 257.85 46.4298 261.9H61.5998Z" stroke="#757576" stroke-miterlimit="10"/>
<path d="M81.08 263.51L71.89 250.72H79.6L83.26 255.93C84.16 257.22 84.93 259.27 84.93 259.27C84.93 259.27 85.57 257.28 86.54 255.93L90.4 250.72H97.54L88.54 263L99.08 277.72H91.37L86.55 270.97C85.52 269.56 84.56 267.24 84.56 267.24C84.56 267.24 83.66 269.55 82.63 270.97L77.68 277.72H70.54L81.08 263.51Z" stroke="#757576" stroke-miterlimit="10"/>
<path d="M104.74 250.72H111.3L111.11 255.73C112.84 252.39 116.06 250.14 120.69 250.14C127.63 250.14 133.23 255.99 133.23 264.15C133.23 272.31 127.57 278.29 120.57 278.29C116.07 278.29 112.86 276.1 111.31 273.08V291.34H104.75V250.72H104.74ZM126.54 264.15C126.54 259.26 123.58 255.92 118.89 255.92C114.13 255.92 111.05 259.26 111.05 264.15C111.05 269.23 114.14 272.57 118.89 272.57C123.58 272.57 126.54 269.23 126.54 264.15Z" stroke="#757576" stroke-miterlimit="10"/>
<path d="M140.42 231.31H146.91V277.72H140.42V231.31Z" stroke="#757576" stroke-miterlimit="10"/>
<path d="M154.06 264.22C154.06 256.18 160.49 250.14 168.65 250.14C176.88 250.14 183.18 256.18 183.18 264.22C183.18 272.26 176.88 278.3 168.65 278.3C160.48 278.29 154.06 272.25 154.06 264.22ZM176.49 264.22C176.49 259.27 173.47 255.8 168.65 255.8C163.83 255.8 160.74 259.27 160.74 264.22C160.74 269.17 163.83 272.71 168.65 272.71C173.47 272.7 176.49 269.17 176.49 264.22Z" stroke="#757576" stroke-miterlimit="10"/>
<path d="M190.06 250.72H196.55L196.49 255.8C198.29 251.56 201.38 250.21 204.33 250.21C206.26 250.21 207.61 250.66 208.77 251.37L206.58 257.22C205.55 256.71 204.52 256.32 203.05 256.32C199.19 256.32 196.56 258.57 196.56 264.61V277.72H190.07V250.72H190.06Z" stroke="#757576" stroke-miterlimit="10"/>
<path d="M211.79 264.15C211.79 256.05 217.19 250.14 224.26 250.14C228.82 250.14 231.85 252.33 233.52 255.67L233.45 250.72H239.94V277.72H233.45L233.52 272.71C231.98 275.92 228.7 278.3 224.2 278.3C217.31 278.29 211.79 272.32 211.79 264.15ZM233.58 264.22C233.58 259.33 230.69 255.93 225.93 255.93C221.3 255.93 218.54 259.27 218.54 264.16C218.54 269.17 221.31 272.58 225.93 272.58C230.68 272.57 233.58 269.17 233.58 264.22Z" stroke="#757576" stroke-miterlimit="10"/>
<path d="M250.23 268.59V256.18H246.18V250.72H250.23V236.64H256.72V250.72H263.92V256.18H256.72V268.71C256.72 271.8 257.75 272.7 259.42 272.7C260.96 272.7 261.93 271.99 262.63 271.41L265.72 275.78C264.37 277.07 262.25 278.35 258.78 278.35C253.7 278.36 250.23 275.79 250.23 268.59Z" stroke="#757576" stroke-miterlimit="10"/>
<path d="M270.03 240.24C270.03 237.8 272.02 236 274.34 236C276.65 236 278.65 237.8 278.65 240.24C278.65 242.81 276.66 244.55 274.34 244.55C272.03 244.55 270.03 242.81 270.03 240.24ZM271.06 250.72H277.62V277.72H271.06V250.72Z" stroke="#757576" stroke-miterlimit="10"/>
<path d="M284.69 264.22C284.69 256.18 291.12 250.14 299.28 250.14C307.51 250.14 313.81 256.18 313.81 264.22C313.81 272.26 307.51 278.3 299.28 278.3C291.12 278.29 284.69 272.25 284.69 264.22ZM307.13 264.22C307.13 259.27 304.11 255.8 299.29 255.8C294.47 255.8 291.38 259.27 291.38 264.22C291.38 269.17 294.47 272.71 299.29 272.71C304.11 272.71 307.13 269.17 307.13 264.22Z" stroke="#757576" stroke-miterlimit="10"/>
<path d="M320.69 250.72H327.18L327.05 255.73C328.72 252.19 332.13 250.14 336.18 250.14C342.16 250.14 346.27 254.38 346.27 261.71V277.72H339.78V262.23C339.78 258.37 337.98 256.12 334.19 256.12C329.95 256.12 327.18 258.69 327.18 263.06V277.72H320.69V250.72Z" stroke="#757576" stroke-miterlimit="10"/>
<path d="M351.81 272.7L356.25 269.61C357.92 271.99 360.43 273.08 363.51 273.08C366.79 273.08 368.27 271.99 368.27 270.19C368.27 268 366.28 267.68 361.71 266.4C357.72 265.31 353.74 263.44 353.74 258.11C353.74 252.71 358.05 250.14 363.38 250.14C367.69 250.14 370.71 251.94 372.77 254.19L368.98 257.92C367.69 256.44 365.83 255.28 363.39 255.28C360.95 255.28 359.6 256.18 359.6 257.79C359.6 259.85 361.27 260.3 365.51 261.39C369.75 262.48 374.38 264.15 374.38 269.88C374.38 274.51 371.55 278.3 363.9 278.3C357.73 278.29 353.61 275.6 351.81 272.7Z" stroke="#757576" stroke-miterlimit="10"/>
<path d="M394.31 264.22C394.31 256.18 400.48 250.14 408.71 250.14C413.79 250.14 417.07 252.07 419.64 255.28L415.01 259.01C413.72 257.15 411.47 255.86 408.71 255.86C403.89 255.86 401 259.4 401 264.22C401 269.04 403.89 272.58 408.71 272.58C411.93 272.58 413.85 271.23 415.33 269.56L419.76 273.42C417.13 276.44 413.91 278.31 408.7 278.31C400.48 278.29 394.31 272.32 394.31 264.22Z" stroke="#757576" stroke-miterlimit="10"/>
<path d="M439.44 272.83C442.98 272.83 445.55 271.42 447.09 269.94L450.88 273.93C448.37 276.44 444.9 278.3 439.5 278.3C430.24 278.3 424.26 272.32 424.26 264.22C424.26 256.18 430.56 250.14 438.66 250.14C447.85 250.14 453.06 256.95 452.61 266.4H430.88C431.66 270.32 434.49 272.83 439.44 272.83ZM446.06 261.9C445.48 258.24 443.23 255.54 438.73 255.54C434.55 255.54 431.66 257.85 430.89 261.9H446.06Z" stroke="#757576" stroke-miterlimit="10"/>
<path d="M459.5 250.72H465.99L465.86 255.73C467.53 252.19 470.94 250.14 474.99 250.14C480.97 250.14 485.08 254.38 485.08 261.71V277.72H478.59V262.23C478.59 258.37 476.79 256.12 473 256.12C468.76 256.12 465.99 258.69 465.99 263.06V277.72H459.5V250.72Z" stroke="#757576" stroke-miterlimit="10"/>
<path d="M494.79 268.59V256.18H490.74V250.72H494.79V236.64H501.28V250.72H508.48V256.18H501.28V268.71C501.28 271.8 502.31 272.7 503.98 272.7C505.52 272.7 506.49 271.99 507.2 271.41L510.29 275.78C508.94 277.07 506.82 278.35 503.35 278.35C498.27 278.36 494.79 275.79 494.79 268.59Z" stroke="#757576" stroke-miterlimit="10"/>
<path d="M515.75 250.72H522.24L522.18 255.8C523.98 251.56 527.07 250.21 530.02 250.21C531.95 250.21 533.3 250.66 534.46 251.37L532.27 257.22C531.24 256.71 530.21 256.32 528.74 256.32C524.88 256.32 522.25 258.57 522.25 264.61V277.72H515.76V250.72H515.75Z" stroke="#757576" stroke-miterlimit="10"/>
<path d="M537.48 264.15C537.48 256.05 542.88 250.14 549.95 250.14C554.51 250.14 557.54 252.33 559.21 255.67L559.14 250.72H565.63V277.72H559.14L559.21 272.71C557.67 275.92 554.39 278.3 549.89 278.3C543.01 278.29 537.48 272.32 537.48 264.15ZM559.27 264.22C559.27 259.33 556.38 255.93 551.62 255.93C546.99 255.93 544.23 259.27 544.23 264.16C544.23 269.17 547 272.58 551.62 272.58C556.38 272.57 559.27 269.17 559.27 264.22Z" stroke="#757576" stroke-miterlimit="10"/>
<path d="M574.13 231.31H580.62V277.72H574.13V231.31Z" stroke="#757576" stroke-miterlimit="10"/>
<path d="M239.46 210.1H280.97L312.02 167.11L343.07 210.1H384.58L283.07 69.5599H241.56L291.27 138.38L239.46 210.1Z" stroke="#757576" stroke-miterlimit="10"/>
<path d="M184.2 66.22C220.42 66.22 257.79 94.04 257.79 141.36C257.79 145.07 256.81 151.32 256.81 151.32C256.81 151.32 152.19 151.37 144.96 151.32C146.74 160.35 159.39 181.19 184.62 181.19C193.7 181.19 205.61 178.07 215.38 167.12C217.37 169.13 238.38 189.65 238.38 189.65C234.67 193.53 216.73 213.45 183.35 213.45C147.33 213.45 111.19 183.21 111.19 139.83C111.19 96.45 146.84 66.22 184.2 66.22ZM145.3 127.27C155.77 127.22 210.54 127.22 223.72 127.27C219.87 114.08 205.91 98.49 184.13 98.49C162.35 98.49 148.79 115.04 145.3 127.27Z" stroke="#757576" stroke-miterlimit="10"/>
<path d="M469.35 167.11C461.81 175.7 450.8 181.14 438.51 181.14C415.78 181.14 397.36 162.64 397.36 139.81C397.36 116.98 415.78 98.48 438.51 98.48C450.82 98.48 461.83 103.94 469.37 112.54L492.34 90.02C478.95 75.42 459.82 66.22 438.51 66.22C398.05 66.22 365.24 99.17 365.24 139.81C365.24 180.45 398.04 213.4 438.51 213.4C459.82 213.4 478.95 204.2 492.33 189.62L469.35 167.11Z" stroke="#757576" stroke-miterlimit="10"/>
<path d="M317.22 102.86L337.81 131.4L377.36 76.69C383.76 67.52 387.08 56.01 385.79 43.7C383.47 21.43 365.49 3.26001 343.33 0.800013C314.24 -2.41999 289.63 20.36 289.63 48.92C289.63 59.28 292.87 68.88 298.38 76.75L312.03 95.67L325.76 76.63L325.88 76.46C329.98 70.77 329.98 63.08 325.87 57.39C324.15 54.96 323.15 51.99 323.15 48.78C323.15 39.66 331.31 32.46 340.69 34.12C346.73 35.19 351.64 40.22 352.62 46.3C353.29 50.48 352.23 54.38 350.05 57.43L317.22 102.86Z" stroke="#757576" stroke-miterlimit="10"/>
</g>
<defs>
<clipPath id="clip0_294:102">
<rect width="622.12" height="291.84" fill="white"/>
</clipPath>
</defs>
</svg>
