<svg width="692" height="175" viewBox="0 0 692 175" fill="none" xmlns="http://www.w3.org/2000/svg">
<path d="M6.45977 139.91C7.96977 139.91 9.05977 139.31 9.71977 138.68L11.3298 140.38C10.2598 141.45 8.78977 142.24 6.48977 142.24C2.54977 142.24 0.00976562 139.7 0.00976562 136.25C0.00976562 132.83 2.68977 130.26 6.13977 130.26C10.0498 130.26 12.2698 133.16 12.0798 137.18H2.81977C3.14977 138.84 4.34977 139.91 6.45977 139.91ZM9.27977 135.26C9.02977 133.7 8.07977 132.55 6.15977 132.55C4.37977 132.55 3.14977 133.53 2.81977 135.26H9.27977Z" fill="#00205C"/>
<path d="M17.5696 135.94L13.6596 130.5H16.9396L18.4996 132.72C18.8796 133.27 19.2096 134.14 19.2096 134.14C19.2096 134.14 19.4796 133.29 19.8896 132.72L21.5296 130.5H24.5696L20.7396 135.73L25.2296 142H21.9496L19.8996 139.13C19.4596 138.53 19.0496 137.54 19.0496 137.54C19.0496 137.54 18.6696 138.52 18.2296 139.13L16.1196 142H13.0796L17.5696 135.94Z" fill="#00205C"/>
<path d="M27.6396 130.5H30.4296L30.3496 132.63C31.0896 131.21 32.4596 130.25 34.4296 130.25C37.3796 130.25 39.7696 132.74 39.7696 136.21C39.7696 139.68 37.3597 142.23 34.3797 142.23C32.4597 142.23 31.0996 141.3 30.4396 140.01V147.78H27.6496V130.5H27.6396ZM36.9096 136.22C36.9096 134.14 35.6497 132.72 33.6497 132.72C31.6297 132.72 30.3096 134.14 30.3096 136.22C30.3096 138.38 31.6197 139.8 33.6497 139.8C35.6497 139.8 36.9096 138.38 36.9096 136.22Z" fill="#00205C"/>
<path d="M42.8198 122.24H45.5798V141.99H42.8198V122.24Z" fill="#00205C"/>
<path d="M48.6196 136.24C48.6196 132.82 51.3596 130.25 54.8296 130.25C58.3296 130.25 61.0096 132.82 61.0096 136.24C61.0096 139.66 58.3296 142.23 54.8296 142.23C51.3596 142.24 48.6196 139.66 48.6196 136.24ZM58.1696 136.24C58.1696 134.13 56.8796 132.66 54.8296 132.66C52.7796 132.66 51.4696 134.14 51.4696 136.24C51.4696 138.34 52.7796 139.85 54.8296 139.85C56.8896 139.85 58.1696 138.35 58.1696 136.24Z" fill="#00205C"/>
<path d="M63.9497 130.5H66.7097L66.6797 132.66C67.4497 130.85 68.7597 130.28 70.0197 130.28C70.8397 130.28 71.4097 130.47 71.9097 130.77L70.9797 133.26C70.5397 133.04 70.0997 132.88 69.4797 132.88C67.8397 132.88 66.7197 133.84 66.7197 136.41V141.99H63.9597V130.5H63.9497Z" fill="#00205C"/>
<path d="M73.1997 136.22C73.1997 132.77 75.4997 130.26 78.5097 130.26C80.4497 130.26 81.7397 131.19 82.4497 132.61L82.4197 130.5H85.1797V141.99H82.4197L82.4497 139.86C81.7897 141.23 80.3997 142.24 78.4797 142.24C75.5497 142.24 73.1997 139.69 73.1997 136.22ZM82.4697 136.24C82.4697 134.16 81.2397 132.71 79.2097 132.71C77.2397 132.71 76.0597 134.13 76.0597 136.21C76.0597 138.34 77.2397 139.79 79.2097 139.79C81.2397 139.8 82.4697 138.35 82.4697 136.24Z" fill="#00205C"/>
<path d="M89.5598 138.1V132.82H87.8398V130.49H89.5598V124.5H92.3198V130.49H95.3798V132.82H92.3198V138.16C92.3198 139.47 92.7598 139.86 93.4698 139.86C94.1298 139.86 94.5398 139.56 94.8398 139.31L96.1498 141.17C95.5798 141.72 94.6698 142.26 93.1998 142.26C91.0398 142.26 89.5598 141.17 89.5598 138.1Z" fill="#00205C"/>
<path d="M97.9897 126.04C97.9897 125 98.8397 124.23 99.8197 124.23C100.8 124.23 101.65 125 101.65 126.04C101.65 127.13 100.8 127.87 99.8197 127.87C98.8397 127.87 97.9897 127.13 97.9897 126.04ZM98.4297 130.5H101.22V141.99H98.4297V130.5Z" fill="#00205C"/>
<path d="M104.23 136.24C104.23 132.82 106.97 130.25 110.44 130.25C113.94 130.25 116.62 132.82 116.62 136.24C116.62 139.66 113.94 142.23 110.44 142.23C106.96 142.24 104.23 139.66 104.23 136.24ZM113.77 136.24C113.77 134.13 112.48 132.66 110.43 132.66C108.38 132.66 107.07 134.14 107.07 136.24C107.07 138.34 108.38 139.85 110.43 139.85C112.49 139.85 113.77 138.35 113.77 136.24Z" fill="#00205C"/>
<path d="M119.55 130.5H122.31L122.26 132.63C122.97 131.13 124.42 130.25 126.14 130.25C128.68 130.25 130.44 132.06 130.44 135.17V141.98H127.68V135.39C127.68 133.75 126.91 132.79 125.3 132.79C123.49 132.79 122.32 133.88 122.32 135.74V141.98H119.56V130.5H119.55Z" fill="#00205C"/>
<path d="M132.79 139.85L134.68 138.54C135.39 139.55 136.46 140.02 137.77 140.02C139.17 140.02 139.79 139.55 139.79 138.79C139.79 137.86 138.94 137.72 137 137.18C135.3 136.71 133.61 135.92 133.61 133.65C133.61 131.35 135.44 130.26 137.71 130.26C139.54 130.26 140.83 131.03 141.7 131.98L140.09 133.57C139.54 132.94 138.75 132.45 137.71 132.45C136.67 132.45 136.1 132.83 136.1 133.52C136.1 134.4 136.81 134.59 138.62 135.05C140.42 135.52 142.39 136.23 142.39 138.66C142.39 140.63 141.19 142.24 137.93 142.24C135.31 142.24 133.56 141.09 132.79 139.85Z" fill="#00205C"/>
<path d="M150.88 136.24C150.88 132.82 153.51 130.25 157.01 130.25C159.17 130.25 160.57 131.07 161.66 132.44L159.69 134.03C159.14 133.24 158.18 132.69 157.01 132.69C154.96 132.69 153.73 134.19 153.73 136.25C153.73 138.31 154.96 139.81 157.01 139.81C158.38 139.81 159.2 139.24 159.83 138.52L161.72 140.16C160.6 141.45 159.23 142.24 157.01 142.24C153.51 142.24 150.88 139.69 150.88 136.24Z" fill="#00205C"/>
<path d="M170.09 139.91C171.6 139.91 172.69 139.31 173.35 138.68L174.96 140.38C173.89 141.45 172.42 142.24 170.12 142.24C166.18 142.24 163.64 139.7 163.64 136.25C163.64 132.83 166.32 130.26 169.77 130.26C173.68 130.26 175.9 133.16 175.71 137.18H166.46C166.78 138.84 167.98 139.91 170.09 139.91ZM172.91 135.26C172.66 133.7 171.71 132.55 169.79 132.55C168.01 132.55 166.78 133.53 166.45 135.26H172.91Z" fill="#00205C"/>
<path d="M178.63 130.5H181.39L181.33 132.63C182.04 131.13 183.49 130.25 185.22 130.25C187.76 130.25 189.52 132.06 189.52 135.17V141.98H186.76V135.39C186.76 133.75 185.99 132.79 184.38 132.79C182.57 132.79 181.4 133.88 181.4 135.74V141.98H178.64V130.5H178.63Z" fill="#00205C"/>
<path d="M193.65 138.1V132.82H191.93V130.49H193.65V124.5H196.41V130.49H199.47V132.82H196.41V138.16C196.41 139.47 196.85 139.86 197.56 139.86C198.22 139.86 198.63 139.56 198.93 139.31L200.24 141.17C199.67 141.72 198.76 142.26 197.29 142.26C195.13 142.26 193.65 141.17 193.65 138.1Z" fill="#00205C"/>
<path d="M202.57 130.5H205.33L205.3 132.66C206.07 130.85 207.38 130.28 208.64 130.28C209.46 130.28 210.03 130.47 210.53 130.77L209.6 133.26C209.16 133.04 208.72 132.88 208.1 132.88C206.46 132.88 205.34 133.84 205.34 136.41V141.99H202.58V130.5H202.57Z" fill="#00205C"/>
<path d="M211.82 136.22C211.82 132.77 214.12 130.26 217.13 130.26C219.07 130.26 220.36 131.19 221.07 132.61L221.04 130.5H223.8V141.99H221.04L221.07 139.86C220.41 141.23 219.02 142.24 217.1 142.24C214.17 142.24 211.82 139.69 211.82 136.22ZM221.09 136.24C221.09 134.16 219.86 132.71 217.83 132.71C215.86 132.71 214.68 134.13 214.68 136.21C214.68 138.34 215.86 139.79 217.83 139.79C219.86 139.8 221.09 138.35 221.09 136.24Z" fill="#00205C"/>
<path d="M227.42 122.24H230.18V141.99H227.42V122.24Z" fill="#00205C"/>
<path d="M84.9697 113.21H102.64L115.86 94.91L129.07 113.21H146.74L103.53 53.39H85.8697L107.02 82.68L84.9697 113.21Z" fill="#00205C"/>
<path d="M61.4599 51.97C76.8799 51.97 92.7799 63.81 92.7799 83.95C92.7799 85.53 92.3599 88.19 92.3599 88.19C92.3599 88.19 47.8299 88.21 44.7499 88.19C45.5099 92.04 50.8899 100.9 61.6299 100.9C65.4899 100.9 70.5599 99.57 74.7199 94.91C75.5699 95.76 84.5099 104.5 84.5099 104.5C82.9299 106.15 75.2999 114.63 61.0899 114.63C45.7599 114.63 30.3799 101.76 30.3799 83.3C30.3799 64.84 45.5499 51.97 61.4599 51.97ZM44.8999 77.95C49.3599 77.93 72.6699 77.93 78.2799 77.95C76.6399 72.34 70.6999 65.7 61.4299 65.7C52.1599 65.7 46.3799 72.75 44.8999 77.95Z" fill="#00205C"/>
<path d="M182.82 94.91C179.61 98.57 174.93 100.88 169.69 100.88C160.02 100.88 152.18 93 152.18 83.29C152.18 73.58 160.02 65.7 169.69 65.7C174.93 65.7 179.62 68.02 182.83 71.68L192.61 62.09C186.91 55.88 178.77 51.96 169.7 51.96C152.48 51.96 138.52 65.98 138.52 83.28C138.52 100.58 152.48 114.6 169.7 114.6C178.77 114.6 186.91 110.69 192.61 104.48L182.82 94.91Z" fill="#00205C"/>
<path d="M118.07 67.57L126.84 79.72L143.67 56.43C146.39 52.53 147.81 47.63 147.26 42.39C146.27 32.91 138.62 25.18 129.19 24.13C116.81 22.76 106.33 32.46 106.33 44.61C106.33 49.02 107.71 53.1 110.06 56.46L115.87 64.51L121.72 56.4L121.77 56.33C123.52 53.91 123.52 50.63 121.77 48.21C121.04 47.18 120.61 45.91 120.61 44.55C120.61 40.67 124.08 37.6 128.08 38.31C130.65 38.77 132.74 40.91 133.16 43.5C133.45 45.28 132.99 46.94 132.06 48.24L118.07 67.57Z" fill="#B7CBEA"/>
<path d="M640.35 109.81L655.54 130.86L684.71 90.5C689.43 83.73 691.88 75.25 690.93 66.16C689.22 49.73 675.96 36.33 659.61 34.52C638.16 32.14 620 48.95 620 70.02C620 77.66 622.39 84.74 626.46 90.55L636.53 104.5L646.66 90.45L646.75 90.33C649.78 86.13 649.77 80.46 646.75 76.26C645.48 74.47 644.74 72.28 644.74 69.91C644.74 63.18 650.76 57.87 657.68 59.1C662.13 59.89 665.76 63.6 666.48 68.09C666.97 71.17 666.19 74.05 664.58 76.3L640.35 109.81Z" fill="#00205C"/>
<path d="M284 92.61V92.51C284 84.88 289.41 78.61 297.04 78.61C305.53 78.61 309.83 85.28 309.83 92.97C309.83 93.53 309.78 94.08 309.73 94.69H290.11C290.77 99.04 293.85 101.47 297.79 101.47C300.77 101.47 302.9 100.36 305.02 98.28L308.61 101.47C306.08 104.5 302.59 106.47 297.69 106.47C289.96 106.46 284 100.85 284 92.61ZM303.76 90.64C303.36 86.7 301.03 83.61 296.99 83.61C293.25 83.61 290.62 86.49 290.06 90.64H303.76Z" fill="#5887DA"/>
<path d="M322.83 88.1099L329 79.1599H335.52L326.12 92.1999L335.93 105.85H329.26L322.69 96.3499L316.17 105.85H309.65L319.41 92.2499L309.99 79.1599H316.66L322.83 88.1099Z" fill="#5887DA"/>
<path d="M335.52 92.66V92.56C335.52 84.98 341.39 78.61 349.43 78.61C354.43 78.61 357.57 80.48 360.1 83.21L356.26 87.31C354.39 85.34 352.42 83.97 349.38 83.97C344.93 83.97 341.65 87.81 341.65 92.46V92.56C341.65 97.31 344.94 101.1 349.64 101.1C352.52 101.1 354.64 99.79 356.57 97.81L360.26 101.45C357.63 104.38 354.55 106.45 349.34 106.45C341.39 106.46 335.52 100.25 335.52 92.66Z" fill="#5887DA"/>
<path d="M363.36 103.52H362.47V102.93H364.9V103.52H364.01V105.85H363.37V103.52H363.36Z" fill="#5887DA"/>
<path d="M365.39 102.93H366.08L366.85 104.17L367.62 102.93H368.31V105.86H367.67V103.95L366.85 105.2H366.83L366.01 103.96V105.86H365.38V102.93H365.39Z" fill="#5887DA"/>
<path d="M375.65 79.7199H379.54V84.2699C381.26 81.4399 383.99 79.1599 388.49 79.1599C394.81 79.1599 398.5 83.4099 398.5 89.6299V105.86H394.61V90.5899C394.61 85.7399 391.98 82.6999 387.38 82.6999C382.88 82.6999 379.54 85.9899 379.54 90.8899V105.86H375.65V79.7199Z" fill="#00205C"/>
<path d="M404.83 98.27V98.17C404.83 92.66 409.38 89.73 416 89.73C419.34 89.73 421.71 90.19 424.04 90.84V89.93C424.04 85.23 421.16 82.8 416.26 82.8C413.17 82.8 410.75 83.61 408.32 84.72L407.16 81.53C410.04 80.22 412.87 79.36 416.67 79.36C420.36 79.36 423.19 80.32 425.11 82.24C426.88 84.01 427.79 86.54 427.79 89.87V105.85H424.05V101.91C422.23 104.29 419.2 106.41 414.6 106.41C409.73 106.41 404.83 103.63 404.83 98.27ZM424.09 96.25V93.72C422.17 93.16 419.59 92.61 416.4 92.61C411.5 92.61 408.77 94.74 408.77 98.02V98.12C408.77 101.41 411.8 103.33 415.34 103.33C420.15 103.33 424.09 100.4 424.09 96.25Z" fill="#00205C"/>
<path d="M437.19 98.93V83.16H433.55V79.72H437.19V71.83H441.08V79.72H449.37V83.16H441.08V98.43C441.08 101.62 442.85 102.78 445.48 102.78C446.79 102.78 447.91 102.53 449.27 101.87V105.21C447.91 105.92 446.44 106.32 444.57 106.32C440.38 106.31 437.19 104.24 437.19 98.93Z" fill="#00205C"/>
<path d="M455.85 95.95V79.72H459.74V94.99C459.74 99.84 462.37 102.88 466.97 102.88C471.42 102.88 474.81 99.59 474.81 94.69V79.72H478.65V105.86H474.81V101.31C473.04 104.14 470.36 106.42 465.86 106.42C459.54 106.41 455.85 102.17 455.85 95.95Z" fill="#00205C"/>
<path d="M487.4 79.7199H491.29V86.5499C493.21 82.1999 497 79.0699 501.96 79.2699V83.4699H501.66C495.95 83.4699 491.29 87.5699 491.29 95.4499V105.87H487.4V79.7199Z" fill="#00205C"/>
<path d="M505.15 92.8599V92.7599C505.15 85.2299 510.46 79.1599 517.69 79.1599C525.43 79.1599 529.87 85.3299 529.87 92.9599C529.87 93.4699 529.87 93.7699 529.82 94.2199H509.09C509.65 99.8799 513.64 103.07 518.29 103.07C521.88 103.07 524.41 101.61 526.53 99.3799L528.96 101.55C526.33 104.48 523.15 106.45 518.19 106.45C511.02 106.46 505.15 100.95 505.15 92.8599ZM525.93 91.3499C525.52 86.5999 522.79 82.4499 517.59 82.4499C513.04 82.4499 509.6 86.2399 509.1 91.3499H525.93Z" fill="#00205C"/>
<path d="M168 24.5V24H167.5V24.5H168ZM324 24.5H324.5V24H324V24.5ZM323.646 64.3536C323.842 64.5488 324.158 64.5488 324.354 64.3536L327.536 61.1716C327.731 60.9763 327.731 60.6597 327.536 60.4645C327.34 60.2692 327.024 60.2692 326.828 60.4645L324 63.2929L321.172 60.4645C320.976 60.2692 320.66 60.2692 320.464 60.4645C320.269 60.6597 320.269 60.9763 320.464 61.1716L323.646 64.3536ZM168.5 40.5V24.5H167.5V40.5H168.5ZM168 25H324V24H168V25ZM323.5 24.5V64H324.5V24.5H323.5Z" fill="#00205C"/>
<path d="M127 174H126.5V174.5H127V174ZM449 174V174.5H449.5V174H449ZM449.354 122.646C449.158 122.451 448.842 122.451 448.646 122.646L445.464 125.828C445.269 126.024 445.269 126.34 445.464 126.536C445.66 126.731 445.976 126.731 446.172 126.536L449 123.707L451.828 126.536C452.024 126.731 452.34 126.731 452.536 126.536C452.731 126.34 452.731 126.024 452.536 125.828L449.354 122.646ZM126.5 154V174H127.5V154H126.5ZM127 174.5H449V173.5H127V174.5ZM449.5 174V123H448.5V174H449.5Z" fill="#00205C"/>
<path d="M127 1V0.5H126.5V1H127ZM654 1H654.5V0.5H654V1ZM653.646 23.3536C653.842 23.5488 654.158 23.5488 654.354 23.3536L657.536 20.1716C657.731 19.9763 657.731 19.6597 657.536 19.4645C657.34 19.2692 657.024 19.2692 656.828 19.4645L654 22.2929L651.172 19.4645C650.976 19.2692 650.66 19.2692 650.464 19.4645C650.269 19.6597 650.269 19.9763 650.464 20.1716L653.646 23.3536ZM127.5 16.5V1H126.5V16.5H127.5ZM127 1.5H654V0.5H127V1.5ZM653.5 1V23H654.5V1H653.5Z" fill="#00205C"/>
</svg>
