<svg width="621" height="257" viewBox="0 0 621 257" fill="none" xmlns="http://www.w3.org/2000/svg">
<g clip-path="url(#clip0_256:118)">
<path d="M0 47.21H620.43" stroke="#ACD9F4" stroke-miterlimit="10"/>
<path d="M0 151.21H620.43" stroke="#ACD9F4" stroke-miterlimit="10"/>
<path d="M0 155.21H620.43" stroke="#ACD9F4" stroke-miterlimit="10"/>
<path d="M0 43.21H620.43" stroke="#ACD9F4" stroke-miterlimit="10"/>
<path d="M0 119.21H620.43" stroke="#ACD9F4" stroke-miterlimit="10"/>
<path d="M0 79.21H620.43" stroke="#ACD9F4" stroke-miterlimit="10"/>
<path d="M0 2.32001H620.43" stroke="#ACD9F4" stroke-miterlimit="10"/>
<path d="M0 195.94H620.43" stroke="#ACD9F4" stroke-miterlimit="10"/>
<path d="M129.5 235.56V235.46C129.5 227.15 135.15 222.46 141.13 222.46C142.808 222.441 144.465 222.835 145.955 223.605C147.446 224.376 148.725 225.5 149.68 226.88V213.41H155.42V248.07H149.68V243.89C148.776 245.34 147.516 246.535 146.019 247.359C144.522 248.184 142.839 248.611 141.13 248.6C135.22 248.57 129.5 243.86 129.5 235.56ZM149.77 235.56V235.46C149.77 230.62 146.36 227.46 142.51 227.46C138.66 227.46 135.29 230.46 135.29 235.46V235.56C135.29 240.4 138.62 243.56 142.51 243.56C146.4 243.56 149.77 240.35 149.77 235.56V235.56Z" stroke="#757576" stroke-miterlimit="10"/>
<path d="M161.55 240.83V240.73C161.55 235.32 165.78 232.66 171.9 232.66C174.186 232.626 176.463 232.964 178.64 233.66V233.05C178.64 229.49 176.46 227.58 172.42 227.58C169.946 227.589 167.502 228.125 165.25 229.15L163.73 224.64C166.688 223.266 169.919 222.582 173.18 222.64C176.94 222.64 179.74 223.64 181.49 225.44C183.24 227.24 184.2 229.9 184.2 233.18V248.04H178.6V244.91C177.606 246.101 176.354 247.05 174.938 247.684C173.523 248.318 171.981 248.621 170.43 248.57C165.73 248.57 161.55 245.86 161.55 240.83ZM178.74 239.02V237.31C176.917 236.631 174.985 236.292 173.04 236.31C169.34 236.31 167.15 237.88 167.15 240.49V240.59C167.15 243.01 169.29 244.39 172.04 244.39C175.84 244.41 178.74 242.2 178.74 239.02Z" stroke="#757576" stroke-miterlimit="10"/>
<path d="M191.66 222.97H197.4V226.82C198.21 225.471 199.357 224.355 200.728 223.582C202.098 222.809 203.646 222.405 205.22 222.41C210.87 222.41 214.14 226.21 214.14 232V248H208.42V233.8C208.42 229.9 206.47 227.67 203.05 227.67C199.63 227.67 197.4 230 197.4 233.89V248.04H191.66V222.97Z" stroke="#757576" stroke-miterlimit="10"/>
<path d="M220.29 235.65V235.56C220.262 233.833 220.58 232.118 221.225 230.516C221.87 228.913 222.83 227.456 224.047 226.231C225.264 225.005 226.714 224.036 228.312 223.38C229.91 222.723 231.623 222.394 233.35 222.41C235.233 222.343 237.107 222.695 238.837 223.442C240.567 224.19 242.108 225.313 243.35 226.73L239.74 230.58C237.98 228.72 236.13 227.44 233.28 227.44C229.1 227.44 226.02 231.05 226.02 235.44V235.54C226.02 240 229.1 243.54 233.52 243.54C234.76 243.513 235.981 243.224 237.101 242.692C238.222 242.159 239.216 241.395 240.02 240.45L243.49 243.87C241.766 245.924 239.455 247.402 236.867 248.105C234.279 248.808 231.538 248.703 229.011 247.804C226.485 246.906 224.293 245.256 222.731 243.076C221.168 240.897 220.31 238.291 220.27 235.61L220.29 235.65Z" stroke="#757576" stroke-miterlimit="10"/>
<path d="M247.22 235.6V235.51C247.22 228.34 252.3 222.45 259.47 222.45C267.47 222.45 271.47 228.72 271.47 235.94C271.47 236.46 271.47 236.94 271.38 237.55H253.01C253.173 239.33 254.01 240.981 255.351 242.164C256.691 243.346 258.434 243.971 260.22 243.91C261.499 243.916 262.765 243.652 263.935 243.135C265.105 242.618 266.153 241.86 267.01 240.91L270.38 243.91C269.151 245.432 267.585 246.648 265.807 247.463C264.029 248.279 262.086 248.671 260.13 248.61C252.86 248.61 247.22 243.34 247.22 235.6ZM265.79 233.75C265.41 230.05 263.22 227.15 259.42 227.15C255.91 227.15 253.42 229.86 252.92 233.75H265.79Z" stroke="#757576" stroke-miterlimit="10"/>
<path d="M291.33 235.65V235.56C291.301 233.833 291.617 232.118 292.261 230.516C292.906 228.914 293.864 227.457 295.08 226.231C296.297 225.006 297.746 224.036 299.344 223.38C300.941 222.723 302.653 222.394 304.38 222.41C306.263 222.341 308.138 222.693 309.868 223.44C311.598 224.188 313.139 225.312 314.38 226.73L310.77 230.58C309.02 228.72 307.17 227.44 304.32 227.44C300.14 227.44 297.05 231.05 297.05 235.44V235.54C297.05 240 300.14 243.54 304.55 243.54C305.792 243.513 307.014 243.224 308.136 242.692C309.258 242.159 310.254 241.395 311.06 240.45L314.52 243.87C313.292 245.393 311.727 246.611 309.948 247.426C308.169 248.242 306.226 248.633 304.27 248.57C302.567 248.59 300.877 248.27 299.299 247.628C297.721 246.986 296.288 246.035 295.082 244.832C293.877 243.628 292.924 242.196 292.28 240.619C291.636 239.043 291.313 237.353 291.33 235.65Z" stroke="#757576" stroke-miterlimit="10"/>
<path d="M318.3 235.65V235.56C318.381 232.078 319.818 228.765 322.305 226.326C324.792 223.887 328.133 222.515 331.616 222.502C335.099 222.489 338.45 223.836 340.955 226.256C343.461 228.676 344.922 231.978 345.03 235.46V235.56C345.022 237.305 344.667 239.03 343.984 240.636C343.301 242.241 342.304 243.694 341.053 244.91C339.801 246.125 338.319 247.078 336.694 247.714C335.069 248.349 333.334 248.654 331.59 248.61C329.862 248.649 328.143 248.342 326.535 247.709C324.927 247.075 323.461 246.127 322.224 244.92C320.986 243.714 320.002 242.272 319.328 240.68C318.654 239.089 318.305 237.378 318.3 235.65ZM339.3 235.65V235.56C339.344 234.52 339.179 233.481 338.813 232.507C338.447 231.532 337.888 230.641 337.171 229.887C336.453 229.133 335.591 228.531 334.635 228.117C333.68 227.704 332.651 227.487 331.61 227.48C327.01 227.48 324.06 231.09 324.06 235.48V235.58C324.024 236.611 324.194 237.639 324.562 238.603C324.929 239.566 325.485 240.447 326.198 241.193C326.911 241.938 327.766 242.534 328.713 242.944C329.659 243.354 330.678 243.57 331.71 243.58C336.34 243.58 339.28 239.97 339.28 235.65H339.3Z" stroke="#757576" stroke-miterlimit="10"/>
<path d="M351.44 222.97H357.22V226.77C358.83 224.54 361.01 222.45 364.86 222.45C366.403 222.384 367.933 222.766 369.264 223.55C370.595 224.335 371.67 225.488 372.36 226.87C373.297 225.494 374.56 224.37 376.035 223.599C377.511 222.828 379.155 222.433 380.82 222.45C386.28 222.45 389.6 225.92 389.6 232.04V248.04H383.82V233.8C383.82 229.8 381.97 227.67 378.74 227.67C375.51 227.67 373.38 229.86 373.38 233.89V248.04H367.63V233.75C367.63 229.86 365.73 227.67 362.55 227.67C359.37 227.67 357.19 230.05 357.19 233.89V248.04H351.44V222.97Z" stroke="#757576" stroke-miterlimit="10"/>
<path d="M397.12 222.97H402.87V227.15C403.774 225.703 405.034 224.512 406.529 223.689C408.023 222.866 409.704 222.44 411.41 222.45C417.3 222.45 423.05 227.1 423.05 235.45V235.55C423.05 243.85 417.35 248.55 411.41 248.55C409.733 248.57 408.077 248.178 406.588 247.407C405.098 246.636 403.822 245.511 402.87 244.13V255.62H397.12V222.97ZM417.22 235.56V235.46C417.22 230.62 413.94 227.46 410.05 227.46C406.16 227.46 402.73 230.68 402.73 235.46V235.56C402.73 240.35 406.15 243.56 410.05 243.56C413.95 243.56 417.22 240.49 417.22 235.56Z" stroke="#757576" stroke-miterlimit="10"/>
<path d="M427.89 240.83V240.73C427.89 235.32 432.12 232.66 438.24 232.66C440.526 232.626 442.802 232.964 444.98 233.66V233.05C444.98 229.49 442.8 227.58 438.77 227.58C436.293 227.588 433.845 228.123 431.59 229.15L430.08 224.64C433.034 223.264 436.262 222.58 439.52 222.64C443.28 222.64 446.08 223.64 447.83 225.44C449.58 227.24 450.54 229.9 450.54 233.18V248.04H444.94V244.91C443.946 246.101 442.694 247.05 441.278 247.684C439.862 248.318 438.321 248.621 436.77 248.57C432.07 248.57 427.89 245.86 427.89 240.83ZM445.08 239.02V237.31C443.257 236.631 441.325 236.292 439.38 236.31C435.68 236.31 433.49 237.88 433.49 240.49V240.59C433.49 243.01 435.63 244.39 438.38 244.39C442.22 244.41 445.08 242.2 445.08 239.02Z" stroke="#757576" stroke-miterlimit="10"/>
<path d="M458 222.97H463.74V226.82C464.557 225.475 465.709 224.366 467.083 223.6C468.457 222.834 470.007 222.438 471.58 222.45C477.23 222.45 480.5 226.25 480.5 232.04V248.04H474.76V233.8C474.76 229.9 472.81 227.67 469.39 227.67C465.97 227.67 463.74 230 463.74 233.89V248.04H458V222.97Z" stroke="#757576" stroke-miterlimit="10"/>
<path d="M504.67 222.97H510.67L500.67 248.76C498.67 253.88 496.45 255.76 492.41 255.76C490.334 255.783 488.289 255.259 486.48 254.24L488.42 249.97C489.449 250.564 490.612 250.891 491.8 250.92C493.41 250.92 494.41 250.21 495.36 248.07L484.92 222.97H491.09L498.22 241.59L504.67 222.97Z" stroke="#757576" stroke-miterlimit="10"/>
<path opacity="0.6" d="M404.94 172.18C404.94 171.98 404.94 171.78 405 171.58C404.99 171.78 404.96 171.98 404.94 172.18Z" stroke="#757576" stroke-miterlimit="10"/>
<path d="M384.29 195.94C388.063 195.936 391.76 194.879 394.965 192.889C398.171 190.899 400.758 188.054 402.434 184.674C404.111 181.294 404.812 177.513 404.458 173.757C404.104 170 402.709 166.417 400.43 163.41L364.01 115.41V176.41C364.001 179.457 364.685 182.466 366.01 185.21L368.1 187.97C369.999 190.459 372.449 192.474 375.258 193.857C378.068 195.24 381.159 195.953 384.29 195.94V195.94Z" stroke="#757576" stroke-miterlimit="10"/>
<path d="M442.29 42.71H462.49V22.51C462.49 18.5148 461.305 14.6093 459.086 11.2875C456.866 7.9656 453.711 5.37651 450.02 3.84762C446.329 2.31873 442.267 1.91873 438.349 2.69815C434.431 3.47757 430.831 5.40142 428.006 8.22644C425.181 11.0515 423.257 14.6508 422.478 18.5692C421.699 22.4876 422.099 26.5491 423.628 30.2402C425.156 33.9313 427.745 37.0861 431.067 39.3057C434.389 41.5253 438.295 42.71 442.29 42.71V42.71Z" stroke="#757576" stroke-miterlimit="10"/>
<path d="M462.49 175.74V155.54H442.29C438.295 155.54 434.389 156.725 431.067 158.944C427.745 161.164 425.156 164.319 423.628 168.01C422.099 171.701 421.699 175.762 422.478 179.681C423.257 183.599 425.181 187.199 428.006 190.024C430.831 192.849 434.431 194.772 438.349 195.552C442.267 196.331 446.329 195.931 450.02 194.402C453.711 192.873 456.866 190.284 459.086 186.962C461.305 183.641 462.49 179.735 462.49 175.74V175.74Z" stroke="#757576" stroke-miterlimit="10"/>
<path d="M442.29 119.32H462.49V78.9299H442.29C437.012 79.0474 431.989 81.2267 428.298 85.0012C424.607 88.7757 422.54 93.8454 422.54 99.1249C422.54 104.404 424.607 109.474 428.298 113.249C431.989 117.023 437.012 119.202 442.29 119.32V119.32Z" stroke="#757576" stroke-miterlimit="10"/>
<path d="M220.97 151.04H139.32V195.94C155.609 195.93 171.631 191.81 185.903 183.961C200.176 176.112 212.237 164.789 220.97 151.04Z" stroke="#757576" stroke-miterlimit="10"/>
<path d="M101.55 198.8L98.7401 183.21C103.147 181.877 105.353 178.51 105.36 173.11C105.36 168.89 104.23 166.78 101.99 166.78C101.446 166.764 100.907 166.89 100.426 167.146C99.9458 167.402 99.5403 167.779 99.2501 168.24C98.3607 169.865 97.7713 171.636 97.5101 173.47C95.6567 183.057 93.2534 189.217 90.3001 191.95C87.4706 194.615 83.7169 196.078 79.8301 196.03C77.3826 196.075 74.956 195.572 72.7288 194.556C70.5015 193.54 68.5303 192.038 66.9601 190.16C63.5401 186.247 61.8301 180.617 61.8301 173.27C61.8301 162.13 66.3067 154.77 75.2601 151.19L79.4701 165.09C75.8101 166.53 73.9801 169.457 73.9801 173.87C73.9801 177.53 75.1134 179.36 77.3801 179.36C77.8486 179.376 78.3133 179.27 78.7287 179.053C79.1441 178.835 79.496 178.514 79.7501 178.12C80.5466 176.617 81.0874 174.991 81.3501 173.31C82.2437 168.596 83.4701 163.951 85.0201 159.41C86.1181 156.621 88.0225 154.222 90.4901 152.52C93.1588 150.653 96.3538 149.686 99.6101 149.76C102.224 149.697 104.815 150.269 107.159 151.427C109.504 152.585 111.532 154.295 113.07 156.41C116.503 160.91 118.22 166.81 118.22 174.11C118.22 187.437 112.663 195.667 101.55 198.8Z" stroke="#757576" stroke-miterlimit="10"/>
<path d="M75.7802 117.41H117.38V133.32H75.7802V144.67H62.6802V106.07H75.7802V117.41Z" stroke="#757576" stroke-miterlimit="10"/>
<path d="M104.32 55.9299H117.38V97.0899H62.6802V55.9299H75.3002V80.6199H83.2202V60.6199H95.3702V80.6199H104.31L104.32 55.9299Z" stroke="#757576" stroke-miterlimit="10"/>
<path d="M97.5002 30H117.38V47H62.6802V23.66C62.6802 17.84 63.3468 13.4133 64.6802 10.38C65.9539 7.41344 68.0896 4.89804 70.8102 3.15996C73.57 1.3861 76.7897 0.461208 80.0702 0.499958C82.4465 0.413506 84.8123 0.857829 86.9953 1.80059C89.1783 2.74334 91.1238 4.16084 92.6902 5.94997C95.9035 9.57664 97.5068 14.4266 97.5002 20.5V30ZM85.7602 30.2399V24.63C85.7602 19.6766 83.9435 17.2033 80.3102 17.2099C76.8902 17.2099 75.1802 19.5 75.1802 24.06V30.2399H85.7602Z" stroke="#757576" stroke-miterlimit="10"/>
<path d="M247.3 21.51C247.3 21.64 247.3 21.76 247.3 21.89V175.67C247.3 181.046 249.436 186.202 253.237 190.003C257.039 193.804 262.194 195.94 267.57 195.94C272.946 195.94 278.102 193.804 281.903 190.003C285.705 186.202 287.84 181.046 287.84 175.67V82.12L251.42 34.12C248.663 30.5022 247.211 26.0579 247.3 21.51V21.51Z" stroke="#757576" stroke-miterlimit="10"/>
<path d="M404.55 176.41V22.59C404.55 17.2141 402.415 12.0583 398.613 8.25696C394.812 4.4556 389.656 2.32001 384.28 2.32001C378.904 2.32001 373.749 4.4556 369.947 8.25696C366.146 12.0583 364.01 17.2141 364.01 22.59V115.41L400.43 163.41" stroke="#757576" stroke-miterlimit="10"/>
<path d="M364.01 115.41L283.69 9.62997C283.62 9.52997 283.53 9.44998 283.46 9.34998C286.285 12.919 287.822 17.338 287.82 21.89V82.12L366.04 185.12C364.715 182.376 364.031 179.367 364.04 176.32L364.01 115.41Z" stroke="#757576" stroke-miterlimit="10"/>
<path d="M283.46 9.34997C283.22 9.05997 282.98 8.76996 282.73 8.48996C282.48 8.20996 282.32 8.01998 282.1 7.79998C281.88 7.57998 281.64 7.33996 281.41 7.11996C281.18 6.89996 280.9 6.63998 280.63 6.41998C280.36 6.19998 280.18 6.04997 279.95 5.87997C279.72 5.70997 279.37 5.42997 279.06 5.21997C278.75 5.00997 278.57 4.89996 278.32 4.73996C278.07 4.57996 277.73 4.35997 277.41 4.18997C277.09 4.01997 276.84 3.88996 276.55 3.73996L275.69 3.32998C275.35 3.17998 275.01 3.05996 274.69 2.92996L273.88 2.63998C273.53 2.51998 273.16 2.41998 272.8 2.32998C272.44 2.23998 272.26 2.17996 271.98 2.11996C271.7 2.05996 271.28 1.97998 270.93 1.91998C270.58 1.85998 270.3 1.80997 269.98 1.77997C269.66 1.74997 269.35 1.71997 269.04 1.68997C268.73 1.65997 268.3 1.68997 267.93 1.68997H267.06C266.67 1.68997 266.28 1.68997 265.9 1.74997L265.04 1.83996C264.67 1.88996 264.3 1.93998 263.94 2.00998L263.04 2.18997L262.04 2.44998C261.73 2.53998 261.42 2.62996 261.11 2.73996C260.8 2.84996 260.49 2.95998 260.18 3.07998C259.87 3.19998 259.55 3.32997 259.24 3.46997L258.39 3.87997C258.07 4.03997 257.75 4.21996 257.44 4.39996C257.13 4.57996 256.92 4.69998 256.67 4.85998L255.73 5.49997C255.49 5.67997 255.25 5.84998 255.02 6.03998C254.79 6.22998 254.46 6.49996 254.19 6.73996C253.92 6.97996 253.7 7.16998 253.47 7.38998C253.24 7.60998 253.03 7.83997 252.81 8.06997C252.59 8.29997 252.32 8.58998 252.09 8.85998C251.86 9.12998 251.74 9.29997 251.57 9.52997C251.4 9.75997 251.11 10.12 250.89 10.43C250.67 10.74 250.58 10.91 250.43 11.15C250.28 11.39 250.04 11.76 249.87 12.07C249.7 12.38 249.57 12.65 249.43 12.94C249.29 13.23 249.14 13.51 249.01 13.8C248.88 14.09 248.74 14.47 248.61 14.8C248.48 15.13 248.41 15.33 248.32 15.6C248.23 15.87 248.1 16.33 248.01 16.69C247.92 17.05 247.86 17.23 247.8 17.51C247.74 17.79 247.66 18.21 247.6 18.56C247.54 18.91 247.49 19.18 247.46 19.5C247.43 19.82 247.4 20.14 247.37 20.5C247.34 20.86 247.32 21.22 247.32 21.59C247.221 26.1423 248.666 30.5941 251.42 34.22L287.84 82.22V21.89C287.836 17.3356 286.293 12.9163 283.46 9.34997V9.34997Z" stroke="#757576" stroke-miterlimit="10"/>
<path d="M442.29 155.54H462.49V119.32H442.29C436.935 119.32 431.8 117.193 428.014 113.406C424.227 109.62 422.1 104.485 422.1 99.13V175.74C422.099 173.088 422.62 170.461 423.634 168.011C424.648 165.56 426.135 163.333 428.01 161.457C429.885 159.581 432.111 158.093 434.561 157.078C437.012 156.063 439.638 155.54 442.29 155.54V155.54Z" stroke="#757576" stroke-miterlimit="10"/>
<path d="M442.29 78.93H462.49V42.71H442.29C439.638 42.71 437.012 42.1874 434.561 41.1722C432.111 40.1569 429.885 38.6688 428.01 36.793C426.135 34.9171 424.648 32.6902 423.634 30.2394C422.62 27.7887 422.099 25.1622 422.1 22.51V99.13C422.099 96.4778 422.62 93.8513 423.634 91.4005C424.648 88.9498 426.135 86.7229 428.01 84.847C429.885 82.9712 432.111 81.4831 434.561 80.4678C437.012 79.4526 439.638 78.93 442.29 78.93V78.93Z" stroke="#757576" stroke-miterlimit="10"/>
<path d="M462.49 22.51V42.71H538.41C543.767 42.71 548.905 40.5818 552.694 36.7935C556.482 33.0053 558.61 27.8674 558.61 22.51C558.61 17.1526 556.482 12.0147 552.694 8.22644C548.905 4.43821 543.767 2.31 538.41 2.31H442.29C447.647 2.31 452.785 4.43821 456.574 8.22644C460.362 12.0147 462.49 17.1526 462.49 22.51Z" stroke="#757576" stroke-miterlimit="10"/>
<path d="M538.41 155.54H462.49V175.74C462.49 181.097 460.362 186.235 456.574 190.024C452.785 193.812 447.647 195.94 442.29 195.94H538.41C543.767 195.94 548.905 193.812 552.694 190.024C556.482 186.235 558.61 181.097 558.61 175.74C558.61 170.383 556.482 165.245 552.694 161.456C548.905 157.668 543.767 155.54 538.41 155.54V155.54Z" stroke="#757576" stroke-miterlimit="10"/>
<path d="M527.27 119.32C532.548 119.202 537.571 117.023 541.262 113.249C544.954 109.474 547.021 104.404 547.021 99.1249C547.021 93.8454 544.954 88.7757 541.262 85.0012C537.571 81.2267 532.548 79.0474 527.27 78.9299H462.49V119.32H527.27Z" stroke="#757576" stroke-miterlimit="10"/>
<path d="M236.13 99.13C236.15 80.7291 230.888 62.7092 220.97 47.21H139.32C146.199 47.1145 153.027 48.3868 159.409 50.9529C165.792 53.5191 171.6 57.3279 176.498 62.1581C181.396 66.9883 185.285 72.7437 187.939 79.0897C190.594 85.4358 191.961 92.2461 191.961 99.125C191.961 106.004 190.594 112.814 187.939 119.16C185.285 125.506 181.396 131.262 176.498 136.092C171.6 140.922 165.792 144.731 159.409 147.297C153.027 149.863 146.199 151.135 139.32 151.04H220.97C230.887 135.544 236.148 117.527 236.13 99.13V99.13Z" stroke="#757576" stroke-miterlimit="10"/>
<path d="M139.32 2.31V47.21H220.97C212.237 33.4608 200.176 22.1376 185.903 14.289C171.631 6.4404 155.609 2.3202 139.32 2.31V2.31Z" stroke="#757576" stroke-miterlimit="10"/>
</g>
<defs>
<clipPath id="clip0_256:118">
<rect width="620.43" height="256.28" fill="white"/>
</clipPath>
</defs>
</svg>
