<svg width="761" height="164" viewBox="0 0 761 164" fill="none" xmlns="http://www.w3.org/2000/svg">
<path d="M0 37.5C0 16.7893 16.7893 0 37.5 0C58.2107 0 75 16.7893 75 37.5V67C75 71.4183 71.4183 75 67 75H37.5C16.7893 75 0 58.2107 0 37.5Z" fill="#E23D7C"/>
<path d="M127.5 -1.63918e-06C148.211 -7.33885e-07 165 16.7893 165 37.5C165 58.2107 148.211 75 127.5 75L98 75C93.5817 75 90 71.4183 90 67L90 37.5C90 16.7893 106.789 -2.54447e-06 127.5 -1.63918e-06Z" fill="#7A263C"/>
<path d="M92.688 104C92.478 104 92.303 103.937 92.163 103.811C92.037 103.685 91.974 103.538 91.974 103.37V89.93C91.974 89.762 92.037 89.615 92.163 89.489C92.289 89.363 92.436 89.3 92.604 89.3H98.274C99.072 89.3 99.786 89.475 100.416 89.825C101.046 90.161 101.536 90.63 101.886 91.232C102.25 91.834 102.432 92.513 102.432 93.269C102.432 93.885 102.32 94.452 102.096 94.97C101.872 95.488 101.557 95.929 101.151 96.293C100.745 96.643 100.29 96.902 99.786 97.07L99.051 96.839C99.569 96.881 100.052 97.049 100.5 97.343C100.948 97.623 101.305 98.015 101.571 98.519C101.851 99.009 101.998 99.604 102.012 100.304C102.026 100.906 102.054 101.375 102.096 101.711C102.152 102.047 102.229 102.299 102.327 102.467C102.425 102.635 102.551 102.768 102.705 102.866C102.845 102.95 102.936 103.069 102.978 103.223C103.034 103.377 103.02 103.524 102.936 103.664C102.88 103.776 102.796 103.86 102.684 103.916C102.586 103.958 102.481 103.979 102.369 103.979C102.257 103.979 102.145 103.951 102.033 103.895C101.837 103.783 101.634 103.608 101.424 103.37C101.228 103.132 101.06 102.782 100.92 102.32C100.794 101.858 100.731 101.214 100.731 100.388C100.731 99.842 100.64 99.394 100.458 99.044C100.29 98.694 100.066 98.428 99.786 98.246C99.52 98.05 99.219 97.917 98.883 97.847C98.561 97.763 98.253 97.721 97.959 97.721H93.066L93.297 97.427V103.37C93.297 103.538 93.241 103.685 93.129 103.811C93.017 103.937 92.87 104 92.688 104ZM93.066 96.566H98.337C98.813 96.524 99.261 96.37 99.681 96.104C100.101 95.824 100.437 95.446 100.689 94.97C100.955 94.494 101.088 93.941 101.088 93.311C101.088 92.513 100.815 91.855 100.269 91.337C99.737 90.805 99.037 90.539 98.169 90.539H93.15L93.297 90.245V96.86L93.066 96.566ZM106.672 89.3H114.379C114.547 89.3 114.694 89.363 114.82 89.489C114.946 89.601 115.009 89.748 115.009 89.93C115.009 90.112 114.946 90.259 114.82 90.371C114.694 90.483 114.547 90.539 114.379 90.539H107.155L107.365 90.182V96.083L107.134 95.81H113.434C113.602 95.81 113.749 95.873 113.875 95.999C114.001 96.125 114.064 96.272 114.064 96.44C114.064 96.622 114.001 96.769 113.875 96.881C113.749 96.993 113.602 97.049 113.434 97.049H107.176L107.365 96.839V102.887L107.26 102.761H114.379C114.547 102.761 114.694 102.824 114.82 102.95C114.946 103.076 115.009 103.223 115.009 103.391C115.009 103.573 114.946 103.72 114.82 103.832C114.694 103.944 114.547 104 114.379 104H106.672C106.504 104 106.357 103.937 106.231 103.811C106.105 103.685 106.042 103.538 106.042 103.37V89.93C106.042 89.762 106.105 89.615 106.231 89.489C106.357 89.363 106.504 89.3 106.672 89.3ZM123.963 89.3C124.999 89.3 125.902 89.496 126.672 89.888C127.456 90.28 128.1 90.826 128.604 91.526C129.108 92.212 129.479 92.996 129.717 93.878C129.969 94.76 130.095 95.684 130.095 96.65C130.095 97.994 129.871 99.226 129.423 100.346C128.989 101.452 128.317 102.341 127.407 103.013C126.511 103.671 125.363 104 123.963 104H118.608C118.44 104 118.293 103.937 118.167 103.811C118.041 103.685 117.978 103.538 117.978 103.37V89.93C117.978 89.762 118.041 89.615 118.167 89.489C118.293 89.363 118.44 89.3 118.608 89.3H123.963ZM123.753 102.761C124.943 102.761 125.902 102.488 126.63 101.942C127.358 101.396 127.89 100.661 128.226 99.737C128.576 98.799 128.751 97.77 128.751 96.65C128.751 95.838 128.653 95.068 128.457 94.34C128.275 93.598 127.981 92.947 127.575 92.387C127.183 91.813 126.665 91.365 126.021 91.043C125.391 90.707 124.635 90.539 123.753 90.539H119.154L119.301 90.35V102.971L119.175 102.761H123.753ZM97.581 115.3C98.365 115.3 99.058 115.482 99.66 115.846C100.262 116.196 100.738 116.686 101.088 117.316C101.438 117.946 101.613 118.667 101.613 119.479C101.613 120.291 101.438 121.026 101.088 121.684C100.738 122.328 100.262 122.839 99.66 123.217C99.058 123.595 98.365 123.784 97.581 123.784H93.129L93.234 123.574V129.37C93.234 129.538 93.171 129.685 93.045 129.811C92.919 129.937 92.772 130 92.604 130C92.408 130 92.254 129.937 92.142 129.811C92.03 129.685 91.974 129.538 91.974 129.37V115.93C91.974 115.762 92.037 115.615 92.163 115.489C92.289 115.363 92.436 115.3 92.604 115.3H97.581ZM97.581 122.566C98.127 122.566 98.603 122.433 99.009 122.167C99.415 121.887 99.73 121.516 99.954 121.054C100.192 120.578 100.311 120.053 100.311 119.479C100.311 118.905 100.192 118.401 99.954 117.967C99.73 117.519 99.415 117.169 99.009 116.917C98.603 116.665 98.127 116.539 97.581 116.539H93.129L93.234 116.35V122.692L93.108 122.566H97.581ZM108.557 116.917L103.454 129.601C103.398 129.741 103.321 129.846 103.223 129.916C103.125 129.986 103.013 130.021 102.887 130.021C102.691 130.021 102.544 129.972 102.446 129.874C102.348 129.762 102.292 129.629 102.278 129.475C102.264 129.405 102.271 129.321 102.299 129.223L107.843 115.657C107.913 115.503 107.997 115.398 108.095 115.342C108.207 115.272 108.333 115.237 108.473 115.237C108.613 115.237 108.732 115.279 108.83 115.363C108.942 115.433 109.026 115.531 109.082 115.657L114.605 129.16C114.633 129.244 114.647 129.328 114.647 129.412C114.647 129.608 114.584 129.762 114.458 129.874C114.332 129.972 114.185 130.021 114.017 130.021C113.877 130.021 113.751 129.986 113.639 129.916C113.541 129.832 113.464 129.727 113.408 129.601L108.179 116.833L108.557 116.917ZM104.672 125.758L105.197 124.519H111.707L111.959 125.758H104.672ZM125.367 128.761C125.535 128.761 125.682 128.824 125.808 128.95C125.934 129.062 125.997 129.202 125.997 129.37C125.997 129.552 125.934 129.706 125.808 129.832C125.682 129.944 125.535 130 125.367 130H117.87C117.688 130 117.534 129.937 117.408 129.811C117.296 129.685 117.24 129.538 117.24 129.37V115.93C117.24 115.762 117.303 115.615 117.429 115.489C117.555 115.363 117.716 115.3 117.912 115.3C118.08 115.3 118.227 115.363 118.353 115.489C118.493 115.615 118.563 115.762 118.563 115.93V129.118L118.164 128.761H125.367ZM129.046 115.3H136.753C136.921 115.3 137.068 115.363 137.194 115.489C137.32 115.601 137.383 115.748 137.383 115.93C137.383 116.112 137.32 116.259 137.194 116.371C137.068 116.483 136.921 116.539 136.753 116.539H129.529L129.739 116.182V122.083L129.508 121.81H135.808C135.976 121.81 136.123 121.873 136.249 121.999C136.375 122.125 136.438 122.272 136.438 122.44C136.438 122.622 136.375 122.769 136.249 122.881C136.123 122.993 135.976 123.049 135.808 123.049H129.55L129.739 122.839V128.887L129.634 128.761H136.753C136.921 128.761 137.068 128.824 137.194 128.95C137.32 129.076 137.383 129.223 137.383 129.391C137.383 129.573 137.32 129.72 137.194 129.832C137.068 129.944 136.921 130 136.753 130H129.046C128.878 130 128.731 129.937 128.605 129.811C128.479 129.685 128.416 129.538 128.416 129.37V115.93C128.416 115.762 128.479 115.615 128.605 115.489C128.731 115.363 128.878 115.3 129.046 115.3ZM144.72 130C144.524 130 144.363 129.937 144.237 129.811C144.125 129.685 144.069 129.538 144.069 129.37V115.993H145.371V129.37C145.371 129.538 145.308 129.685 145.182 129.811C145.056 129.937 144.902 130 144.72 130ZM139.722 116.497C139.554 116.497 139.407 116.441 139.281 116.329C139.155 116.217 139.092 116.07 139.092 115.888C139.092 115.72 139.155 115.58 139.281 115.468C139.407 115.356 139.554 115.3 139.722 115.3H149.718C149.886 115.3 150.033 115.356 150.159 115.468C150.285 115.58 150.348 115.727 150.348 115.909C150.348 116.091 150.285 116.238 150.159 116.35C150.033 116.448 149.886 116.497 149.718 116.497H139.722ZM158.03 130C157.834 130 157.673 129.937 157.547 129.811C157.435 129.685 157.379 129.538 157.379 129.37V115.993H158.681V129.37C158.681 129.538 158.618 129.685 158.492 129.811C158.366 129.937 158.212 130 158.03 130ZM153.032 116.497C152.864 116.497 152.717 116.441 152.591 116.329C152.465 116.217 152.402 116.07 152.402 115.888C152.402 115.72 152.465 115.58 152.591 115.468C152.717 115.356 152.864 115.3 153.032 115.3H163.028C163.196 115.3 163.343 115.356 163.469 115.468C163.595 115.58 163.658 115.727 163.658 115.909C163.658 116.091 163.595 116.238 163.469 116.35C163.343 116.448 163.196 116.497 163.028 116.497H153.032ZM166.965 115.3H174.672C174.84 115.3 174.987 115.363 175.113 115.489C175.239 115.601 175.302 115.748 175.302 115.93C175.302 116.112 175.239 116.259 175.113 116.371C174.987 116.483 174.84 116.539 174.672 116.539H167.448L167.658 116.182V122.083L167.427 121.81H173.727C173.895 121.81 174.042 121.873 174.168 121.999C174.294 122.125 174.357 122.272 174.357 122.44C174.357 122.622 174.294 122.769 174.168 122.881C174.042 122.993 173.895 123.049 173.727 123.049H167.469L167.658 122.839V128.887L167.553 128.761H174.672C174.84 128.761 174.987 128.824 175.113 128.95C175.239 129.076 175.302 129.223 175.302 129.391C175.302 129.573 175.239 129.72 175.113 129.832C174.987 129.944 174.84 130 174.672 130H166.965C166.797 130 166.65 129.937 166.524 129.811C166.398 129.685 166.335 129.538 166.335 129.37V115.93C166.335 115.762 166.398 115.615 166.524 115.489C166.65 115.363 166.797 115.3 166.965 115.3Z" fill="#E23D7C"/>
<path d="M37.5 164C16.7893 164 -7.33885e-07 147.211 -1.63918e-06 126.5C-2.54447e-06 105.789 16.7893 89 37.5 89L67 89C71.4183 89 75 92.5817 75 97L75 126.5C75 147.211 58.2107 164 37.5 164Z" fill="#4B0009"/>
<path fill-rule="evenodd" clip-rule="evenodd" d="M123 75H98C93.5817 75 90 71.4182 90 67V42H112C118.075 42 123 46.9248 123 53V75Z" fill="#C65472"/>
<path fill-rule="evenodd" clip-rule="evenodd" d="M75 122H54C47.9249 122 43 117.075 43 111V89H67C71.4183 89 75 92.5818 75 97V122Z" fill="#7A263C"/>
<path d="M270 37.5C270 16.7893 286.789 0 307.5 0C328.211 0 345 16.7893 345 37.5V67C345 71.4183 341.418 75 337 75H307.5C286.789 75 270 58.2107 270 37.5Z" fill="#AC3EC3"/>
<path d="M397.5 -1.63918e-06C418.211 -7.33885e-07 435 16.7893 435 37.5C435 58.2107 418.211 75 397.5 75L368 75C363.582 75 360 71.4183 360 67L360 37.5C360 16.7893 376.789 -2.54447e-06 397.5 -1.63918e-06Z" fill="#672A69"/>
<path d="M307.5 164C286.789 164 270 147.211 270 126.5C270 105.789 286.789 89 307.5 89L337 89C341.418 89 345 92.5817 345 97L345 126.5C345 147.211 328.211 164 307.5 164Z" fill="#370C53"/>
<path d="M367.581 89.3C368.365 89.3 369.058 89.482 369.66 89.846C370.262 90.196 370.738 90.686 371.088 91.316C371.438 91.946 371.613 92.667 371.613 93.479C371.613 94.291 371.438 95.026 371.088 95.684C370.738 96.328 370.262 96.839 369.66 97.217C369.058 97.595 368.365 97.784 367.581 97.784H363.129L363.234 97.574V103.37C363.234 103.538 363.171 103.685 363.045 103.811C362.919 103.937 362.772 104 362.604 104C362.408 104 362.254 103.937 362.142 103.811C362.03 103.685 361.974 103.538 361.974 103.37V89.93C361.974 89.762 362.037 89.615 362.163 89.489C362.289 89.363 362.436 89.3 362.604 89.3H367.581ZM367.581 96.566C368.127 96.566 368.603 96.433 369.009 96.167C369.415 95.887 369.73 95.516 369.954 95.054C370.192 94.578 370.311 94.053 370.311 93.479C370.311 92.905 370.192 92.401 369.954 91.967C369.73 91.519 369.415 91.169 369.009 90.917C368.603 90.665 368.127 90.539 367.581 90.539H363.129L363.234 90.35V96.692L363.108 96.566H367.581ZM384.879 89.3C385.075 89.3 385.229 89.363 385.341 89.489C385.453 89.601 385.509 89.748 385.509 89.93V98.624C385.509 99.66 385.264 100.598 384.774 101.438C384.284 102.278 383.626 102.95 382.8 103.454C381.974 103.944 381.043 104.189 380.007 104.189C378.971 104.189 378.033 103.944 377.193 103.454C376.367 102.95 375.709 102.278 375.219 101.438C374.729 100.598 374.484 99.66 374.484 98.624V89.93C374.484 89.748 374.54 89.601 374.652 89.489C374.778 89.363 374.946 89.3 375.156 89.3C375.324 89.3 375.471 89.363 375.597 89.489C375.723 89.601 375.786 89.748 375.786 89.93V98.624C375.786 99.436 375.975 100.164 376.353 100.808C376.745 101.452 377.263 101.97 377.907 102.362C378.551 102.74 379.251 102.929 380.007 102.929C380.791 102.929 381.505 102.74 382.149 102.362C382.793 101.97 383.304 101.452 383.682 100.808C384.074 100.164 384.27 99.436 384.27 98.624V89.93C384.27 89.748 384.326 89.601 384.438 89.489C384.55 89.363 384.697 89.3 384.879 89.3ZM390.168 104C389.958 104 389.783 103.937 389.643 103.811C389.517 103.685 389.454 103.538 389.454 103.37V89.93C389.454 89.762 389.517 89.615 389.643 89.489C389.769 89.363 389.916 89.3 390.084 89.3H395.754C396.552 89.3 397.266 89.475 397.896 89.825C398.526 90.161 399.016 90.63 399.366 91.232C399.73 91.834 399.912 92.513 399.912 93.269C399.912 93.885 399.8 94.452 399.576 94.97C399.352 95.488 399.037 95.929 398.631 96.293C398.225 96.643 397.77 96.902 397.266 97.07L396.531 96.839C397.049 96.881 397.532 97.049 397.98 97.343C398.428 97.623 398.785 98.015 399.051 98.519C399.331 99.009 399.478 99.604 399.492 100.304C399.506 100.906 399.534 101.375 399.576 101.711C399.632 102.047 399.709 102.299 399.807 102.467C399.905 102.635 400.031 102.768 400.185 102.866C400.325 102.95 400.416 103.069 400.458 103.223C400.514 103.377 400.5 103.524 400.416 103.664C400.36 103.776 400.276 103.86 400.164 103.916C400.066 103.958 399.961 103.979 399.849 103.979C399.737 103.979 399.625 103.951 399.513 103.895C399.317 103.783 399.114 103.608 398.904 103.37C398.708 103.132 398.54 102.782 398.4 102.32C398.274 101.858 398.211 101.214 398.211 100.388C398.211 99.842 398.12 99.394 397.938 99.044C397.77 98.694 397.546 98.428 397.266 98.246C397 98.05 396.699 97.917 396.363 97.847C396.041 97.763 395.733 97.721 395.439 97.721H390.546L390.777 97.427V103.37C390.777 103.538 390.721 103.685 390.609 103.811C390.497 103.937 390.35 104 390.168 104ZM390.546 96.566H395.817C396.293 96.524 396.741 96.37 397.161 96.104C397.581 95.824 397.917 95.446 398.169 94.97C398.435 94.494 398.568 93.941 398.568 93.311C398.568 92.513 398.295 91.855 397.749 91.337C397.217 90.805 396.517 90.539 395.649 90.539H390.63L390.777 90.245V96.86L390.546 96.566ZM409.13 89.3C409.914 89.3 410.607 89.482 411.209 89.846C411.811 90.196 412.287 90.686 412.637 91.316C412.987 91.946 413.162 92.667 413.162 93.479C413.162 94.291 412.987 95.026 412.637 95.684C412.287 96.328 411.811 96.839 411.209 97.217C410.607 97.595 409.914 97.784 409.13 97.784H404.678L404.783 97.574V103.37C404.783 103.538 404.72 103.685 404.594 103.811C404.468 103.937 404.321 104 404.153 104C403.957 104 403.803 103.937 403.691 103.811C403.579 103.685 403.523 103.538 403.523 103.37V89.93C403.523 89.762 403.586 89.615 403.712 89.489C403.838 89.363 403.985 89.3 404.153 89.3H409.13ZM409.13 96.566C409.676 96.566 410.152 96.433 410.558 96.167C410.964 95.887 411.279 95.516 411.503 95.054C411.741 94.578 411.86 94.053 411.86 93.479C411.86 92.905 411.741 92.401 411.503 91.967C411.279 91.519 410.964 91.169 410.558 90.917C410.152 90.665 409.676 90.539 409.13 90.539H404.678L404.783 90.35V96.692L404.657 96.566H409.13ZM424.16 102.761C424.328 102.761 424.475 102.824 424.601 102.95C424.727 103.062 424.79 103.202 424.79 103.37C424.79 103.552 424.727 103.706 424.601 103.832C424.475 103.944 424.328 104 424.16 104H416.663C416.481 104 416.327 103.937 416.201 103.811C416.089 103.685 416.033 103.538 416.033 103.37V89.93C416.033 89.762 416.096 89.615 416.222 89.489C416.348 89.363 416.509 89.3 416.705 89.3C416.873 89.3 417.02 89.363 417.146 89.489C417.286 89.615 417.356 89.762 417.356 89.93V103.118L416.957 102.761H424.16ZM427.839 89.3H435.546C435.714 89.3 435.861 89.363 435.987 89.489C436.113 89.601 436.176 89.748 436.176 89.93C436.176 90.112 436.113 90.259 435.987 90.371C435.861 90.483 435.714 90.539 435.546 90.539H428.322L428.532 90.182V96.083L428.301 95.81H434.601C434.769 95.81 434.916 95.873 435.042 95.999C435.168 96.125 435.231 96.272 435.231 96.44C435.231 96.622 435.168 96.769 435.042 96.881C434.916 96.993 434.769 97.049 434.601 97.049H428.343L428.532 96.839V102.887L428.427 102.761H435.546C435.714 102.761 435.861 102.824 435.987 102.95C436.113 103.076 436.176 103.223 436.176 103.391C436.176 103.573 436.113 103.72 435.987 103.832C435.861 103.944 435.714 104 435.546 104H427.839C427.671 104 427.524 103.937 427.398 103.811C427.272 103.685 427.209 103.538 427.209 103.37V89.93C427.209 89.762 427.272 89.615 427.398 89.489C427.524 89.363 427.671 89.3 427.839 89.3ZM367.581 115.3C368.365 115.3 369.058 115.482 369.66 115.846C370.262 116.196 370.738 116.686 371.088 117.316C371.438 117.946 371.613 118.667 371.613 119.479C371.613 120.291 371.438 121.026 371.088 121.684C370.738 122.328 370.262 122.839 369.66 123.217C369.058 123.595 368.365 123.784 367.581 123.784H363.129L363.234 123.574V129.37C363.234 129.538 363.171 129.685 363.045 129.811C362.919 129.937 362.772 130 362.604 130C362.408 130 362.254 129.937 362.142 129.811C362.03 129.685 361.974 129.538 361.974 129.37V115.93C361.974 115.762 362.037 115.615 362.163 115.489C362.289 115.363 362.436 115.3 362.604 115.3H367.581ZM367.581 122.566C368.127 122.566 368.603 122.433 369.009 122.167C369.415 121.887 369.73 121.516 369.954 121.054C370.192 120.578 370.311 120.053 370.311 119.479C370.311 118.905 370.192 118.401 369.954 117.967C369.73 117.519 369.415 117.169 369.009 116.917C368.603 116.665 368.127 116.539 367.581 116.539H363.129L363.234 116.35V122.692L363.108 122.566H367.581ZM378.557 116.917L373.454 129.601C373.398 129.741 373.321 129.846 373.223 129.916C373.125 129.986 373.013 130.021 372.887 130.021C372.691 130.021 372.544 129.972 372.446 129.874C372.348 129.762 372.292 129.629 372.278 129.475C372.264 129.405 372.271 129.321 372.299 129.223L377.843 115.657C377.913 115.503 377.997 115.398 378.095 115.342C378.207 115.272 378.333 115.237 378.473 115.237C378.613 115.237 378.732 115.279 378.83 115.363C378.942 115.433 379.026 115.531 379.082 115.657L384.605 129.16C384.633 129.244 384.647 129.328 384.647 129.412C384.647 129.608 384.584 129.762 384.458 129.874C384.332 129.972 384.185 130.021 384.017 130.021C383.877 130.021 383.751 129.986 383.639 129.916C383.541 129.832 383.464 129.727 383.408 129.601L378.179 116.833L378.557 116.917ZM374.672 125.758L375.197 124.519H381.707L381.959 125.758H374.672ZM395.367 128.761C395.535 128.761 395.682 128.824 395.808 128.95C395.934 129.062 395.997 129.202 395.997 129.37C395.997 129.552 395.934 129.706 395.808 129.832C395.682 129.944 395.535 130 395.367 130H387.87C387.688 130 387.534 129.937 387.408 129.811C387.296 129.685 387.24 129.538 387.24 129.37V115.93C387.24 115.762 387.303 115.615 387.429 115.489C387.555 115.363 387.716 115.3 387.912 115.3C388.08 115.3 388.227 115.363 388.353 115.489C388.493 115.615 388.563 115.762 388.563 115.93V129.118L388.164 128.761H395.367ZM399.046 115.3H406.753C406.921 115.3 407.068 115.363 407.194 115.489C407.32 115.601 407.383 115.748 407.383 115.93C407.383 116.112 407.32 116.259 407.194 116.371C407.068 116.483 406.921 116.539 406.753 116.539H399.529L399.739 116.182V122.083L399.508 121.81H405.808C405.976 121.81 406.123 121.873 406.249 121.999C406.375 122.125 406.438 122.272 406.438 122.44C406.438 122.622 406.375 122.769 406.249 122.881C406.123 122.993 405.976 123.049 405.808 123.049H399.55L399.739 122.839V128.887L399.634 128.761H406.753C406.921 128.761 407.068 128.824 407.194 128.95C407.32 129.076 407.383 129.223 407.383 129.391C407.383 129.573 407.32 129.72 407.194 129.832C407.068 129.944 406.921 130 406.753 130H399.046C398.878 130 398.731 129.937 398.605 129.811C398.479 129.685 398.416 129.538 398.416 129.37V115.93C398.416 115.762 398.479 115.615 398.605 115.489C398.731 115.363 398.878 115.3 399.046 115.3ZM414.72 130C414.524 130 414.363 129.937 414.237 129.811C414.125 129.685 414.069 129.538 414.069 129.37V115.993H415.371V129.37C415.371 129.538 415.308 129.685 415.182 129.811C415.056 129.937 414.902 130 414.72 130ZM409.722 116.497C409.554 116.497 409.407 116.441 409.281 116.329C409.155 116.217 409.092 116.07 409.092 115.888C409.092 115.72 409.155 115.58 409.281 115.468C409.407 115.356 409.554 115.3 409.722 115.3H419.718C419.886 115.3 420.033 115.356 420.159 115.468C420.285 115.58 420.348 115.727 420.348 115.909C420.348 116.091 420.285 116.238 420.159 116.35C420.033 116.448 419.886 116.497 419.718 116.497H409.722ZM428.03 130C427.834 130 427.673 129.937 427.547 129.811C427.435 129.685 427.379 129.538 427.379 129.37V115.993H428.681V129.37C428.681 129.538 428.618 129.685 428.492 129.811C428.366 129.937 428.212 130 428.03 130ZM423.032 116.497C422.864 116.497 422.717 116.441 422.591 116.329C422.465 116.217 422.402 116.07 422.402 115.888C422.402 115.72 422.465 115.58 422.591 115.468C422.717 115.356 422.864 115.3 423.032 115.3H433.028C433.196 115.3 433.343 115.356 433.469 115.468C433.595 115.58 433.658 115.727 433.658 115.909C433.658 116.091 433.595 116.238 433.469 116.35C433.343 116.448 433.196 116.497 433.028 116.497H423.032ZM436.965 115.3H444.672C444.84 115.3 444.987 115.363 445.113 115.489C445.239 115.601 445.302 115.748 445.302 115.93C445.302 116.112 445.239 116.259 445.113 116.371C444.987 116.483 444.84 116.539 444.672 116.539H437.448L437.658 116.182V122.083L437.427 121.81H443.727C443.895 121.81 444.042 121.873 444.168 121.999C444.294 122.125 444.357 122.272 444.357 122.44C444.357 122.622 444.294 122.769 444.168 122.881C444.042 122.993 443.895 123.049 443.727 123.049H437.469L437.658 122.839V128.887L437.553 128.761H444.672C444.84 128.761 444.987 128.824 445.113 128.95C445.239 129.076 445.302 129.223 445.302 129.391C445.302 129.573 445.239 129.72 445.113 129.832C444.987 129.944 444.84 130 444.672 130H436.965C436.797 130 436.65 129.937 436.524 129.811C436.398 129.685 436.335 129.538 436.335 129.37V115.93C436.335 115.762 436.398 115.615 436.524 115.489C436.65 115.363 436.797 115.3 436.965 115.3Z" fill="#AC3EC3"/>
<path d="M541 37.5C541 16.7893 557.789 0 578.5 0C599.211 0 616 16.7893 616 37.5V67C616 71.4183 612.418 75 608 75H578.5C557.789 75 541 58.2107 541 37.5Z" fill="#6DEA75"/>
<path d="M668.5 -1.63918e-06C689.211 -7.33885e-07 706 16.7893 706 37.5C706 58.2107 689.211 75 668.5 75L639 75C634.582 75 631 71.4183 631 67L631 37.5C631 16.7893 647.789 -2.54447e-06 668.5 -1.63918e-06Z" fill="#18791E"/>
<path d="M578.5 164C557.789 164 541 147.211 541 126.5C541 105.789 557.789 89 578.5 89L608 89C612.418 89 616 92.5817 616 97L616 126.5C616 147.211 599.211 164 578.5 164Z" fill="#113C27"/>
<path d="M639.568 104.21C638.49 104.21 637.489 104.021 636.565 103.643C635.641 103.265 634.836 102.74 634.15 102.068C633.478 101.382 632.953 100.577 632.575 99.653C632.197 98.729 632.008 97.728 632.008 96.65C632.008 95.572 632.197 94.571 632.575 93.647C632.953 92.723 633.478 91.925 634.15 91.253C634.836 90.567 635.641 90.035 636.565 89.657C637.489 89.279 638.49 89.09 639.568 89.09C640.31 89.09 641.024 89.181 641.71 89.363C642.41 89.531 643.033 89.79 643.579 90.14C643.677 90.21 643.747 90.294 643.789 90.392C643.845 90.476 643.873 90.567 643.873 90.665C643.873 90.861 643.81 91.022 643.684 91.148C643.558 91.26 643.425 91.316 643.285 91.316C643.215 91.316 643.145 91.309 643.075 91.295C643.019 91.267 642.963 91.239 642.907 91.211C642.431 90.945 641.913 90.735 641.353 90.581C640.793 90.427 640.198 90.35 639.568 90.35C638.364 90.35 637.293 90.623 636.355 91.169C635.417 91.715 634.682 92.464 634.15 93.416C633.618 94.368 633.352 95.446 633.352 96.65C633.352 97.854 633.618 98.932 634.15 99.884C634.682 100.836 635.417 101.585 636.355 102.131C637.293 102.677 638.364 102.95 639.568 102.95C640.198 102.95 640.828 102.859 641.458 102.677C642.102 102.495 642.655 102.25 643.117 101.942L643.012 102.383V97.553L643.327 97.847H639.694C639.512 97.847 639.358 97.784 639.232 97.658C639.106 97.532 639.043 97.385 639.043 97.217C639.043 97.021 639.106 96.867 639.232 96.755C639.358 96.643 639.512 96.587 639.694 96.587H643.705C643.887 96.587 644.034 96.65 644.146 96.776C644.272 96.888 644.335 97.035 644.335 97.217V102.278C644.335 102.39 644.307 102.495 644.251 102.593C644.195 102.691 644.118 102.775 644.02 102.845C643.404 103.265 642.711 103.601 641.941 103.853C641.185 104.091 640.394 104.21 639.568 104.21ZM648.29 104C648.08 104 647.905 103.937 647.765 103.811C647.639 103.685 647.576 103.538 647.576 103.37V89.93C647.576 89.762 647.639 89.615 647.765 89.489C647.891 89.363 648.038 89.3 648.206 89.3H653.876C654.674 89.3 655.388 89.475 656.018 89.825C656.648 90.161 657.138 90.63 657.488 91.232C657.852 91.834 658.034 92.513 658.034 93.269C658.034 93.885 657.922 94.452 657.698 94.97C657.474 95.488 657.159 95.929 656.753 96.293C656.347 96.643 655.892 96.902 655.388 97.07L654.653 96.839C655.171 96.881 655.654 97.049 656.102 97.343C656.55 97.623 656.907 98.015 657.173 98.519C657.453 99.009 657.6 99.604 657.614 100.304C657.628 100.906 657.656 101.375 657.698 101.711C657.754 102.047 657.831 102.299 657.929 102.467C658.027 102.635 658.153 102.768 658.307 102.866C658.447 102.95 658.538 103.069 658.58 103.223C658.636 103.377 658.622 103.524 658.538 103.664C658.482 103.776 658.398 103.86 658.286 103.916C658.188 103.958 658.083 103.979 657.971 103.979C657.859 103.979 657.747 103.951 657.635 103.895C657.439 103.783 657.236 103.608 657.026 103.37C656.83 103.132 656.662 102.782 656.522 102.32C656.396 101.858 656.333 101.214 656.333 100.388C656.333 99.842 656.242 99.394 656.06 99.044C655.892 98.694 655.668 98.428 655.388 98.246C655.122 98.05 654.821 97.917 654.485 97.847C654.163 97.763 653.855 97.721 653.561 97.721H648.668L648.899 97.427V103.37C648.899 103.538 648.843 103.685 648.731 103.811C648.619 103.937 648.472 104 648.29 104ZM648.668 96.566H653.939C654.415 96.524 654.863 96.37 655.283 96.104C655.703 95.824 656.039 95.446 656.291 94.97C656.557 94.494 656.69 93.941 656.69 93.311C656.69 92.513 656.417 91.855 655.871 91.337C655.339 90.805 654.639 90.539 653.771 90.539H648.752L648.899 90.245V96.86L648.668 96.566ZM662.274 89.3H669.981C670.149 89.3 670.296 89.363 670.422 89.489C670.548 89.601 670.611 89.748 670.611 89.93C670.611 90.112 670.548 90.259 670.422 90.371C670.296 90.483 670.149 90.539 669.981 90.539H662.757L662.967 90.182V96.083L662.736 95.81H669.036C669.204 95.81 669.351 95.873 669.477 95.999C669.603 96.125 669.666 96.272 669.666 96.44C669.666 96.622 669.603 96.769 669.477 96.881C669.351 96.993 669.204 97.049 669.036 97.049H662.778L662.967 96.839V102.887L662.862 102.761H669.981C670.149 102.761 670.296 102.824 670.422 102.95C670.548 103.076 670.611 103.223 670.611 103.391C670.611 103.573 670.548 103.72 670.422 103.832C670.296 103.944 670.149 104 669.981 104H662.274C662.106 104 661.959 103.937 661.833 103.811C661.707 103.685 661.644 103.538 661.644 103.37V89.93C661.644 89.762 661.707 89.615 661.833 89.489C661.959 89.363 662.106 89.3 662.274 89.3ZM674.209 89.3H681.916C682.084 89.3 682.231 89.363 682.357 89.489C682.483 89.601 682.546 89.748 682.546 89.93C682.546 90.112 682.483 90.259 682.357 90.371C682.231 90.483 682.084 90.539 681.916 90.539H674.692L674.902 90.182V96.083L674.671 95.81H680.971C681.139 95.81 681.286 95.873 681.412 95.999C681.538 96.125 681.601 96.272 681.601 96.44C681.601 96.622 681.538 96.769 681.412 96.881C681.286 96.993 681.139 97.049 680.971 97.049H674.713L674.902 96.839V102.887L674.797 102.761H681.916C682.084 102.761 682.231 102.824 682.357 102.95C682.483 103.076 682.546 103.223 682.546 103.391C682.546 103.573 682.483 103.72 682.357 103.832C682.231 103.944 682.084 104 681.916 104H674.209C674.041 104 673.894 103.937 673.768 103.811C673.642 103.685 673.579 103.538 673.579 103.37V89.93C673.579 89.762 673.642 89.615 673.768 89.489C673.894 89.363 674.041 89.3 674.209 89.3ZM696.267 89.3C696.449 89.3 696.589 89.356 696.687 89.468C696.799 89.58 696.855 89.72 696.855 89.888V103.328C696.855 103.538 696.785 103.706 696.645 103.832C696.519 103.944 696.372 104 696.204 104C696.12 104 696.029 103.986 695.931 103.958C695.833 103.916 695.756 103.86 695.7 103.79L686.334 91.169L686.691 90.98V103.433C686.691 103.587 686.635 103.72 686.523 103.832C686.411 103.944 686.271 104 686.103 104C685.921 104 685.774 103.944 685.662 103.832C685.564 103.72 685.515 103.587 685.515 103.433V89.93C685.515 89.72 685.578 89.566 685.704 89.468C685.83 89.356 685.97 89.3 686.124 89.3C686.208 89.3 686.299 89.321 686.397 89.363C686.495 89.391 686.572 89.447 686.628 89.531L695.889 102.005L695.679 102.383V89.888C695.679 89.72 695.735 89.58 695.847 89.468C695.973 89.356 696.113 89.3 696.267 89.3ZM638.581 115.3C639.365 115.3 640.058 115.482 640.66 115.846C641.262 116.196 641.738 116.686 642.088 117.316C642.438 117.946 642.613 118.667 642.613 119.479C642.613 120.291 642.438 121.026 642.088 121.684C641.738 122.328 641.262 122.839 640.66 123.217C640.058 123.595 639.365 123.784 638.581 123.784H634.129L634.234 123.574V129.37C634.234 129.538 634.171 129.685 634.045 129.811C633.919 129.937 633.772 130 633.604 130C633.408 130 633.254 129.937 633.142 129.811C633.03 129.685 632.974 129.538 632.974 129.37V115.93C632.974 115.762 633.037 115.615 633.163 115.489C633.289 115.363 633.436 115.3 633.604 115.3H638.581ZM638.581 122.566C639.127 122.566 639.603 122.433 640.009 122.167C640.415 121.887 640.73 121.516 640.954 121.054C641.192 120.578 641.311 120.053 641.311 119.479C641.311 118.905 641.192 118.401 640.954 117.967C640.73 117.519 640.415 117.169 640.009 116.917C639.603 116.665 639.127 116.539 638.581 116.539H634.129L634.234 116.35V122.692L634.108 122.566H638.581ZM649.557 116.917L644.454 129.601C644.398 129.741 644.321 129.846 644.223 129.916C644.125 129.986 644.013 130.021 643.887 130.021C643.691 130.021 643.544 129.972 643.446 129.874C643.348 129.762 643.292 129.629 643.278 129.475C643.264 129.405 643.271 129.321 643.299 129.223L648.843 115.657C648.913 115.503 648.997 115.398 649.095 115.342C649.207 115.272 649.333 115.237 649.473 115.237C649.613 115.237 649.732 115.279 649.83 115.363C649.942 115.433 650.026 115.531 650.082 115.657L655.605 129.16C655.633 129.244 655.647 129.328 655.647 129.412C655.647 129.608 655.584 129.762 655.458 129.874C655.332 129.972 655.185 130.021 655.017 130.021C654.877 130.021 654.751 129.986 654.639 129.916C654.541 129.832 654.464 129.727 654.408 129.601L649.179 116.833L649.557 116.917ZM645.672 125.758L646.197 124.519H652.707L652.959 125.758H645.672ZM666.367 128.761C666.535 128.761 666.682 128.824 666.808 128.95C666.934 129.062 666.997 129.202 666.997 129.37C666.997 129.552 666.934 129.706 666.808 129.832C666.682 129.944 666.535 130 666.367 130H658.87C658.688 130 658.534 129.937 658.408 129.811C658.296 129.685 658.24 129.538 658.24 129.37V115.93C658.24 115.762 658.303 115.615 658.429 115.489C658.555 115.363 658.716 115.3 658.912 115.3C659.08 115.3 659.227 115.363 659.353 115.489C659.493 115.615 659.563 115.762 659.563 115.93V129.118L659.164 128.761H666.367ZM670.046 115.3H677.753C677.921 115.3 678.068 115.363 678.194 115.489C678.32 115.601 678.383 115.748 678.383 115.93C678.383 116.112 678.32 116.259 678.194 116.371C678.068 116.483 677.921 116.539 677.753 116.539H670.529L670.739 116.182V122.083L670.508 121.81H676.808C676.976 121.81 677.123 121.873 677.249 121.999C677.375 122.125 677.438 122.272 677.438 122.44C677.438 122.622 677.375 122.769 677.249 122.881C677.123 122.993 676.976 123.049 676.808 123.049H670.55L670.739 122.839V128.887L670.634 128.761H677.753C677.921 128.761 678.068 128.824 678.194 128.95C678.32 129.076 678.383 129.223 678.383 129.391C678.383 129.573 678.32 129.72 678.194 129.832C678.068 129.944 677.921 130 677.753 130H670.046C669.878 130 669.731 129.937 669.605 129.811C669.479 129.685 669.416 129.538 669.416 129.37V115.93C669.416 115.762 669.479 115.615 669.605 115.489C669.731 115.363 669.878 115.3 670.046 115.3ZM685.72 130C685.524 130 685.363 129.937 685.237 129.811C685.125 129.685 685.069 129.538 685.069 129.37V115.993H686.371V129.37C686.371 129.538 686.308 129.685 686.182 129.811C686.056 129.937 685.902 130 685.72 130ZM680.722 116.497C680.554 116.497 680.407 116.441 680.281 116.329C680.155 116.217 680.092 116.07 680.092 115.888C680.092 115.72 680.155 115.58 680.281 115.468C680.407 115.356 680.554 115.3 680.722 115.3H690.718C690.886 115.3 691.033 115.356 691.159 115.468C691.285 115.58 691.348 115.727 691.348 115.909C691.348 116.091 691.285 116.238 691.159 116.35C691.033 116.448 690.886 116.497 690.718 116.497H680.722ZM699.03 130C698.834 130 698.673 129.937 698.547 129.811C698.435 129.685 698.379 129.538 698.379 129.37V115.993H699.681V129.37C699.681 129.538 699.618 129.685 699.492 129.811C699.366 129.937 699.212 130 699.03 130ZM694.032 116.497C693.864 116.497 693.717 116.441 693.591 116.329C693.465 116.217 693.402 116.07 693.402 115.888C693.402 115.72 693.465 115.58 693.591 115.468C693.717 115.356 693.864 115.3 694.032 115.3H704.028C704.196 115.3 704.343 115.356 704.469 115.468C704.595 115.58 704.658 115.727 704.658 115.909C704.658 116.091 704.595 116.238 704.469 116.35C704.343 116.448 704.196 116.497 704.028 116.497H694.032ZM707.965 115.3H715.672C715.84 115.3 715.987 115.363 716.113 115.489C716.239 115.601 716.302 115.748 716.302 115.93C716.302 116.112 716.239 116.259 716.113 116.371C715.987 116.483 715.84 116.539 715.672 116.539H708.448L708.658 116.182V122.083L708.427 121.81H714.727C714.895 121.81 715.042 121.873 715.168 121.999C715.294 122.125 715.357 122.272 715.357 122.44C715.357 122.622 715.294 122.769 715.168 122.881C715.042 122.993 714.895 123.049 714.727 123.049H708.469L708.658 122.839V128.887L708.553 128.761H715.672C715.84 128.761 715.987 128.824 716.113 128.95C716.239 129.076 716.302 129.223 716.302 129.391C716.302 129.573 716.239 129.72 716.113 129.832C715.987 129.944 715.84 130 715.672 130H707.965C707.797 130 707.65 129.937 707.524 129.811C707.398 129.685 707.335 129.538 707.335 129.37V115.93C707.335 115.762 707.398 115.615 707.524 115.489C707.65 115.363 707.797 115.3 707.965 115.3Z" fill="#6DEA75"/>
<path fill-rule="evenodd" clip-rule="evenodd" d="M664 75L639 75C634.582 75 631 71.4183 631 67L631 42H653C659.075 42 664 46.9249 664 53V75Z" fill="#6DEA75"/>
<path fill-rule="evenodd" clip-rule="evenodd" d="M616 122H595C588.925 122 584 117.075 584 111V89L608 89C612.418 89 616 92.5817 616 97L616 122Z" fill="#18791E"/>
<path fill-rule="evenodd" clip-rule="evenodd" d="M616 42V67C616 71.4183 612.418 75 608 75H584V53C584 46.9249 588.925 42 595 42H616Z" fill="#9BFBA1"/>
<path fill-rule="evenodd" clip-rule="evenodd" d="M75 42V67C75 71.4182 71.4183 75 67 75H43V53C43 46.9248 47.9249 42 54 42H75Z" fill="#FF8BB7"/>
<path fill-rule="evenodd" clip-rule="evenodd" d="M393 75L368 75C363.582 75 360 71.4183 360 67L360 42H382C388.075 42 393 46.9249 393 53V75Z" fill="#AC3EC3"/>
<path fill-rule="evenodd" clip-rule="evenodd" d="M345 122H324C317.925 122 313 117.075 313 111V89L337 89C341.418 89 345 92.5817 345 97L345 122Z" fill="#672A69"/>
<path fill-rule="evenodd" clip-rule="evenodd" d="M345 42V67C345 71.4183 341.418 75 337 75H313V53C313 46.9249 317.925 42 324 42H345Z" fill="#E981FF"/>
</svg>
