<?xml version="1.0" encoding="utf-8"?>
<!-- Generator: Adobe Illustrator 26.0.0, SVG Export Plug-In . SVG Version: 6.00 Build 0)  -->
<svg version="1.1" id="_x37__x5F_Final" xmlns="http://www.w3.org/2000/svg" xmlns:xlink="http://www.w3.org/1999/xlink" x="0px"
	 y="0px" viewBox="0 0 1224 792" style="enable-background:new 0 0 1224 792;" xml:space="preserve">
<style type="text/css">
	.st0{fill:#1A2857;}
	.st1{fill:#FFFFFF;}
</style>
<g>
	<path class="st0" d="M824.1,526h3.8v-11.8l10.5-15.9h-4.6l-7.8,12.1l-7.5-12.1h-4.8l10.5,15.9V526z M790.4,526H809v-3.5h-14.8v-8.9
		h13.1v-3.5h-13.1v-8.2h14.1v-3.5h-17.8V526z M757.1,526h3.7v-22.7h0.1l15.4,22.7h4.8v-27.6h-3.7v22.7h-0.1L762,498.3h-4.9V526z
		 M734.5,501.6h4.9c0.7,0,1.4,0.1,2.1,0.2c0.7,0.1,1.4,0.3,1.9,0.6c0.6,0.3,1,0.8,1.4,1.3c0.3,0.6,0.5,1.3,0.5,2.3
		c0,0.9-0.2,1.7-0.5,2.3c-0.3,0.6-0.8,1-1.4,1.3c-0.5,0.3-1.2,0.5-1.9,0.6c-0.7,0.1-1.4,0.2-2.1,0.2h-4.9V501.6z M730.8,526h3.7
		v-12.2h4.2l7,12.2h4.7l-7.8-12.6c1-0.1,2-0.4,2.8-0.8c0.9-0.4,1.6-1,2.2-1.7c0.6-0.7,1-1.4,1.3-2.2c0.3-0.8,0.5-1.7,0.5-2.6
		c0-0.9-0.1-1.8-0.4-2.7c-0.3-0.9-0.7-1.8-1.4-2.5c-0.7-0.7-1.6-1.3-2.7-1.8c-1.1-0.5-2.6-0.7-4.4-0.7h-9.7V526z M701,498.3v17.5
		c0,1.6,0.3,3.1,0.8,4.4c0.5,1.3,1.3,2.5,2.3,3.4c1,1,2.1,1.7,3.4,2.2c1.3,0.5,2.7,0.8,4.2,0.8c1.5,0,2.9-0.3,4.2-0.8
		c1.3-0.5,2.5-1.3,3.4-2.2c1-1,1.7-2.1,2.3-3.4c0.5-1.3,0.8-2.8,0.8-4.4v-17.5h-3.8v17c0,0.9-0.1,1.7-0.4,2.7
		c-0.2,0.9-0.6,1.8-1.2,2.6c-0.6,0.8-1.3,1.4-2.2,1.9c-0.9,0.5-2,0.8-3.3,0.8c-1.3,0-2.4-0.3-3.3-0.8c-0.9-0.5-1.6-1.1-2.2-1.9
		c-0.5-0.8-0.9-1.6-1.2-2.6c-0.2-0.9-0.4-1.8-0.4-2.7v-17H701z M675.7,522.3c-1.3-0.6-2.4-1.4-3.3-2.4c-0.9-1-1.6-2.1-2.1-3.5
		c-0.5-1.3-0.7-2.8-0.7-4.3c0-1.5,0.2-2.9,0.7-4.3c0.5-1.3,1.2-2.5,2.1-3.5c0.9-1,2-1.8,3.3-2.4c1.3-0.6,2.7-0.9,4.3-0.9
		c1.6,0,3,0.3,4.3,0.9c1.3,0.6,2.4,1.4,3.3,2.4c0.9,1,1.6,2.2,2.1,3.5c0.5,1.3,0.7,2.8,0.7,4.3c0,1.5-0.2,2.9-0.7,4.3
		c-0.5,1.3-1.2,2.5-2.1,3.5c-0.9,1-2,1.8-3.3,2.4c-1.3,0.6-2.7,0.9-4.3,0.9C678.4,523.2,677,522.9,675.7,522.3 M685.8,525.6
		c1.8-0.7,3.3-1.7,4.5-3.1c1.3-1.3,2.3-2.8,3-4.6c0.7-1.8,1.1-3.7,1.1-5.7c0-2.1-0.4-4-1.1-5.7c-0.7-1.8-1.7-3.3-3-4.6
		c-1.3-1.3-2.8-2.3-4.5-3.1c-1.8-0.7-3.7-1.1-5.8-1.1c-2.1,0-4,0.4-5.8,1.1c-1.8,0.7-3.3,1.8-4.5,3.1c-1.3,1.3-2.3,2.8-3,4.6
		c-0.7,1.8-1.1,3.7-1.1,5.7c0,2.1,0.4,4,1.1,5.7c0.7,1.8,1.7,3.3,3,4.6c1.3,1.3,2.8,2.3,4.5,3.1c1.8,0.8,3.7,1.1,5.8,1.1
		C682.1,526.7,684,526.3,685.8,525.6 M654.5,516.9c0,0.8,0,1.5-0.2,2.3c-0.1,0.7-0.3,1.4-0.6,2c-0.3,0.6-0.8,1.1-1.3,1.4
		c-0.5,0.4-1.3,0.5-2.2,0.5c-1.1,0-1.9-0.3-2.5-0.9c-0.6-0.6-1.1-1.4-1.3-2.5l-3.7,0.8c0.4,2,1.2,3.5,2.6,4.5c1.3,1,3,1.5,4.9,1.5
		c0.8,0,1.6-0.1,2.6-0.4c0.9-0.3,1.8-0.7,2.6-1.3c0.8-0.6,1.5-1.5,2.1-2.6c0.5-1.1,0.8-2.5,0.8-4.3v-19.8h-3.8V516.9z M605.7,526
		h18.5v-3.5h-14.8v-8.9h13.1v-3.5h-13.1v-8.2h14.1v-3.5h-17.8V526z M575,526h3.7v-12.7h14.3V526h3.8v-27.6h-3.8v11.5h-14.3v-11.5
		H575V526z M556.1,526h3.7v-24.1h8.9v-3.5h-21.5v3.5h8.9V526z M513.9,501.6h4.9c0.7,0,1.5,0.1,2.2,0.2c0.7,0.1,1.3,0.3,1.9,0.6
		c0.6,0.3,1,0.8,1.3,1.3c0.3,0.6,0.5,1.3,0.5,2.3c0,0.9-0.2,1.7-0.5,2.3c-0.3,0.6-0.8,1-1.3,1.3c-0.6,0.3-1.2,0.5-1.9,0.6
		c-0.7,0.1-1.4,0.2-2.2,0.2h-4.9V501.6z M510.1,526h3.8v-12.2h4.2l7,12.2h4.7l-7.9-12.6c1-0.1,2-0.4,2.8-0.8c0.9-0.4,1.6-1,2.2-1.7
		c0.6-0.7,1-1.4,1.3-2.2c0.3-0.8,0.5-1.7,0.5-2.6c0-0.9-0.1-1.8-0.4-2.7c-0.3-0.9-0.7-1.8-1.4-2.5c-0.7-0.7-1.6-1.3-2.7-1.8
		c-1.1-0.5-2.6-0.7-4.4-0.7h-9.7V526z M484.3,522.3c-1.3-0.6-2.4-1.4-3.3-2.4c-0.9-1-1.6-2.1-2.1-3.5c-0.5-1.3-0.7-2.8-0.7-4.3
		c0-1.5,0.2-2.9,0.7-4.3c0.5-1.3,1.2-2.5,2.1-3.5c0.9-1,2-1.8,3.3-2.4c1.3-0.6,2.7-0.9,4.3-0.9c1.6,0,3,0.3,4.3,0.9
		c1.3,0.6,2.4,1.4,3.3,2.4c0.9,1,1.6,2.2,2.1,3.5c0.5,1.3,0.7,2.8,0.7,4.3c0,1.5-0.2,2.9-0.7,4.3c-0.5,1.3-1.2,2.5-2.1,3.5
		c-0.9,1-2,1.8-3.3,2.4c-1.3,0.6-2.7,0.9-4.3,0.9C487,523.2,485.6,522.9,484.3,522.3 M494.4,525.6c1.8-0.7,3.3-1.7,4.5-3.1
		c1.3-1.3,2.3-2.8,3-4.6c0.7-1.8,1.1-3.7,1.1-5.7c0-2.1-0.4-4-1.1-5.7c-0.7-1.8-1.7-3.3-3-4.6c-1.3-1.3-2.8-2.3-4.5-3.1
		c-1.8-0.7-3.7-1.1-5.8-1.1c-2.1,0-4,0.4-5.8,1.1c-1.8,0.7-3.3,1.8-4.5,3.1c-1.3,1.3-2.2,2.8-3,4.6c-0.7,1.8-1.1,3.7-1.1,5.7
		c0,2.1,0.4,4,1.1,5.7c0.7,1.8,1.7,3.3,3,4.6c1.3,1.3,2.8,2.3,4.5,3.1c1.8,0.8,3.7,1.1,5.8,1.1C490.7,526.7,492.6,526.3,494.4,525.6
		 M457.4,526h3.5l10.9-27.6h-4.1l-8.4,22.5h-0.1l-8.1-22.5h-4.3L457.4,526z M427.6,515.9l5.2-12.7h0.1l5.1,12.7H427.6z M419.2,526
		h4.4l2.7-6.8h13.2l2.8,6.8h4.4l-11.8-27.6h-3.4L419.2,526z M396.6,522.8c0.9,1.3,2.2,2.3,3.8,2.9c1.6,0.6,3.3,0.9,5.1,0.9
		c1.3,0,2.6-0.2,3.7-0.6c1.2-0.4,2.2-0.9,3-1.7c0.9-0.7,1.5-1.6,2.1-2.7c0.5-1.1,0.8-2.3,0.8-3.6c0-1.7-0.3-3-1-3.9
		c-0.7-1-1.5-1.7-2.5-2.3c-1-0.6-2.1-1-3.3-1.3c-1.2-0.3-2.3-0.7-3.3-1.1c-1-0.4-1.8-0.9-2.5-1.5c-0.7-0.6-1-1.5-1-2.7
		c0-0.4,0.1-0.9,0.3-1.4c0.2-0.5,0.5-1,0.9-1.4c0.4-0.4,1-0.8,1.7-1.1c0.7-0.3,1.5-0.4,2.6-0.4c1.1,0,2.1,0.2,2.9,0.7
		c0.9,0.4,1.5,1,2,1.8l3-2.8c-1-1.3-2.3-2.1-3.6-2.5c-1.4-0.4-2.8-0.6-4.3-0.6c-1.7,0-3.1,0.2-4.3,0.8c-1.2,0.5-2.2,1.1-2.9,1.9
		c-0.8,0.8-1.3,1.6-1.7,2.5c-0.4,0.9-0.5,1.8-0.5,2.6c0,1.8,0.3,3.2,1,4.3c0.7,1.1,1.5,1.9,2.5,2.5c1,0.6,2.1,1.1,3.3,1.5
		c1.2,0.3,2.3,0.7,3.3,1.1c1,0.4,1.8,0.8,2.5,1.4c0.7,0.6,1,1.4,1,2.4c0,0.8-0.2,1.4-0.5,2c-0.3,0.6-0.8,1.1-1.3,1.4
		c-0.5,0.4-1.1,0.7-1.8,0.9c-0.6,0.2-1.3,0.3-1.9,0.3c-1.1,0-2.2-0.2-3.3-0.7c-1.1-0.5-1.9-1.2-2.6-2.2L396.6,522.8z"/>
	<g>
		<g>
			<path class="st1" d="M681.4,264.6c8.1-32.3-14-35.4-22.7-34.2c-0.3,0-0.6,0.1-0.9,0.1c-10.8-9.4-23.1-14.8-37.3-14.8
				c-43.5,0-72.7,36.9-72.7,82.2c0,45.3,29.2,82.2,72.7,82.2c36.7,0,66.6-36.9,66.6-82.2C687.1,286,685.1,274.7,681.4,264.6z"/>
		</g>
		<path class="st0" d="M675.8,258.1L675.8,258.1c-1.8-3.9-3.6-6.1-3.9-6.4c-0.5-0.3-0.9-0.1-1.2,0.3c-12.4,18.4-19,38.4-22.1,55.4
			c-0.7,3.9-1.4,8-1.8,11.7c-0.3,3.6-1,2.8-0.9,0.2c0.2-4,0.3-6.4,0.7-10.1c0-0.1,0.5-4.5,0.7-5.8c4.7-34.9,18.6-53.5,18.6-53.5
			c0,0,0-0.1,0.1-0.1c0.3-0.5,0.1-1.3-0.6-1.4c-1.9-0.5-4.6-0.7-6.5-0.7c-2.7,0-5.3,0.3-8,0.8c-21.6,4.3-40.8,25.4-48.3,32.5
			c-5.1,4.8-10,9.8-14.7,15.1c-4.3,4.8-8.4,9.8-12.2,14.9c-0.8,1.1-1.6,2.2-2.4,3.2c-0.3,0.4-3.3,4.4-6.8,9.1
			c-2.2-8-3.4-16.6-3.4-25.5c0-41.6,26.1-75.4,58.3-75.4c11.2,0,21.6,4.1,30.5,11.2c-0.5,0.1-0.9,0.3-1.3,0.4l-0.2,0.1
			c-0.1,0-0.2,0.1-0.3,0.1l-0.7,0.2c-12.4,3.8-26.1,11.7-39.3,23.5c-1.1-0.3-2.3-0.5-3.5-0.6c-0.2,0-0.3,0-0.5,0
			c-7-0.2-15,3.7-19.8,7.6c-1.7,1.4-2.5,2.7-2.9,3.8l0,5.5v0.3c0.9-0.8,3.7-3.7,7-5.8c4.2-2.7,9-4.4,13.4-4.7
			c-2.2,2.2-4.4,4.5-6.5,6.9c-6.4,2.2-11.5,6.4-13.9,9.4v-6c0,0-0.1,0-0.1,0c-2.3,0.7-8.2,4.4-9,7.2c-0.2,0.8-0.3,2.5-0.3,3.4
			c0,0.2,0,0.4,0,0.5c0,0.3,0,2.3,0,2.3s4.3-6.1,9.4-7.5l0,5.5c-3.4,1.2-7.9,5.5-8.7,7c-0.2,0.4,0.1,6.2,0.2,9.1
			c-2.6,4.4-5,9.1-7.3,13.9c3.2-4.6,6.6-9.1,9.4-12.7c3.3-4.4,6.5-8.8,9.8-13.2c1.5-1.9,2.9-3.9,4.5-5.8c0.5-0.7,1.1-1.4,1.6-2
			c3.7-4.5,7.7-8.7,11.8-12.8c1.7-1.7,3.5-3.3,5.3-4.9c0.9-0.8,1.7-1.5,2.6-2.3c0.7-0.6,1.4-1.2,2-1.7c3-2.5,6-4.9,9.1-7.3
			c3.2-2.5,6.6-4.8,10.1-6.9c6.2-3.8,13-6.6,20.1-8.3c0.4-0.1,0.8-0.2,1.3-0.3c1.1-0.2,2.2-0.4,3.4-0.6c5.3-0.7,10.9-0.3,15.5,2.5
			c1.4,0.8,2.6,1.9,3.6,3.1c0.7,0.8,1.3,1.8,1.9,2.8c1.2,2.3,1.9,5,2,8.2c0,1.1,0.1,2,0.1,2.9c0.4-2.1,0.5-4.3,0.4-6.3
			c-0.2-2.7-1.1-5.8-2.3-8.2c-3.9-7.8-13.1-10.7-21.3-9.5c-0.3,0-0.6,0.1-0.8,0.1c-10.2-9.1-22.6-14.5-36-14.5
			c-41,0-68.5,35.9-68.5,79.9c0,44.1,27.5,79.9,68.5,79.9c34.6,0,62.8-35.9,62.8-79.9C684.1,283.4,681.1,269.8,675.8,258.1z
			 M588.5,360.2c4.2,1,8.3,1.7,11.8,2c9.1,0.7,22-1.3,31.9,0.4c4.2,0.7,7.6,3.2,10,5.7c-6.5,3.2-13.5,5-20.9,5
			C609.1,373.3,597.8,368.4,588.5,360.2z M654.1,351.6c-0.7-8.5-0.7-17.1,0.1-25.6c1.5-17.3,6.3-34.4,16.9-48.5
			c0.2-0.3,0.5-0.7,1-1.2h0l0.3-0.4c0,0-0.3,0.3,2.7-3.4c0.4-0.6,0.4-0.5,0.8-1.1c0,0,0,0,0,0c2.4,8.2,3.7,17.1,3.7,26.4
			c0,27.2-11.2,51.1-27.9,64.4c-5.6-5.6-11.8-7.5-23.2-7.6c-10.9-0.1-22.5,3.3-38.2,1.6c-2.2-0.2-4.8-0.9-7.6-1.8
			c-1.3-1.5-2.6-3.1-3.8-4.8c3.2,1.1,6.4,1.9,9.3,2.1c17.4,1.5,30.9-2.3,42.2-2.4c11.5-0.1,18.3,1.7,24,6.1
			C654.4,354.2,654.3,352.9,654.1,351.6"/>
	</g>
	<g>
		<path class="st0" d="M601.3,465.5h-3.5c-2.6,0-5.4-1.3-7.2-4.7c-1.5-3.1-8.3-22.6-10.7-30.9c-2-6.7-9.5-29.1-11.5-35.7
			c-0.3-1.2-0.5-1.8-1.2-1.8c-0.5,0-0.8,0.4-1.4,0.9c-1.2,1.5-6.5,6.1-9.4,6.7c-0.7,0.2-1,0.6-1,0.9c0,0.4,0.4,1,0.7,1.4
			c0.2,1-0.9,3-1.1,3.5c-1,2.8-8.5,22.8-9.3,24.9c-3.1,8.6-10.7,28.1-11.5,29.8c-1.5,3.4-2.9,4.8-6.1,4.8h-3.7
			c-0.4,0-0.8,0.2-0.8,0.7v2.5c0,0.6,0.2,0.8,0.7,0.8c1.5,0,3.8-0.3,11.5-0.3c6.2,0,10.5,0.3,12,0.3c0.5,0,0.8-0.2,0.8-0.9v-2.4
			c0-0.5-0.3-0.7-1-0.7h-4.9c-2.3,0-3.6-0.8-3.6-2.3c0-0.5,0.2-1.6,0.3-2.3c0.5-2.2,6.3-18.2,7.4-20.9h25.9
			c1.5,4.2,5.8,17.7,6.6,21.5c0.7,2.9-0.2,4-3.2,4h-2.6c-0.6,0-0.9,0.1-0.9,0.7v2.4c0,0.6,0.3,0.9,0.8,0.9c2.3,0,5.9-0.3,14-0.3v0
			H602c0.1-0.1,0.1-0.2,0.1-0.4v-2.6C602.1,465.8,601.9,465.5,601.3,465.5z M548.3,436.2c0.7-2.6,10.3-28.2,10.8-29.6
			c0.3-0.8,1.2-1.8,1.6-1.8c0.3,0,1,0.8,1.3,1.5c0.5,1.6,8.6,26.8,9.5,29.9H548.3z"/>
		<g>
			<path class="st0" d="M210.7,430.5c0-6.5-0.2-19.4-0.2-21.1c0-5.4-0.8-6.8-4.6-6.8h-5c-0.5,0-0.6-0.2-0.6-0.8v-2.5
				c0-0.5,0.3-0.7,0.8-0.7c2.1,0,5.5,0.3,14.7,0.3c8.2,0,12-0.3,14-0.3c0.7,0,1.1,0.1,1.1,0.5v2.7c0,0.6-0.2,0.8-0.8,0.8h-5.4
				c-3.6,0-4.1,1.8-4.1,6c0,1.5-0.2,14-0.2,19.9v1.8c0,0.5,0.3,0.8,1.3,0.8h32.2c1.6,0,2.1-0.2,2.1-1.6v-1.1c0-6-0.3-19.3-0.3-20.5
				c0-3.4-0.4-5.4-3.5-5.4h-5.5c-0.5,0-0.7-0.2-0.7-0.7v-2.7c0-0.4,0.1-0.6,0.6-0.6c2.2,0,6.7,0.3,13.9,0.3c7.2,0,11.5-0.3,13.5-0.3
				c0.7,0,0.8,0.2,0.8,0.8v2.5c0,0.6-0.2,0.7-0.8,0.7h-4.7c-3,0-3.4,1.8-3.4,5.6c0,1.5-0.2,17.9-0.2,21.8v3.6
				c0,3.4,0.2,20.7,0.3,26.7c0,3.8,1.1,5.3,4.2,5.3h4.6c0.7,0,0.9,0.2,0.9,0.7v2.5c0,0.6-0.2,0.8-0.9,0.8c-2,0-5.6-0.3-13.3-0.3
				c-9.2,0-12.5,0.3-15.7,0.3c-0.4,0-0.6-0.3-0.6-0.7v-2.6c0-0.5,0.2-0.7,0.8-0.7h6.6c2.5,0,2.8-2,2.8-4.8c0.1-4.9,0.3-19.2,0.3-23
				v-1.5c0-1.2-0.5-1.3-2.3-1.3h-31.7c-1.2,0-1.5,0.3-1.5,1.1v2.2c0,2.8,0.1,16.4,0.2,23.7c0.1,2.5,1.2,3.6,3.4,3.6h5.2
				c0.6,0,0.8,0.2,0.8,0.7v2.6c0,0.5-0.2,0.7-0.8,0.7c-2,0-5.7-0.3-13.3-0.3c-9.1,0-12.2,0.3-14.6,0.3c-0.5,0-0.7-0.2-0.7-0.7v-2.7
				c0-0.4,0.3-0.6,0.7-0.6h6.2c2.6,0,2.9-2.5,2.9-5c0.1-5,0.3-22.7,0.3-25.4V430.5z"/>
			<path class="st0" d="M309.3,446.3c0-11.7-8.5-19.1-13.9-19.1c-2.8,0-5.6,0.6-8.1,3.4c-4.1,4.2-5.6,8.5-5.6,16.5
				c0,5.9,0.6,9.9,4,14.7c2.4,3.5,5.5,5.5,10.4,5.5C304.2,467.3,309.3,457.5,309.3,446.3 M278.9,463.2c-4.8-5.8-5.8-9.7-5.8-17.2
				c0-5.4,2.8-12.1,9-17c5.5-4.2,10.6-5,14.1-5c5.8,0,11.6,2.9,14.7,6.1c4.7,4.8,7.2,10.3,7.2,17.1c0,11.5-10.3,23.2-23.3,23.2
				C289.9,470.5,283.3,468.5,278.9,463.2"/>
			<path class="st0" d="M451.2,463.5c0,1.7,0.9,2.2,2.3,2.2h3.4c1,0,1.2,0.3,1.2,1v1.7c0,0.7-0.2,1.2-0.8,1.2c-0.8,0-4-0.3-10-0.3
				c-5.4,0-8.7,0.3-9.5,0.3c-0.6,0-0.8-0.3-0.8-1.2v-1.7c0-0.7,0.3-1,1.4-1h3.1c1.2,0,2-0.5,2.1-2.4c0.1-2.7,0.2-6.1,0.2-8.8v-13.9
				c0-4.2,0-7.3-3.1-9.5c-2.5-1.9-5.1-1.9-7.7-1.9c-1.7,0-5.4,0.7-8.5,4.1c-2.1,2.3-2.4,5.2-2.4,7.2v21.8c0,2.8,0.3,3.5,2.5,3.5h2.6
				c0.8,0,1.1,0.3,1.1,1.1v1.8c0,0.6-0.2,1-0.7,1c-0.7,0-3.6-0.3-9.2-0.3c-5.4,0-8.7,0.3-9.4,0.3c-0.5,0-0.7-0.3-0.7-1v-1.9
				c0-0.6,0.2-1,1-1h3.1c1.4,0,2.1-0.3,2.1-2.1V439c0-3.2-1.7-5-4.3-6.2l-0.8-0.4c-0.7-0.3-0.8-0.6-0.8-0.9v-0.5
				c0-0.5,0.4-0.9,0.9-1l9.1-5.1c0.8-0.4,1.5-0.7,1.9-0.7c0.5,0,0.7,0.4,0.8,1.3l0.7,6.4h0.2c3.1-3.8,9.2-7.7,14.4-7.7
				c3.2,0,6.4,0.6,8.9,2.3c3.2,2.1,5.8,7.4,5.8,10V463.5z"/>
			<path class="st0" d="M491.3,438.5c0-1.5,0-3.5-0.9-5.2c-1.5-2.8-4.8-5.7-11.1-5.7c-3.3,0-6.8,0.9-9.6,3.8c-4.1,4.4-4.8,10-4.8,14
				c0,11.9,8.2,20.5,14.3,20.5c5.9,0,10.4-3.1,11.5-5.8c0.5-1.6,0.6-2.4,0.6-3.6V438.5z M491.3,409.2c0-4-0.7-5.3-6.6-6.2
				c-0.6-0.1-0.7-0.3-0.7-0.7v-1.8c0-0.4,0.2-0.6,0.8-0.7c4.1-0.8,9.6-1.8,11.6-2.2c0.9-0.1,1.7-0.3,2.4-0.3c0.5,0,0.6,0.7,0.5,1.9
				c-0.3,5.3-0.4,16.5-0.4,29.8v23.3c0,3.9,0.2,8.5,1.1,9.6c1,1.1,3.2,1.7,4.6,1.8c1.5,0.1,1.9,0.2,2.1,0.7l0.2,0.8
				c0.1,0.6-0.1,1-0.7,1.2l-11.9,4c-0.6,0.2-1.2-0.1-1.4-0.8l-1.4-4.6c-3.4,3.4-10.1,5.7-15.5,5.7c-3.5,0-7.5,0.2-12.4-4.8
				c-5.4-5.3-6.6-10-6.6-17c0-6.5,2.4-13,7.4-17.9c4.1-4.4,9.8-6.6,15.7-6.6c4.3,0,8.1,0.6,11.3,1.6V409.2z"/>
			<path class="st0" d="M697,438.1c2,0,2.8-0.5,2.8-1.5c0-2.4-1.3-9.4-8.1-9.4c-4.6,0-9.1,3-11.1,10.8H697z M680.3,441.2
				c-0.2,1-0.3,2.6-0.3,5.1c0,10.3,6.5,18.1,15,18.1c6.4,0,10.9-3.7,12.7-7.2c0.2-0.4,0.6-0.6,1-0.5l1.4,0.7c0.3,0.1,0.5,0.4,0,1.6
				c-1.9,4.2-7.4,11.5-16.7,11.5c-6,0-12.6-1.8-16.5-7.5c-3.7-5.4-4.6-9.3-4.6-16.6c0-4.1,1-11.2,6.6-16.7c4.5-4.6,9.8-5.6,15.1-5.6
				c12.1,0,15.5,11.4,15.5,15.5c0,1.5-1.3,1.7-2.9,1.7H680.3z"/>
			<path class="st0" d="M719.2,441.2c0-5.4-0.8-6.4-3.8-8l-2-1.1c-0.6-0.2-0.8-0.3-0.8-0.7v-0.6c0-0.4,0.2-0.6,0.8-0.9l10.4-5.4
				c0.6-0.3,1.1-0.4,1.5-0.4c0.6,0,0.7,0.6,0.7,1.3l0.5,7.5h0.4c3.2-4.8,8.1-9.2,12.6-9.2c3.6,0,5.4,2.2,5.4,4.6
				c0,3.1-2.5,5.2-4.4,5.2c-1.2,0-2.2-0.4-3-0.8c-0.8-0.5-2.1-0.8-3.5-0.8c-1.7,0-4.4,1.1-6.2,4.4c-0.6,1.2-1,3.1-1,3.4v21.9
				c0,3.3,0.7,4.3,2.9,4.3h5c0.6,0,0.7,0.3,0.7,1v1.9c0,0.6-0.1,0.9-0.5,0.9c-0.6,0-5.5-0.3-11.2-0.3c-6.5,0-11,0.3-11.6,0.3
				c-0.4,0-0.6-0.2-0.6-1.1v-1.8c0-0.7,0.2-1,1.2-1h4.1c1.6,0,2.3-0.6,2.3-2c0.1-3.5,0.1-7.2,0.1-12.6V441.2z"/>
			<path class="st0" d="M755.5,438.6c0-3.6-0.6-5.5-5.9-6.3c-0.7-0.1-1-0.3-1-0.7v-0.9c0-0.3,0.2-0.5,0.7-0.7
				c3.4-1.3,7.4-3,11.4-5.2c0.8-0.4,1.4-0.6,2-0.6c0.5,0,0.6,0.5,0.5,1.3c-0.2,1.8-0.2,8.4-0.2,17.2V454c0,4.1,0,7.9,0.1,9
				c0.2,2,0.5,2.7,1.7,2.7h4.8c0.8,0,1.1,0.3,1.1,1v1.8c0,0.7-0.2,1.1-0.9,1.1c-0.8,0-5.7-0.3-10.1-0.3c-6.1,0-10.2,0.3-11.4,0.3
				c-0.5,0-0.8-0.2-0.8-0.8v-2.1c0-0.6,0.3-0.9,1-0.9h5.2c1.2,0,1.6-0.4,1.7-2.1c0.1-3.2,0.1-6.4,0.1-9.6V438.6z M750.9,408.2
				c0-2.6,2.2-5.6,6.3-5.6c3.7,0,5.4,3,5.4,5.3c0,2.7-1.8,5.9-6,5.9C754.3,413.8,750.9,411.5,750.9,408.2"/>
			<path class="st0" d="M776.3,443.7c0,5.7,2.5,12.1,5.4,16c3.5,4.5,7.9,5.4,11.5,5.4c5.3,0,8-1.2,11.6-4.5c0.2-0.2,0.5-0.3,0.8,0
				l1.1,1.1c0.4,0.4,0.5,0.7,0,1.4c-3.1,3.5-9.8,7.5-17,7.5c-5.6,0-11.5-1.3-16.3-7.4c-3.9-5.2-4.7-9.6-4.7-14.3
				c0-12.3,8.6-24.7,22.5-24.7c11,0,14.3,6.3,14.3,8.5c-0.1,2.4-1.7,3.7-3.9,3.7c-2.4,0-4.2-1.4-5.8-4.2c-2.3-4.3-4.5-4.6-7-4.6
				C782.7,427.4,776.3,432.9,776.3,443.7"/>
			<path class="st0" d="M879.5,426.1c0-6.7-0.2-17.9-0.3-19.8c-0.2-2.7-0.7-3.8-3.9-3.8h-4.9c-0.6,0-0.7-0.5-0.7-1.1v-2.3
				c0-0.5,0.1-0.7,0.7-0.7c1.1,0,4.9,0.3,13.7,0.3c10.2,0,14.6-0.3,15.6-0.3c0.9,0,1,0.3,1,0.8v2.4c0,0.5-0.2,0.8-1.1,0.8h-6.3
				c-3.3,0-3.7,1-3.7,4.1c0,1.4-0.3,17.3-0.3,24.6v9.1c0,1.8,0,20.5,0.3,24.8c2.3,0.2,17.7,0.4,21,0c6.2-1,12.5-13.6,14-17.7
				c0.2-0.4,0.4-0.6,0.8-0.4l1.7,0.6c0.3,0.2,0.3,0.3,0.2,1c-0.3,0.7-4.5,18.1-5.2,21c-1.4-0.1-9.6-0.2-19-0.2
				c-9.4-0.1-14.3-0.1-19.9-0.1c-4.1,0-7.2,0.1-9.4,0.1c-2.1,0.1-3.4,0.2-4.1,0.2c-0.7,0-0.8-0.2-0.8-0.7v-2.6
				c0-0.5,0.1-0.7,0.7-0.7h5c3.9,0,4.5-1.5,4.5-2.8c0-2,0.3-24.1,0.3-30.6V426.1z"/>
			<path class="st0" d="M1021.4,438.1c2,0,2.8-0.5,2.8-1.5c0-2.4-1.3-9.4-8.1-9.4c-4.6,0-9.1,3-11.1,10.8H1021.4z M1004.6,441.2
				c-0.2,1-0.3,2.6-0.3,5.1c0,10.3,6.5,18.1,15,18.1c6.4,0,10.9-3.7,12.7-7.2c0.2-0.4,0.6-0.6,1-0.5l1.4,0.7c0.3,0.1,0.5,0.4,0,1.6
				c-1.9,4.2-7.4,11.5-16.7,11.5c-6,0-12.6-1.8-16.5-7.5c-3.7-5.4-4.6-9.3-4.6-16.6c0-4.1,1.1-11.2,6.6-16.7
				c4.5-4.6,9.8-5.6,15.1-5.6c12.1,0,15.5,11.4,15.5,15.5c0,1.5-1.3,1.7-2.9,1.7H1004.6z"/>
			<path class="st0" d="M997.6,465.7h-3.4c-1.4,0-2.3-0.5-2.3-2.2v-27.2c0-2.6-2.6-7.9-5.8-10c-2.5-1.7-5.8-2.3-9-2.3
				c-5.3,0-11.4,3.9-14.4,7.7h-0.2l-0.7-6.4c-0.1-0.8-0.3-1.3-0.8-1.3c-0.4,0-1.1,0.3-1.9,0.7l-9.1,5.1c-0.5,0.2-0.9,0.5-0.9,1v0.5
				c0,0.3,0.1,0.6,0.8,0.9l0.8,0.4c2.6,1.3,4.3,3,4.3,6.2v24.6c0,1.8-0.7,2.1-2.1,2.1h-3.1c-0.8,0-1,0.3-1,1v1.9
				c0,0.3,0,0.5,0.1,0.6h10.5v0c5.2,0,7.9,0.3,8.6,0.3c0.5,0,0.7-0.3,0.7-1v-1.8c0-0.7-0.2-1.1-1.1-1.1h-2.6c-2.2,0-2.5-0.6-2.5-3.5
				v-21.8c0-2,0.3-4.9,2.4-7.2c3.2-3.4,6.8-4.1,8.5-4.1c2.6,0,5.2,0,7.7,1.9c3.1,2.2,3.1,5.3,3.1,9.5v13.9c0,2.7-0.1,6.1-0.2,8.8
				c-0.1,1.9-1,2.4-2.1,2.4H979c-1.1,0-1.4,0.2-1.4,1v1.7c0,0.8,0.2,1.2,0.8,1.2c0.7,0,4.1-0.3,9.5-0.3c6,0,9.3,0.3,10,0.3
				c0.6,0,0.8-0.4,0.8-1.2v-1.7C998.8,466.1,998.5,465.7,997.6,465.7z"/>
			<g>
				<path class="st0" d="M832.5,443.1v-6.7c-0.2-1.8-0.3-4.5-1.5-5.9c-1.2-1.4-3.3-2.3-6.3-2.3c-2.1,0-5.4,0.8-6.8,2.2
					c-1.5,1.4-0.4,2.9-0.5,4.8c-0.2,2.6-0.5,4.2-3.1,5.2c-2,0.7-4.1-0.7-4.3-2.9c-0.2-2.6,0.7-4.5,2.3-6.3c1.1-1.2,2.6-2.4,4-3.2
					c4.4-2.6,8.3-3.7,13-3.7c5,0,7,1.5,8.4,2.8c2.2,2.2,2.3,4.6,2.3,7.5v16.1v6.2c0,6,1.3,7.9,3.2,7.9c1.7,0,3.2-0.8,3.7-1.6
					c0.4-0.5,0.6-0.7,1.1-0.4l1,0.8c0.3,0.3,0.5,0.8-0.1,1.9c-0.8,1.6-2.8,5.2-8.2,5.2c-3.8,0-6.5-2.7-7.5-7.1H833"/>
				<path class="st0" d="M832.4,446.9c-3.8,2.6-14.3,3.8-14.3,12.6c0,3.9,2.4,6,5.6,6.3c3.1,0.2,8.8-3,8.8-5.9L832.4,446.9z
					 M833.3,464.4l-0.2,0c-2.2,2.5-5.8,4.4-10.6,5.6c-4.7,1.1-10,0.4-11.9-4.5c-0.6-1.4-0.8-3.1-0.8-4.6c0-4.9,2.2-9.3,10.7-12.3
					c4.8-1.7,10.4-3.8,12.1-5.1"/>
			</g>
			<g>
				<path class="st0" d="M390.8,443.1v-6.7c-0.2-1.8-0.3-4.5-1.5-5.9c-1.2-1.4-3.3-2.3-6.3-2.3c-2.1,0-5.4,0.8-6.8,2.2
					c-1.5,1.4-0.4,2.9-0.5,4.8c-0.2,2.6-0.5,4.2-3.1,5.2c-2,0.7-4.1-0.7-4.3-2.9c-0.2-2.6,0.7-4.5,2.3-6.3c1.1-1.2,2.6-2.4,4-3.2
					c4.4-2.6,8.3-3.7,13-3.7c5,0,7,1.5,8.4,2.8c2.2,2.2,2.3,4.6,2.3,7.5v16.1v6.2c0,6,1.3,7.9,3.2,7.9c1.7,0,3.2-0.8,3.7-1.6
					c0.4-0.5,0.6-0.7,1.1-0.4l1,0.8c0.3,0.3,0.5,0.8-0.1,1.9c-0.8,1.6-2.8,5.2-8.2,5.2c-3.8,0-6.5-2.7-7.5-7.1h-0.2"/>
				<path class="st0" d="M390.7,446.9c-3.8,2.6-14.3,3.8-14.3,12.6c0,3.9,2.4,6,5.6,6.3c3.1,0.2,8.8-3,8.8-5.9L390.7,446.9z
					 M391.6,464.4l-0.2,0c-2.2,2.5-5.8,4.4-10.6,5.6c-4.7,1.1-10,0.4-11.9-4.5c-0.6-1.4-0.8-3.1-0.8-4.6c0-4.9,2.2-9.3,10.7-12.3
					c4.8-1.7,10.4-3.8,12.1-5.1"/>
			</g>
			<path class="st0" d="M672.3,465.7h-2.8c-1.3,0-2.2-0.5-2.2-2.1v-23.5c0-8.1-2.6-10.4-5-13c-2.5-2.5-5.8-3.2-9.5-3.2
				c-6.3,0-12.3,4-15.5,8.1h-0.5c-2.2-4.9-6.4-8.1-11.9-8.1c-6.1,0-12.3,3.7-15.5,8H609l-0.4-6.1c0-0.7-0.3-1.5-1-1.5
				c-0.4,0-1.2,0.2-2,0.6l-9.3,4.7c-0.2,0.1-0.6,0.5-0.6,0.8v0.8c0,0.3,0.2,0.5,0.7,0.8l2.2,1.2c2.5,1.4,3,3.3,3,5.4v18.7
				c0,1.8,0,3.7-0.1,5.5c-0.1,2-0.6,2.6-1.6,2.6h-3.6c-1.1,0-1.3,0.1-1.3,1v1.9c0,0.3,0,0.5,0.1,0.6h10.5c5.8,0,8.6,0.3,9.6,0.3
				c0.7,0,0.8-0.4,0.8-1.2v-1.7c0-0.7-0.1-1-1.1-1h-3.8c-1.5,0-2.1-1-2.1-2.7v-20.8c0-3,0.2-5,1.5-7.1c2.9-4.7,7.4-6.1,10.1-6.1
				c2.3,0,5.4,0.6,6.7,1.9c1.7,1.6,3.1,3.6,3.1,11.4V464c0,1.4-0.6,1.8-2.3,1.8h-3.1c-0.9,0-1,0.2-1,1.1v1.7c0,0.7,0.2,1.1,0.7,1.1
				c0.6,0,4.2-0.3,9.9-0.3c5.9,0,8.6,0.3,9.4,0.3c0.5,0,0.7-0.3,0.7-1.2v-1.7c0-0.7-0.2-1-1.2-1h-3.6c-1.6,0-2.1-1-2.1-2.4v-18.2
				c0-4.7-0.1-7.6,1.5-10.6c1.7-3.1,6-5.5,9.2-5.5c3.2,0,5.9,0.7,7.8,2.2c2.4,1.9,3.1,5,3.1,8.4v15.6c0,2.3,0,6.1-0.2,8.5
				c-0.1,1.5-0.9,2-2.1,2h-2.6c-1.2,0-1.4,0.2-1.4,1v1.8c0,0.7,0.2,1.1,0.8,1.1c0.7,0,4.5-0.3,9.8-0.3c5.1,0,8,0.3,8.7,0.3
				c0.5,0,0.7-0.3,0.7-1.1v-1.8C673.4,466,673.2,465.7,672.3,465.7z"/>
			<g>
				<path class="st0" d="M949.4,465.7h-4.8c-1.2,0-1.5-0.7-1.7-2.7c-0.1-1.2-0.1-5-0.1-9v-11.5c0-8.8,0-15.4,0.2-17.2
					c0.1-0.7,0-1.3-0.5-1.3c-0.6,0-1.2,0.2-2,0.6c-4,2.2-8,3.9-11.4,5.2c-0.5,0.2-0.7,0.4-0.7,0.7v0.9c0,0.4,0.2,0.6,1,0.7
					c5.3,0.8,5.9,2.7,5.9,6.3v15.5c0,3.2,0,6.4-0.1,9.6c-0.1,1.7-0.5,2.1-1.7,2.1h-5.2c-0.7,0-1.1,0.2-1.1,0.9v2.1
					c0,0.6,0.3,0.8,0.8,0.8c1.1,0,5.2-0.3,11.2-0.3v0h11c0.1-0.2,0.2-0.4,0.2-0.7v-1.8C950.4,466.1,950.2,465.7,949.4,465.7z"/>
				<path class="st0" d="M936.5,413.8c4.2,0,6-3.2,6-5.9c0-2.3-1.7-5.3-5.4-5.3c-4.1,0-6.3,3-6.3,5.6
					C930.9,411.5,934.3,413.8,936.5,413.8z"/>
			</g>
			<path class="st0" d="M339.8,465.7H335c-2.2,0-2.6-1.5-2.7-3.3c-0.1-3.3-0.1-19.2-0.1-24.6v-9.4c0-2.5,0.2-25.9,0.4-29.4
				c0.1-1.2,0-1.9-0.5-1.9c-0.7,0-1.5,0.2-2.4,0.3c-2,0.4-7.5,1.4-11.6,2.2c-0.6,0.1-0.8,0.3-0.8,0.7v1.8c0,0.4,0.1,0.6,0.7,0.7
				c5.9,1,6.6,2.2,6.6,6.2c0,0,0,15.1,0,19.8v6.6c0,6.1,0,24.2-0.1,27.5c-0.1,1.9-1.2,2.6-2.3,2.6h-5.1c-1.2,0-1.4,0.2-1.4,1v1.8
				c0,0.6,0.2,1.1,0.7,1.1c0.9,0,5.2-0.3,11.9-0.3c1,0,2,0,2.9,0h9.5c0.1-0.2,0.2-0.4,0.2-0.8v-1.8
				C340.9,466.1,340.7,465.7,339.8,465.7z"/>
			<path class="st0" d="M366.3,465.7h-4.8c-2.2,0-2.6-1.5-2.7-3.3c-0.1-3.3-0.1-19.2-0.1-24.6v-9.4c0-2.5,0.2-25.9,0.4-29.4
				c0.1-1.2,0-1.9-0.5-1.9c-0.7,0-1.5,0.2-2.4,0.3c-2,0.4-7.5,1.4-11.6,2.2c-0.6,0.1-0.8,0.3-0.8,0.7v1.8c0,0.4,0.1,0.6,0.7,0.7
				c5.9,1,6.6,2.2,6.6,6.2c0,0,0,15.1,0,19.8v6.6c0,6.1,0,24.2-0.1,27.5c-0.1,1.9-1.2,2.6-2.3,2.6h-5.1c-1.2,0-1.4,0.2-1.4,1v1.8
				c0,0.6,0.2,1.1,0.7,1.1c0.9,0,5.2-0.3,11.9-0.3c1,0,2,0,2.9,0h9.5c0.1-0.2,0.2-0.4,0.2-0.8v-1.8
				C367.4,466.1,367.2,465.7,366.3,465.7z"/>
		</g>
	</g>
	<g>
		<path class="st0" d="M1052.9,427.7l-0.1-1.9c-0.1-1.5-0.7-1.8-1.3-2c0.7-0.4,1.5-1,1.5-2.6c0-2.3-1.7-2.9-3.4-2.9h-4.8V429h1.4
			v-4.6h3.4c1.7,0,1.8,1,1.8,1.9c0,0.4,0.1,2,0.3,2.7h1.7v-0.3C1052.9,428.6,1052.9,428.3,1052.9,427.7z M1049.4,423.2h-3.2v-3.7
			h3.5c0.7,0,1.8,0.1,1.8,1.8C1051.5,422.9,1050.5,423.2,1049.4,423.2z"/>
		<path class="st0" d="M1048.7,414.2c-5,0-9.1,4.2-9.1,9.4c0,5.2,4.1,9.4,9.1,9.4c5,0,9.1-4.2,9.1-9.4
			C1057.8,418.4,1053.7,414.2,1048.7,414.2z M1048.7,431.8c-4.3,0-7.8-3.7-7.8-8.2c0-4.5,3.5-8.2,7.8-8.2s7.8,3.7,7.8,8.2
			C1056.5,428.1,1053,431.8,1048.7,431.8z"/>
	</g>
</g>
</svg>
