<svg width="104" height="104" viewBox="0 0 104 104" fill="none" xmlns="http://www.w3.org/2000/svg">
<path d="M42.9219 47.2334C41.8965 47.2334 41.1025 47.6201 40.54 48.3936C39.9775 49.1611 39.6963 50.2334 39.6963 51.6104C39.6963 54.4756 40.7715 55.9082 42.9219 55.9082C43.8242 55.9082 44.917 55.6826 46.2002 55.2314V57.5166C45.1455 57.9561 43.9678 58.1758 42.667 58.1758C40.7979 58.1758 39.3682 57.6104 38.3779 56.4795C37.3877 55.3428 36.8926 53.7139 36.8926 51.5928C36.8926 50.2568 37.1357 49.0879 37.6221 48.0859C38.1084 47.0781 38.8057 46.3076 39.7139 45.7744C40.6279 45.2354 41.6973 44.9658 42.9219 44.9658C44.1699 44.9658 45.4238 45.2676 46.6836 45.8711L45.8047 48.0859C45.3242 47.8574 44.8408 47.6582 44.3545 47.4883C43.8682 47.3184 43.3906 47.2334 42.9219 47.2334ZM56.5273 54.4316C56.5273 55.5918 56.1084 56.5059 55.2705 57.1738C54.4385 57.8418 53.2783 58.1758 51.79 58.1758C50.4189 58.1758 49.2061 57.918 48.1514 57.4023V54.8711C49.0186 55.2578 49.751 55.5303 50.3486 55.6885C50.9521 55.8467 51.5029 55.9258 52.001 55.9258C52.5986 55.9258 53.0557 55.8115 53.3721 55.583C53.6943 55.3545 53.8555 55.0146 53.8555 54.5635C53.8555 54.3115 53.7852 54.0889 53.6445 53.8955C53.5039 53.6963 53.2959 53.5059 53.0205 53.3242C52.751 53.1426 52.1973 52.8525 51.3594 52.4541C50.5742 52.085 49.9854 51.7305 49.5928 51.3906C49.2002 51.0508 48.8867 50.6553 48.6523 50.2041C48.418 49.7529 48.3008 49.2256 48.3008 48.6221C48.3008 47.4854 48.6846 46.5918 49.4521 45.9414C50.2256 45.291 51.292 44.9658 52.6514 44.9658C53.3193 44.9658 53.9551 45.0449 54.5586 45.2031C55.168 45.3613 55.8037 45.584 56.4658 45.8711L55.5869 47.9893C54.9014 47.708 54.333 47.5117 53.8818 47.4004C53.4365 47.2891 52.9971 47.2334 52.5635 47.2334C52.0479 47.2334 51.6523 47.3535 51.377 47.5938C51.1016 47.834 50.9639 48.1475 50.9639 48.5342C50.9639 48.7744 51.0195 48.9854 51.1309 49.167C51.2422 49.3428 51.418 49.5156 51.6582 49.6855C51.9043 49.8496 52.4814 50.1484 53.3896 50.582C54.5908 51.1562 55.4141 51.7334 55.8594 52.3135C56.3047 52.8877 56.5273 53.5938 56.5273 54.4316ZM66.4414 54.4316C66.4414 55.5918 66.0225 56.5059 65.1846 57.1738C64.3525 57.8418 63.1924 58.1758 61.7041 58.1758C60.333 58.1758 59.1201 57.918 58.0654 57.4023V54.8711C58.9326 55.2578 59.665 55.5303 60.2627 55.6885C60.8662 55.8467 61.417 55.9258 61.915 55.9258C62.5127 55.9258 62.9697 55.8115 63.2861 55.583C63.6084 55.3545 63.7695 55.0146 63.7695 54.5635C63.7695 54.3115 63.6992 54.0889 63.5586 53.8955C63.418 53.6963 63.21 53.5059 62.9346 53.3242C62.665 53.1426 62.1113 52.8525 61.2734 52.4541C60.4883 52.085 59.8994 51.7305 59.5068 51.3906C59.1143 51.0508 58.8008 50.6553 58.5664 50.2041C58.332 49.7529 58.2148 49.2256 58.2148 48.6221C58.2148 47.4854 58.5986 46.5918 59.3662 45.9414C60.1396 45.291 61.2061 44.9658 62.5654 44.9658C63.2334 44.9658 63.8691 45.0449 64.4727 45.2031C65.082 45.3613 65.7178 45.584 66.3799 45.8711L65.501 47.9893C64.8154 47.708 64.2471 47.5117 63.7959 47.4004C63.3506 47.2891 62.9111 47.2334 62.4775 47.2334C61.9619 47.2334 61.5664 47.3535 61.291 47.5938C61.0156 47.834 60.8779 48.1475 60.8779 48.5342C60.8779 48.7744 60.9336 48.9854 61.0449 49.167C61.1562 49.3428 61.332 49.5156 61.5723 49.6855C61.8184 49.8496 62.3955 50.1484 63.3037 50.582C64.5049 51.1562 65.3281 51.7334 65.7734 52.3135C66.2188 52.8877 66.4414 53.5938 66.4414 54.4316Z" fill="#A8DAFF"/>
<path d="M55 101.113C53.1436 102.185 50.8564 102.185 49 101.113L10.9667 79.1547C9.11027 78.0829 7.96667 76.1021 7.96667 73.9586L7.96667 30.0415C7.96667 27.8979 9.11026 25.9171 10.9667 24.8453L49 2.88676C50.8564 1.81495 53.1436 1.81495 55 2.88676L93.0333 24.8453C94.8897 25.9171 96.0333 27.8979 96.0333 30.0415L96.0333 73.9585C96.0333 76.1021 94.8897 78.0829 93.0333 79.1547L55 101.113Z" stroke="#206699" stroke-width="2"/>
</svg>
