<svg width="104" height="104" viewBox="0 0 104 104" fill="none" xmlns="http://www.w3.org/2000/svg">
<path d="M37.9648 58H35.249V52.4541H30.1602V58H27.4355V45.1504H30.1602V50.1865H35.249V45.1504H37.9648V58ZM46.1738 58H43.4492V47.418H39.96V45.1504H49.6631V47.418H46.1738V58ZM57.0811 58L53.9873 47.9189H53.9082C54.0195 49.9697 54.0752 51.3379 54.0752 52.0234V58H51.6406V45.1504H55.3496L58.3906 54.9766H58.4434L61.6689 45.1504H65.3779V58H62.8379V51.918C62.8379 51.6309 62.8408 51.2998 62.8467 50.9248C62.8584 50.5498 62.8994 49.5537 62.9697 47.9365H62.8906L59.5771 58H57.0811ZM68.6211 58V45.1504H71.3457V55.75H76.5576V58H68.6211Z" fill="#A8DAFF"/>
<path d="M55 101.113C53.1436 102.185 50.8564 102.185 49 101.113L10.9667 79.1547C9.11027 78.0829 7.96667 76.1021 7.96667 73.9586L7.96667 30.0415C7.96667 27.8979 9.11026 25.9171 10.9667 24.8453L49 2.88676C50.8564 1.81495 53.1436 1.81495 55 2.88676L93.0333 24.8453C94.8897 25.9171 96.0333 27.8979 96.0333 30.0415L96.0333 73.9585C96.0333 76.1021 94.8897 78.0829 93.0333 79.1547L55 101.113Z" stroke="#206699" stroke-width="2"/>
</svg>
