<?xml version="1.0" encoding="utf-8"?>
<!-- Generator: Adobe Illustrator 25.1.0, SVG Export Plug-In . SVG Version: 6.00 Build 0)  -->
<svg version="1.1" id="Layer_1" xmlns="http://www.w3.org/2000/svg" xmlns:xlink="http://www.w3.org/1999/xlink" x="0px" y="0px"
	 viewBox="0 0 76 76" style="enable-background:new 0 0 76 76;" xml:space="preserve">
<style type="text/css">
	.st0{fill:#FFFFFF;stroke:#206699;stroke-width:2;}
	.st1{fill:#216699;}
</style>
<path class="st0" d="M41,73.1c-1.9,1.1-4.1,1.1-6,0l-25.9-15c-1.9-1.1-3-3.1-3-5.2l0-29.9c0-2.1,1.1-4.1,3-5.2L35,2.9
	c1.9-1.1,4.1-1.1,6,0l25.9,15c1.9,1.1,3,3.1,3,5.2V53c0,2.1-1.1,4.1-3,5.2L41,73.1z"/>
<path class="st1" d="M29.3,33.7c-1,0-1.8,0.4-2.4,1.2C26.3,35.6,26,36.7,26,38c0,2.9,1.1,4.3,3.2,4.3c0.9,0,2-0.2,3.3-0.7v2.3
	c-1.1,0.4-2.2,0.7-3.5,0.7c-1.9,0-3.3-0.6-4.3-1.7c-1-1.1-1.5-2.8-1.5-4.9c0-1.3,0.2-2.5,0.7-3.5c0.5-1,1.2-1.8,2.1-2.3
	c0.9-0.5,2-0.8,3.2-0.8c1.2,0,2.5,0.3,3.8,0.9l-0.9,2.2c-0.5-0.2-1-0.4-1.5-0.6S29.7,33.7,29.3,33.7z M42.9,40.9
	c0,1.2-0.4,2.1-1.3,2.7c-0.8,0.7-2,1-3.5,1c-1.4,0-2.6-0.3-3.6-0.8v-2.5c0.9,0.4,1.6,0.7,2.2,0.8c0.6,0.2,1.2,0.2,1.7,0.2
	c0.6,0,1.1-0.1,1.4-0.3c0.3-0.2,0.5-0.6,0.5-1c0-0.3-0.1-0.5-0.2-0.7c-0.1-0.2-0.3-0.4-0.6-0.6c-0.3-0.2-0.8-0.5-1.7-0.9
	c-0.8-0.4-1.4-0.7-1.8-1.1c-0.4-0.3-0.7-0.7-0.9-1.2c-0.2-0.5-0.4-1-0.4-1.6c0-1.1,0.4-2,1.2-2.7c0.8-0.7,1.8-1,3.2-1
	c0.7,0,1.3,0.1,1.9,0.2c0.6,0.2,1.2,0.4,1.9,0.7l-0.9,2.1c-0.7-0.3-1.3-0.5-1.7-0.6c-0.4-0.1-0.9-0.2-1.3-0.2
	c-0.5,0-0.9,0.1-1.2,0.4c-0.3,0.2-0.4,0.6-0.4,0.9c0,0.2,0.1,0.5,0.2,0.6c0.1,0.2,0.3,0.3,0.5,0.5c0.2,0.2,0.8,0.5,1.7,0.9
	c1.2,0.6,2,1.2,2.5,1.7C42.6,39.3,42.9,40,42.9,40.9z M52.8,40.9c0,1.2-0.4,2.1-1.3,2.7c-0.8,0.7-2,1-3.5,1c-1.4,0-2.6-0.3-3.6-0.8
	v-2.5c0.9,0.4,1.6,0.7,2.2,0.8c0.6,0.2,1.2,0.2,1.7,0.2c0.6,0,1.1-0.1,1.4-0.3c0.3-0.2,0.5-0.6,0.5-1c0-0.3-0.1-0.5-0.2-0.7
	c-0.1-0.2-0.3-0.4-0.6-0.6c-0.3-0.2-0.8-0.5-1.7-0.9c-0.8-0.4-1.4-0.7-1.8-1.1c-0.4-0.3-0.7-0.7-0.9-1.2c-0.2-0.5-0.4-1-0.4-1.6
	c0-1.1,0.4-2,1.2-2.7c0.8-0.7,1.8-1,3.2-1c0.7,0,1.3,0.1,1.9,0.2c0.6,0.2,1.2,0.4,1.9,0.7l-0.9,2.1c-0.7-0.3-1.3-0.5-1.7-0.6
	c-0.4-0.1-0.9-0.2-1.3-0.2c-0.5,0-0.9,0.1-1.2,0.4c-0.3,0.2-0.4,0.6-0.4,0.9c0,0.2,0.1,0.5,0.2,0.6c0.1,0.2,0.3,0.3,0.5,0.5
	c0.2,0.2,0.8,0.5,1.7,0.9c1.2,0.6,2,1.2,2.5,1.7C52.6,39.3,52.8,40,52.8,40.9z"/>
</svg>
