<?xml version="1.0" encoding="utf-8"?>
<!-- Generator: Adobe Illustrator 25.1.0, SVG Export Plug-In . SVG Version: 6.00 Build 0)  -->
<svg version="1.1" id="Layer_1" xmlns="http://www.w3.org/2000/svg" xmlns:xlink="http://www.w3.org/1999/xlink" x="0px" y="0px"
	 viewBox="0 0 76 76" style="enable-background:new 0 0 76 76;" xml:space="preserve">
<style type="text/css">
	.st0{fill:#FFFFFF;stroke:#206699;stroke-width:2;}
	.st1{fill:#216699;}
</style>
<path class="st0" d="M41,73.1c-1.9,1.1-4.1,1.1-6,0l-25.9-15c-1.9-1.1-3-3.1-3-5.2V23c0-2.1,1.1-4.1,3-5.2L35,2.9
	c1.9-1.1,4.1-1.1,6,0l25.9,15c1.9,1.1,3,3.1,3,5.2V53c0,2.1-1.1,4.1-3,5.2L41,73.1z"/>
<path class="st1" d="M25,44.4h-2.7v-5.5h-5.1v5.5h-2.7V31.6h2.7v5h5.1v-5H25V44.4z M33.2,44.4h-2.7V33.8H27v-2.3h9.7v2.3h-3.5V44.4z
	 M44.1,44.4L41,34.3h-0.1c0.1,2.1,0.2,3.4,0.2,4.1v6h-2.4V31.6h3.7l3,9.8h0.1l3.2-9.8h3.7v12.8h-2.5v-6.1c0-0.3,0-0.6,0-1
	s0.1-1.4,0.1-3h-0.1l-3.3,10.1H44.1z M55.6,44.4V31.6h2.7v10.6h5.2v2.2H55.6z"/>
</svg>
