<svg width="76" height="76" viewBox="0 0 76 76" fill="none" xmlns="http://www.w3.org/2000/svg">
<path d="M41 73.1133C39.1436 74.185 36.8564 74.185 35 73.1133L9.09105 58.1547C7.23464 57.0829 6.09105 55.1022 6.09105 52.9586L6.09104 23.0415C6.09104 20.8979 7.23464 18.9171 9.09104 17.8453L35 2.88677C36.8564 1.81497 39.1436 1.81497 41 2.88678L66.909 17.8453C68.7654 18.9171 69.909 20.8979 69.909 23.0415L69.909 52.9586C69.909 55.1021 68.7654 57.0829 66.909 58.1547L41 73.1133Z" fill="white" stroke="#206699" stroke-width="2"/>
<path d="M36.3813 41.2565H31.1298L30.0613 44.6608C30.0316 44.7873 29.9151 44.8769 29.7884 44.8707H27.1286C26.9769 44.8707 26.9238 44.7852 26.9694 44.6142L31.5162 31.1836C31.5617 31.0437 31.6072 30.8843 31.6527 30.7056C31.7121 30.3945 31.7426 30.0783 31.7436 29.7612C31.7306 29.6676 31.8129 29.5849 31.9027 29.598H35.5174C35.6233 29.598 35.684 29.6369 35.6993 29.7146L40.86 44.6375C40.9055 44.7931 40.86 44.8708 40.7236 44.8707H37.7681C37.6644 44.8825 37.5655 44.8114 37.5408 44.7075L36.3813 41.2565ZM31.9482 38.3186H35.5402C34.95 36.302 34.284 34.3118 33.7442 32.2795C33.1618 34.3153 32.5264 36.3428 31.9482 38.3186Z" fill="#216699"/>
<path d="M43.9288 32.0696C43.6969 32.0791 43.4657 32.0383 43.2502 31.9499C43.0348 31.8616 42.8399 31.7275 42.6784 31.5566C42.5174 31.3782 42.3923 31.169 42.3104 30.9409C42.2284 30.7128 42.1913 30.4704 42.201 30.2275C42.1927 29.987 42.234 29.7475 42.3221 29.5245C42.4103 29.3015 42.5433 29.1001 42.7125 28.9334C42.8801 28.7684 43.0779 28.6392 43.2944 28.5532C43.511 28.4671 43.7421 28.426 43.9743 28.4321C44.5199 28.4321 44.9481 28.5992 45.2588 28.9334C45.4156 29.1071 45.5375 29.3108 45.6174 29.5328C45.6974 29.7549 45.7339 29.991 45.7248 30.2275C45.7343 30.4713 45.6959 30.7146 45.612 30.9429C45.528 31.1713 45.4001 31.3799 45.236 31.5566C45.0645 31.73 44.8597 31.8651 44.6348 31.9534C44.4098 32.0417 44.1694 32.0812 43.9288 32.0696ZM42.3601 44.6374V33.4919C42.3601 33.352 42.4205 33.282 42.542 33.282H45.3383C45.4595 33.282 45.5201 33.352 45.5202 33.4919V44.6374C45.5202 44.793 45.4596 44.8707 45.3383 44.8706H42.5647C42.4284 44.8706 42.3602 44.7929 42.3601 44.6374Z" fill="#216699"/>
</svg>
