<?xml version="1.0" encoding="utf-8"?>
<!-- Generator: Adobe Illustrator 25.1.0, SVG Export Plug-In . SVG Version: 6.00 Build 0)  -->
<svg version="1.1" id="Layer_1" xmlns="http://www.w3.org/2000/svg" xmlns:xlink="http://www.w3.org/1999/xlink" x="0px" y="0px"
	 viewBox="0 0 76 76" style="enable-background:new 0 0 76 76;" xml:space="preserve">
<style type="text/css">
	.st0{fill:#FFFFFF;stroke:#206699;stroke-width:2;}
	.st1{fill:#216699;}
</style>
<path class="st0" d="M41,73.1c-1.9,1.1-4.1,1.1-6,0l-25.9-15c-1.9-1.1-3-3.1-3-5.2l0-29.9c0-2.1,1.1-4.1,3-5.2L35,2.9
	c1.9-1.1,4.1-1.1,6,0l25.9,15c1.9,1.1,3,3.1,3,5.2V53c0,2.1-1.1,4.1-3,5.2L41,73.1z"/>
<path class="st1" d="M31.4,48.2c-0.6,0-1.2-0.1-1.6-0.2v-2.3c0.5,0.1,0.9,0.2,1.3,0.2c0.6,0,1-0.2,1.3-0.6c0.3-0.4,0.4-0.9,0.4-1.7
	v-12h2.7v12c0,1.5-0.3,2.6-1,3.4C33.7,47.8,32.7,48.2,31.4,48.2z M46.2,40.9c0,1.2-0.4,2.1-1.3,2.7c-0.8,0.7-2,1-3.5,1
	c-1.4,0-2.6-0.3-3.6-0.8v-2.5c0.9,0.4,1.6,0.7,2.2,0.8c0.6,0.2,1.2,0.2,1.7,0.2c0.6,0,1.1-0.1,1.4-0.3c0.3-0.2,0.5-0.6,0.5-1
	c0-0.3-0.1-0.5-0.2-0.7c-0.1-0.2-0.3-0.4-0.6-0.6c-0.3-0.2-0.8-0.5-1.7-0.9c-0.8-0.4-1.4-0.7-1.8-1.1c-0.4-0.3-0.7-0.7-0.9-1.2
	c-0.2-0.5-0.4-1-0.4-1.6c0-1.1,0.4-2,1.2-2.7c0.8-0.7,1.8-1,3.2-1c0.7,0,1.3,0.1,1.9,0.2c0.6,0.2,1.2,0.4,1.9,0.7l-0.9,2.1
	c-0.7-0.3-1.3-0.5-1.7-0.6c-0.4-0.1-0.9-0.2-1.3-0.2c-0.5,0-0.9,0.1-1.2,0.4c-0.3,0.2-0.4,0.6-0.4,0.9c0,0.2,0.1,0.5,0.2,0.6
	c0.1,0.2,0.3,0.3,0.5,0.5c0.2,0.2,0.8,0.5,1.7,0.9c1.2,0.6,2,1.2,2.5,1.7C46,39.3,46.2,40,46.2,40.9z"/>
</svg>
