<?xml version="1.0" encoding="utf-8"?>
<!-- Generator: Adobe Illustrator 25.1.0, SVG Export Plug-In . SVG Version: 6.00 Build 0)  -->
<svg version="1.1" id="Layer_1" xmlns="http://www.w3.org/2000/svg" xmlns:xlink="http://www.w3.org/1999/xlink" x="0px" y="0px"
	 viewBox="0 0 76 76" style="enable-background:new 0 0 76 76;" xml:space="preserve">
<style type="text/css">
	.st0{fill:#FFFFFF;stroke:#206699;stroke-width:2;}
	.st1{fill:#216699;}
</style>
<path class="st0" d="M41,73.1c-1.9,1.1-4.1,1.1-6,0l-25.9-15c-1.9-1.1-3-3.1-3-5.2V23c0-2.1,1.1-4.1,3-5.2L35,2.9
	c1.9-1.1,4.1-1.1,6,0l25.9,15c1.9,1.1,3,3.1,3,5.2V53c0,2.1-1.1,4.1-3,5.2L41,73.1z"/>
<g>
	<path class="st1" d="M16.4,43.7l-2.9-9.5h-0.1c0.1,1.9,0.2,3.2,0.2,3.9v5.6h-2.3V31.5h3.5l2.9,9.3h0l3-9.3h3.5v12.1h-2.4v-5.7
		c0-0.3,0-0.6,0-0.9c0-0.4,0-1.3,0.1-2.8h-0.1l-3.1,9.5H16.4z"/>
	<path class="st1" d="M30.6,36.5l2.5-5h2.8l-4,7.4v4.7h-2.6V39l-4-7.5h2.8L30.6,36.5z"/>
	<path class="st1" d="M44.2,40.3c0,1.1-0.4,2-1.2,2.6s-1.9,0.9-3.3,0.9c-1.3,0-2.4-0.2-3.4-0.7v-2.4c0.8,0.4,1.5,0.6,2.1,0.8
		c0.6,0.1,1.1,0.2,1.6,0.2c0.6,0,1-0.1,1.3-0.3c0.3-0.2,0.5-0.5,0.5-1c0-0.2-0.1-0.4-0.2-0.6c-0.1-0.2-0.3-0.4-0.6-0.5
		s-0.8-0.4-1.6-0.8c-0.7-0.3-1.3-0.7-1.7-1c-0.4-0.3-0.7-0.7-0.9-1.1s-0.3-0.9-0.3-1.5c0-1.1,0.4-1.9,1.1-2.5c0.7-0.6,1.7-0.9,3-0.9
		c0.6,0,1.2,0.1,1.8,0.2c0.6,0.1,1.2,0.4,1.8,0.6l-0.8,2c-0.6-0.3-1.2-0.5-1.6-0.6c-0.4-0.1-0.8-0.2-1.2-0.2c-0.5,0-0.9,0.1-1.1,0.3
		s-0.4,0.5-0.4,0.9c0,0.2,0.1,0.4,0.2,0.6c0.1,0.2,0.3,0.3,0.5,0.5c0.2,0.2,0.8,0.4,1.6,0.9c1.1,0.5,1.9,1.1,2.3,1.6
		C44,38.9,44.2,39.5,44.2,40.3z"/>
	<path class="st1" d="M57,37.6c0,1.4-0.3,2.6-0.8,3.6c-0.5,1-1.2,1.7-2.2,2.1l2.9,3.3h-3.3l-2.2-2.7h-0.2c-1.9,0-3.3-0.5-4.3-1.6
		s-1.5-2.6-1.5-4.6s0.5-3.6,1.5-4.6c1-1.1,2.4-1.6,4.3-1.6c1.9,0,3.3,0.5,4.3,1.6C56.5,34,57,35.6,57,37.6z M48.1,37.6
		c0,1.4,0.3,2.4,0.8,3.1c0.5,0.7,1.3,1,2.3,1c2.1,0,3.1-1.4,3.1-4.1c0-2.7-1-4.1-3.1-4.1c-1,0-1.8,0.3-2.3,1
		C48.4,35.2,48.1,36.2,48.1,37.6z"/>
	<path class="st1" d="M59.1,43.7V31.5h2.6v10h4.9v2.1H59.1z"/>
</g>
</svg>
