<?xml version="1.0" encoding="utf-8"?>
<!-- Generator: Adobe Illustrator 25.1.0, SVG Export Plug-In . SVG Version: 6.00 Build 0)  -->
<svg version="1.1" id="Layer_1" xmlns="http://www.w3.org/2000/svg" xmlns:xlink="http://www.w3.org/1999/xlink" x="0px" y="0px"
	 viewBox="0 0 76 76" style="enable-background:new 0 0 76 76;" xml:space="preserve">
<style type="text/css">
	.st0{fill:#FFFFFF;stroke:#206699;stroke-width:2;}
	.st1{fill:#216699;}
</style>
<path class="st0" d="M41,73.1c-1.9,1.1-4.1,1.1-6,0l-25.9-15c-1.9-1.1-3-3.1-3-5.2V23c0-2.1,1.1-4.1,3-5.2L35,2.9
	c1.9-1.1,4.1-1.1,6,0l25.9,15c1.9,1.1,3,3.1,3,5.2V53c0,2.1-1.1,4.1-3,5.2L41,73.1z"/>
<g>
	<path class="st1" d="M25.3,44.4h-3.5l-5.6-9.7h-0.1c0.1,1.7,0.2,2.9,0.2,3.7v6h-2.4V31.6h3.4l5.6,9.6h0.1c-0.1-1.7-0.1-2.9-0.1-3.5
		v-6.1h2.5V44.4z"/>
	<path class="st1" d="M40.1,38c0,2.1-0.5,3.8-1.6,4.9C37.5,44,36,44.6,34,44.6s-3.5-0.6-4.5-1.7s-1.6-2.8-1.6-4.9s0.5-3.8,1.6-4.9
		s2.6-1.7,4.5-1.7s3.5,0.6,4.5,1.7C39.6,34.2,40.1,35.9,40.1,38z M30.8,38c0,1.4,0.3,2.5,0.8,3.2s1.4,1.1,2.4,1.1
		c2.2,0,3.3-1.4,3.3-4.3c0-2.9-1.1-4.3-3.2-4.3c-1.1,0-1.9,0.4-2.5,1.1S30.8,36.6,30.8,38z"/>
	<path class="st1" d="M53.5,37.9c0,2.1-0.6,3.7-1.8,4.9c-1.2,1.1-2.9,1.7-5.2,1.7h-3.6V31.6h4c2.1,0,3.7,0.6,4.9,1.7
		S53.5,35.9,53.5,37.9z M50.6,38c0-2.8-1.2-4.1-3.7-4.1h-1.5v8.4h1.2C49.3,42.2,50.6,40.8,50.6,38z"/>
	<path class="st1" d="M63.5,44.4h-7.4V31.6h7.4v2.2h-4.7v2.8h4.4v2.2h-4.4v3.3h4.7V44.4z"/>
</g>
</svg>
