<svg width="76" height="76" viewBox="0 0 76 76" fill="none" xmlns="http://www.w3.org/2000/svg">
<path d="M41 73.1133C39.1436 74.185 36.8564 74.185 35 73.1133L9.09104 58.1547C7.23463 57.0829 6.09104 55.1021 6.09104 52.9586L6.09104 23.0415C6.09104 20.8979 7.23463 18.9171 9.09104 17.8453L35 2.88677C36.8564 1.81496 39.1436 1.81496 41 2.88677L66.909 17.8453C68.7654 18.9171 69.909 20.8979 69.909 23.0415L69.909 52.9586C69.909 55.1021 68.7654 57.0829 66.909 58.1547L41 73.1133Z" fill="white" stroke="#206699" stroke-width="2"/>
<path d="M27.9521 45.5215V30.6188C27.9521 30.5174 27.9945 30.4595 28.0934 30.4595C29.5526 30.4595 31.0111 30.3726 32.4707 30.3726C34.8392 30.3726 37.4036 31.1824 38.3025 33.6602C38.5144 34.2684 38.6273 34.8912 38.6273 35.5429C38.6273 36.7884 38.3449 37.8167 37.7801 38.6277C36.2023 40.8932 33.4676 40.858 31.0163 40.858V45.507C31.0355 45.6446 30.9182 45.7097 30.8045 45.7097H28.1216C28.0086 45.7097 27.9521 45.6518 27.9521 45.5215ZM31.0304 33.2546V38.1208C32.0024 38.192 33.0195 38.1997 33.9534 37.8891C34.9844 37.5917 35.549 36.6992 35.549 35.6298C35.5777 34.7185 35.0811 33.8442 34.2358 33.5153C33.3132 33.1317 32.0264 33.1087 31.0304 33.2546Z" fill="#216699"/>
<path d="M47.4345 37.1594C47.0073 36.9342 46.5522 36.7695 46.0818 36.6697C45.4773 36.5275 43.0932 36.0293 43.0923 37.276C43.1135 37.972 44.2182 38.3129 44.7064 38.5118C46.42 39.1001 48.3593 40.1518 48.3211 42.2658C48.3735 44.8976 45.8236 45.9497 43.6379 45.9499C42.5 45.9617 41.3146 45.7855 40.2732 45.297C40.1738 45.2444 40.1098 45.1319 40.1141 45.0172V42.499C40.1029 42.398 40.2112 42.3098 40.296 42.3824C41.3163 42.9995 42.5257 43.2991 43.7061 43.3151C44.2271 43.3151 45.2599 43.2646 45.252 42.499C45.252 41.7643 44.0167 41.4265 43.5242 41.2399C42.8104 40.985 42.1335 40.6321 41.5122 40.1906C40.644 39.5713 40.0993 38.5783 40.1141 37.4858C40.109 35.0078 42.4562 33.8955 44.57 33.895C45.5582 33.8869 46.6194 33.96 47.5392 34.3613C47.6715 34.4003 47.6989 34.5396 47.6984 34.6645V37.0195C47.7068 37.1657 47.5444 37.2154 47.4345 37.1594Z" fill="#216699"/>
</svg>
